<mxfile host="app.diagrams.net" agent="Mozilla/5.0 (X11; Linux x86_64) AppleWebKit/537.36 (KHTML, like Gecko) Chrome/131.0.0.0 Safari/537.36" version="25.0.1" pages="2">
  <diagram id="mrqZUafg57jRS9GJFC6L" name="Rev1">
    <mxGraphModel dx="2181" dy="871" grid="1" gridSize="10" guides="1" tooltips="1" connect="1" arrows="1" fold="1" page="1" pageScale="1" pageWidth="850" pageHeight="1100" math="0" shadow="0">
      <root>
        <mxCell id="0" />
        <mxCell id="1" parent="0" />
        <mxCell id="r7xqQwzz1_i2SjMvlClv-1" value="&lt;b&gt;Internet&lt;/b&gt;" style="fillColor=none;strokeColor=default;shadow=0;gradientColor=none;fontSize=14;align=left;spacing=10;fontColor=#717171;9E9E9E;verticalAlign=top;spacingTop=-4;fontStyle=0;spacingLeft=40;html=1;dashed=1;" vertex="1" parent="1">
          <mxGeometry x="-140" y="90" width="1620" height="840" as="geometry" />
        </mxCell>
        <mxCell id="r7xqQwzz1_i2SjMvlClv-2" value="&lt;b&gt;Google &lt;/b&gt;Cloud Platform" style="fillColor=#f5f5f5;strokeColor=#666666;shadow=0;fontSize=14;align=left;spacing=10;fontColor=#333333;9E9E9E;verticalAlign=top;spacingTop=-4;fontStyle=0;spacingLeft=40;html=1;" vertex="1" parent="1">
          <mxGeometry x="60" y="128.5" width="740" height="610" as="geometry" />
        </mxCell>
        <mxCell id="r7xqQwzz1_i2SjMvlClv-3" value="" style="group" vertex="1" connectable="0" parent="1">
          <mxGeometry x="80" y="168.5" width="230" height="545" as="geometry" />
        </mxCell>
        <mxCell id="r7xqQwzz1_i2SjMvlClv-4" value="" style="group" vertex="1" connectable="0" parent="r7xqQwzz1_i2SjMvlClv-3">
          <mxGeometry width="230.00000000000003" height="545" as="geometry" />
        </mxCell>
        <mxCell id="r7xqQwzz1_i2SjMvlClv-5" value="" style="strokeColor=#dddddd;shadow=1;strokeWidth=1;rounded=1;absoluteArcSize=1;arcSize=2;" vertex="1" parent="r7xqQwzz1_i2SjMvlClv-4">
          <mxGeometry width="230.00000000000003" height="545" as="geometry" />
        </mxCell>
        <mxCell id="r7xqQwzz1_i2SjMvlClv-6" value="&lt;span style=&quot;forced-color-adjust: none; font-family: Helvetica; font-size: 12px; font-style: normal; font-variant-ligatures: normal; font-variant-caps: normal; font-weight: 400; letter-spacing: normal; orphans: 2; text-indent: 0px; text-transform: none; widows: 2; word-spacing: 0px; -webkit-text-stroke-width: 0px; white-space: nowrap; background-color: rgb(251, 251, 251); text-decoration-thickness: initial; text-decoration-style: initial; text-decoration-color: initial; text-align: left; float: none; display: inline !important;&quot;&gt;Artifact Registry&lt;/span&gt;&lt;div&gt;&lt;span style=&quot;forced-color-adjust: none; font-family: Helvetica; font-size: 12px; font-style: normal; font-variant-ligatures: normal; font-variant-caps: normal; font-weight: 400; letter-spacing: normal; orphans: 2; text-indent: 0px; text-transform: none; widows: 2; word-spacing: 0px; -webkit-text-stroke-width: 0px; white-space: nowrap; background-color: rgb(251, 251, 251); text-decoration-thickness: initial; text-decoration-style: initial; text-decoration-color: initial; color: rgb(153, 153, 153); text-align: left; float: none; display: inline !important;&quot;&gt;Docker&lt;/span&gt;&lt;/div&gt;" style="text;whiteSpace=wrap;html=1;" vertex="1" parent="r7xqQwzz1_i2SjMvlClv-4">
          <mxGeometry x="80.81" y="490.99099099099095" width="111.89" height="54.009009009009006" as="geometry" />
        </mxCell>
        <mxCell id="r7xqQwzz1_i2SjMvlClv-7" value="" style="editableCssRules=.*;html=1;shape=image;verticalLabelPosition=bottom;labelBackgroundColor=#ffffff;verticalAlign=top;aspect=fixed;imageAspect=0;image=data:image/svg+xml,PHN2ZyB4bWxucz0iaHR0cDovL3d3dy53My5vcmcvMjAwMC9zdmciIHhtbG5zOnY9Imh0dHBzOi8vdmVjdGEuaW8vbmFubyIgd2lkdGg9IjM3Ny4xNTkzMDIxNjAyNjMwNSIgaGVpZ2h0PSIzMzYuMTYyNDk5MDAzMzEwOCIgdmlld0JveD0iLTAuMDU4MDAwMDA1NzgxNjUwNTQgMC4xMTI5OTk5OTgwMzMwNDY3MiA5OS43OTAwMDA5MTU1MjczNCA4OC45NDMwMDA3OTM0NTcwMyI+JiN4YTs8c3R5bGUgdHlwZT0idGV4dC9jc3MiPiYjeGE7CS5zdDB7ZmlsbDojNjY5ZGY2O30mI3hhOwkuc3Qxe2ZpbGw6I2FlY2JmYTt9JiN4YTsJLnN0MntmaWxsOiM0Mjg1ZjQ7fSYjeGE7PC9zdHlsZT4mI3hhOwk8cGF0aCBjbGFzcz0ic3QwIiBkPSJNNTMuMjQzIDYyLjA5VjQ3LjA5NGwxMy4yMDEgOC40MTZ2MTUuMDM4em0tMzMuMDIxIDBWNDcuMDk0bDEzLjIwMSA4LjQxNnYxNS4wMzh6bTE2LjUxMS0zMi4yODVWMTQuODFsMTMuMjAxIDguNDE2djE1LjAzOHptNjIuOTk5IDMzLjk2VjI1LjQwM2wtOS41NjItMS44ODR2NDIuMTMxem0tOTkuNzg4IDBWMjUuNDAzbDkuNTYyLTEuODg0djQyLjEzMXoiLz4mI3hhOwk8cGF0aCBjbGFzcz0ic3QxIiBkPSJNNTMuMTg1IDQ3LjA5NGwxMy4yNTgtOC4yODcgMTMuMDE2IDguMjM0LTEzLjAxNiA4LjQ2OXptLTMzLjAyMSAwbDEzLjI1OC04LjI4NyAxMy4wMTYgOC4yMzQtMTMuMDE2IDguNDY5ek0zNi42NzUgMTQuODFsMTMuMjU4LTguMjg3IDEzLjAxNiA4LjIzNC0xMy4wMTYgOC40Njl6bTYzLjA1NiA0OC45NTZ2MTIuMjE3TDc3LjAxIDg5LjA1NVY3Ny43NTJ6bTAtMzguMzYzVjEzLjE4Nkw3Ny4wMS4xMTN2MTEuMzAzek0tLjA1OCA2My43NjZ2MTIuMjE3bDIyLjcyMSAxMy4wNzNWNzcuNzUyem0wLTM4LjM2M1YxMy4xODZMMjIuNjYzLjExM3YxMS4zMDN6Ii8+JiN4YTsJPHBhdGggY2xhc3M9InN0MiIgZD0iTTY2LjQ0NCA3MC41NDdWNTUuNTFsMTMuMDE2LTguNDY5djE1LjR6bS0zMy4wMjEgMFY1NS41MWwxMy4wMTYtOC40Njl2MTUuNHptMTYuNTExLTMyLjI4NVYyMy4yMjVsMTMuMDE2LTguNDY5djE1LjR6bTQ5Ljc5OCAyNS41MDNsLTkuNTYyIDUuODh2LTMuOTk2em0wLTM4LjM2M2wtOS41NjItNS44OHYzLjk5NnpNLS4wNTggNjMuNzY2bDkuNTYyIDUuODh2LTMuOTk2em0wLTM4LjM2M2w5LjU2Mi01Ljg4djMuOTk2eiIvPiYjeGE7PC9zdmc+;" vertex="1" parent="r7xqQwzz1_i2SjMvlClv-4">
          <mxGeometry x="12.432432432432433" y="490.99099099099095" width="39.27927927927928" height="35.35135135135135" as="geometry" />
        </mxCell>
        <mxCell id="r7xqQwzz1_i2SjMvlClv-8" value="" style="group" vertex="1" connectable="0" parent="r7xqQwzz1_i2SjMvlClv-4">
          <mxGeometry x="20.5" y="220" width="185" height="60" as="geometry" />
        </mxCell>
        <mxCell id="r7xqQwzz1_i2SjMvlClv-9" value="" style="strokeColor=#dddddd;shadow=1;strokeWidth=1;rounded=1;absoluteArcSize=1;arcSize=2;" vertex="1" parent="r7xqQwzz1_i2SjMvlClv-8">
          <mxGeometry width="185" height="60" as="geometry" />
        </mxCell>
        <mxCell id="r7xqQwzz1_i2SjMvlClv-10" value="" style="editableCssRules=.*;html=1;shape=image;verticalLabelPosition=bottom;labelBackgroundColor=none;verticalAlign=middle;aspect=fixed;imageAspect=0;image=data:image/svg+xml,PHN2ZyB4bWxucz0iaHR0cDovL3d3dy53My5vcmcvMjAwMC9zdmciIHhtbG5zOnY9Imh0dHBzOi8vdmVjdGEuaW8vbmFubyIgd2lkdGg9IjM2NS40NjQ5OTY3NzA0MjQ5MyIgaGVpZ2h0PSIzNzkuMjIyOTk0NDYzNTc3OTUiIHZpZXdCb3g9IjAgMCA5Ni42OTU5OTkxNDU1MDc4MSAxMDAuMzM1OTk4NTM1MTU2MjUiPiYjeGE7PHN0eWxlIHR5cGU9InRleHQvY3NzIj4mI3hhOwkuc3Qwe2ZpbGw6IzQyODVmNDt9JiN4YTsJLnN0MXtmaWxsOiNhZWNiZmE7fSYjeGE7PC9zdHlsZT4mI3hhOwk8cGF0aCBjbGFzcz0ic3QwIiBkPSJNMjkuNzk0IDEwMC4zMzZMNDYuOTIgNTAuMTY4aDQ5Ljc3NnpNMCA5OS42NzFsMTIuOTc2LTQ5LjUwMkgyOS4yMkwxNi44OTcgOTIuMDU0eiIvPiYjeGE7CTxwYXRoIGNsYXNzPSJzdDEiIGQ9Ik0yOS43OTQgMEw0Ni45MiA1MC4xNjhoNDkuNzc2ek0wIC42NjZsMTIuOTc2IDQ5LjUwMkgyOS4yMkwxNi44OTcgOC4yODN6Ii8+JiN4YTs8L3N2Zz4=;" vertex="1" parent="r7xqQwzz1_i2SjMvlClv-8">
          <mxGeometry x="15" y="15" width="30" height="30" as="geometry" />
        </mxCell>
        <mxCell id="r7xqQwzz1_i2SjMvlClv-11" value="&lt;font color=&quot;#000000&quot; style=&quot;forced-color-adjust: none; color: rgb(0, 0, 0); font-family: Helvetica; font-size: 12px; font-style: normal; font-variant-ligatures: normal; font-variant-caps: normal; font-weight: 400; letter-spacing: normal; orphans: 2; text-indent: 0px; text-transform: none; widows: 2; word-spacing: 0px; -webkit-text-stroke-width: 0px; white-space: nowrap; background-color: rgb(251, 251, 251); text-decoration-thickness: initial; text-decoration-style: initial; text-decoration-color: initial; text-align: left;&quot;&gt;Cloud Run: Frontend&lt;/font&gt;&lt;br style=&quot;forced-color-adjust: none; font-family: Helvetica; font-size: 12px; font-style: normal; font-variant-ligatures: normal; font-variant-caps: normal; font-weight: 400; letter-spacing: normal; orphans: 2; text-indent: 0px; text-transform: none; widows: 2; word-spacing: 0px; -webkit-text-stroke-width: 0px; white-space: nowrap; background-color: rgb(251, 251, 251); text-decoration-thickness: initial; text-decoration-style: initial; text-decoration-color: initial; color: rgb(153, 153, 153); text-align: left;&quot;&gt;&lt;span style=&quot;forced-color-adjust: none; font-family: Helvetica; font-size: 12px; font-style: normal; font-variant-ligatures: normal; font-variant-caps: normal; font-weight: 400; letter-spacing: normal; orphans: 2; text-indent: 0px; text-transform: none; widows: 2; word-spacing: 0px; -webkit-text-stroke-width: 0px; white-space: nowrap; background-color: rgb(251, 251, 251); text-decoration-thickness: initial; text-decoration-style: initial; text-decoration-color: initial; color: rgb(153, 153, 153); text-align: left; float: none; display: inline !important;&quot;&gt;Container&lt;/span&gt;" style="text;whiteSpace=wrap;html=1;" vertex="1" parent="r7xqQwzz1_i2SjMvlClv-8">
          <mxGeometry x="65" y="10" width="90" height="50" as="geometry" />
        </mxCell>
        <mxCell id="r7xqQwzz1_i2SjMvlClv-16" value="Architecture Diagram: Aerospacelab&amp;nbsp;&lt;span style=&quot;background-color: initial;&quot;&gt;Interactive Maps&lt;/span&gt;" style="fillColor=#4DA1F5;strokeColor=none;shadow=1;gradientColor=none;fontSize=14;align=left;spacingLeft=50;fontColor=#ffffff;html=1;" vertex="1" parent="1">
          <mxGeometry x="-140" y="20" width="650" height="40" as="geometry" />
        </mxCell>
        <mxCell id="r7xqQwzz1_i2SjMvlClv-17" style="edgeStyle=orthogonalEdgeStyle;rounded=0;orthogonalLoop=1;jettySize=auto;html=1;entryX=0;entryY=0.5;entryDx=0;entryDy=0;exitX=1;exitY=0.5;exitDx=0;exitDy=0;" edge="1" parent="1" source="r7xqQwzz1_i2SjMvlClv-52" target="r7xqQwzz1_i2SjMvlClv-9">
          <mxGeometry relative="1" as="geometry" />
        </mxCell>
        <mxCell id="r7xqQwzz1_i2SjMvlClv-18" value="" style="group" vertex="1" connectable="0" parent="1">
          <mxGeometry x="480" y="150" width="290" height="190" as="geometry" />
        </mxCell>
        <mxCell id="r7xqQwzz1_i2SjMvlClv-19" value="" style="strokeColor=#dddddd;shadow=1;strokeWidth=1;rounded=1;absoluteArcSize=1;arcSize=2;" vertex="1" parent="r7xqQwzz1_i2SjMvlClv-18">
          <mxGeometry width="290" height="190" as="geometry" />
        </mxCell>
        <mxCell id="r7xqQwzz1_i2SjMvlClv-20" value="" style="shape=image;verticalLabelPosition=bottom;labelBackgroundColor=default;verticalAlign=top;aspect=fixed;imageAspect=0;image=data:image/png,iVBORw0KGgoAAAANSUhEUgAABAAAAAFxCAYAAADtW9pAAAAACXBIWXMAAAjbAAAI2wHNrPlDAAAAGXRFWHRTb2Z0d2FyZQB3d3cuaW5rc2NhcGUub3Jnm+48GgAAIABJREFUeJzs3XmclXXd//HX5zoDM4ALCuK+565o7u1ZeVe26F1StmgoOjCDmhTLYMs0dylzRgwLmTOSGlaaSZp2q6n93DK91VxySU1Nc09AwQWYgXOuz++PGU0MheH6nrnOOdf7+XgQEsPn+2Y4MOf6fDdzd0RERERERESktkVpBxARERERERGR8lMDQERERERERCQD1AAQERERERERyQA1AEREREREREQyQA0AERERERERkQxQA0BEREREREQkA9QAEBEREREREckANQBEREREREREMkANABEREREREZEMUANAREREREREJAPUABARERERERHJADUARERERERERDJADQARERERERGRDFADQERERERERCQD1AAQERERERERyQA1AEREREREREQyQA0AERERERERkQxQA0BEREREREQkA9QAEBEREREREckANQBEREREREREMkANABEREREREZEMUANAREREREREJAPUABARERERERHJADUARERERERERDJADQARERERERGRDFADQERERERERCQD1AAQERERERERyQA1AEREREREREQyQA0AERERERERkQxQA0BEREREREQkA9QAEBEREREREckANQBEREREREREMkANABEREREREZEMUANAREREREREJAPUABARERERERHJADUARERERERERDJADQARERERERGRDFADQERERERERCQD1AAQERERERERyQA1AEREREREREQyQA0AERERERERkQxQA0BEREREREQkA9QAEBEREREREckANQBEREREREREMkANABEREREREZEMUANAREREREREJAPUABARERERERHJADUARERERERERDJADQARERERERGRDFADQERERERERCQD1AAQERERERERyQA1AEREREREREQyQA0AERERERERkQxQA0BEREREREQkA9QAEBEREREREckANQBEREREREREMkANABEREREREZEMUANAREREREREJAPUABARERERERHJADUARERERERERDJADQARERERERGRDFADQERERERERCQD1AAQERERERERyQA1AEREREREREQyQA0AERERERERkQxQA0BEREREREQkA9QAEBEREREREckANQBEREREREREMkANABEREREREZEMUANAREREREREJAPUABARERERERHJADUARERERERERDJADQARERERERGRDFADQERERERERCQD1AAQERERERERyQA1AEREREREREQyQA0AERERERERkQxQA0BEREREREQkA9QAEBEREREREckANQBEREREREREMkANABEREREREZEMUANAREREREREJAPUABARERERERHJADUARERERERERDJADQARERERERGRDFADQERERERERCQD1AAQERERERERyQA1AEREREREREQyQA0AERERERERkQxQA0BEREREREQkA9QAEBEREREREckANQBEREREREREMkANABEREREREZEMUANAREREREREJAPUABARERERERHJADUARERERERERDJADQARERERERGRDFADQERERERERCQD1AAQERERERERyQA1AEREREREREQyQA0AERERERERkQxQA0BEREREREQkA9QAEBEREREREckANQBEREREREREMkANABEREREREZEMUANAREREREREJAPUABARERERERHJADUARERERERERDJADQARERERERGRDFADQERERERERCQD1AAQERERERERyYC6tAOIhGRzztyW3Mod8WhbjG1w3xZjY9xH4ozAbOO+D60Hhvb99xLAMVbg/jLYS+AvY7xIbE8R8U/cnob4797Usjid35mIiIiIiEgy5u5pZxBZJ3bOGTvhfjDuBwB7AXsCG5Z3VH8GeBDjPtzuII5v94nTXyrvmCIiIiIiIsmpASBVw87t2IoVfBKLPwn2fmBU2pnAHXgU5yai3LW8bjf65MlL004lIiIiIiLydmoASEWzOfk9yNmRuB8B7JF2njXzHrBbwC8j13O5N7YuSjuRiIiIiIgIqAEgFcjmnrU5pe6xwFFgu6WdJ4Ei5jeC/ZKG7st9bGt32oFERERERCS71ACQimBgFPKfwjke49PU2gGVxss4F4LN9aapf087joiIiIiIZI8aAJIqmz27nrplY4DJwO5p5yk/d4huAD+bpmlXO+gvoIiIiIiIDAg1ACQVNrdtKKXBEyD6NrBJ2nlScjfwP9407Q9pBxERERERkdqnBoAMKGtrG8yohvHgU8A2SztPZfDbMX7gE1puSDuJiIiISAh2fsf6rIhHEOeGE5WGU7INiWw47sPf/B42BFuv9xf4YJxhvf/Nv/8bwG0F5m/csrQcrBt8OcZLOItwFhL5Ijy3CC+9QN3GT3lj48oB/i2LVAU1AGTA2JzTP04U/bjKD/YrI7ueqPRtHz/9obSTZI0V8t998w2IvDuP7/Pmll+nHUNE5O3s3NM3ZWXdpERFcsWfeOOpLwSKVLPs7I4tqIt3JWYbYDuM7cC2xtgEZyQwAhicYsQi8BTwOOb/wKPHsPivDI7u9uOmvpZirrKzrvb/xqODEhXxuNubW34QJpFUmto6aE0qks2ZsTNR9FOi3MfSzlLZ/OPE0Z1WaD+bpXU/9MmTl67510gQzomYb5p2jKpgdjGgBoCIVJ4VuVMwn5aoRqkuAqaGCVT9bP78HIue2gOKB2O2P84ewO7kGI4b2Nt+QeXMK9YBOwI74gY4uEGPx1bIPwzcifEXYrvJm6c+nG7UwGL7JObjE9UwWwL8IEgeqThqAEjZWFtbHaPqJxFF3wMa0s5TJQaDfYthxS9aZ/tEb265Lu1AIiKydmxeWwNLh+4O4BOn3JN2niyx2W0bUNfQlLySj7ezzjrdTzllSfJa1c268k04HcB6YJX0cJ9EBOwB7IFzLOZYIf8kcDVwFd2Db/JJk5anG1GkvNQAkLKwc/J7M6rh58CeaWepTrYtxpXW2X4hdXaKN057Je1EIiLSy9ra6ths8M7EtgfOXpjtDoyGhh2I4hxYFxDgYVTWWl19E7BhgEobUN/TDJweoFZ1c7YAsrA9bntgIjCRhhXLrJC/HPPzmNByo25rklqkBoAEZWAU8ieCnw5Wn3aeqmf2NUr+YZuTP9YnTvtT2nFERLKk92ta+/a47YHZnhh74b47oxp2I+7b3/z2JdAy4GxeWwM0fDNYQedkm9f2Yx/b2h2splSLocBXcfsqhfwT5nY+MT/3E6c+n3YwkVDUAJBg7Cenb8rg3C+AQ/SOKCTbmsivtUJ+Bgu6f+StrXHaiUREapV1nrY1VtcKjAZ2A1uv90ua5gIr1vL6Y4DNg9UzNqW74VigEKymVKMdMP8ROb5nXe3nEZfavfk7z6QdSiSpKO0AUhus0L4fg3O3AoeknaU2WQ74Lps2XGNdbaPSTiMiUrNs0JbAOOAAsrH8uarZ/Pk5sMnBCzuTe2uLUI9bM1b3mBXyZ9vsjq3SDiSShBoAkph15k8AuxnYJu0sNc/5KF5/qxVmjk47ioiISOoW/uNIYKcyVN6Bl54YU4a6Ur3qgYnU+aNWaJ+mBpFUKzUAZJ0ZmHV1fA9jDune9Zoxti2UbrJC/jNpJxEREUmV2ZSy1XZaVnPRncgQsHYWPXGXndOxf9phRPpLDQBZJzZr1hAK7b/B/XtpZ8mo9YD5vasvREREssfO6TgU2K+MQ+xNV/6/ylhfqts+xP5/1tXxPTWKpJqoASD9ZjNnDqNhxe/Ajkg7S8bVYcyxQv60tIOIiIgMuNhbyj6GM63sY0g1q8P9f+jsuNIK7RulHUZkbagBIP1iZ7UNZ1jxD8DH0s4ib5qiJoCIiGSJdbYfwMC8FznE5sw4aADGkWpmfhjYHdZ1+p5pRxFZEzUAZK1ZoX0j6uuvAzs47SzyH6ZYIX9G2iFEREQGhNnAzcxbpFUAsjZ2wnN/7mtOiVQsNQBkrdjMmcPALgPbJ+0s8o6+aV3tP0g7hIiISDlZoWMX4L8HbkCOsHNm7D5g40k12xCz63Q4oFSyurQDSOWzWbOGMKz0e+ADaWeRNXA71QrtS72pRasBRESkNrlPwgZ0Esvw6BSgcQDHrEWvgL0K/hrwau83e+XfP+3LwbpX/SW+DKwHPAe2AcRDIGoA3wAYBGwIbARs3ffjSjCc2K+xwsyPedPk+9MOI/J2agDIu7K2tohR9ReAfSjtLLLWfmRdHf/yCVN/mXaQjLkbfH7aIcovejjtBCKSXTZnxgii6OgBH9j5us2e8R0/afrCAR+72hXjUeX+vNn8+TkWProFNng7zLfDfXuM7YH9cHYHcuUcfzVGQPH3dt6sfX3cpJcHeGyRd6UGgLy7TYZ0gOu0/6pihsddNuf0533iqdennSYzjAd8Qks+7RgiIjUtisYDQ1MYeQh10XjgRymMXd3qRywp9xA+ZkwJeKbv2y1v/TnrbFuPqH5/PDoM/HBg53Ln6Rt5W1b0/NzgCAcfmDFF1kxnAMg7skL7BMxPTjuHrAsbRJT7tZ1zxk5pJxEREQnB5rcNBiamGKHZZs+uT3F8WQfe3Pq6T2i5yZumTvWmabtgpb1wP5vebQhlZp+nq/1b5R9HZO2pASCrZYWOg8Fmpp1DEhlOHP/OZrdtkHYQERGRxBY1fAnYIsUEm1O3/KgUx5cAfMKpD3pzy0l495Y4U4DF5R3QZtjcGbuWdQyRflADQP6DdZ6xGR5fDAxOO4sktjN19ecbWNpBREREEjol7QDgFZBBQvDm1te9edpM8B2BHwPFMg01iFLUUabaIv2mBoCswtraIiz+JWZpdtglKPs8ne1pLpkUERFJxObkPwzsl7DMcwGi7GOdHYcEqCMVwptaFnvTtG9jfiDGPWUa5nM2p+PjZaot0i9qAMiqRtVPAT6SdgwJzJhhhZmj044hIiKyTiImJaxQJOIzwOuJs5gnzSIVyCe03MuL3Qdh3lmWASI/UysypRKoASBvskL7fsD3084h5WD1ULrA5rU1pJ1ERESkP2zuGTsCn0tUxLnMx0+7D7ggQKTP6JDd2uStrUWf0DIR5xQgDlx+bwrtWgUgqdM1gAKAtbUNZlTDecCgtLOUw7BBg9h1+Iiq67q+sOw1nl+6NNTVMXvQXf9d4LuB6omIiJRfsXQyZsnucff4xwBE0U+I4yaSTYJFxPE3gRMTZZKK5c3TfmKdHSsxnxO2ctQI/L+wNUX6Rw0A6bXpkOm47552jHL55l77Rz844IPJ3jwMsIseeyg+6c9/LAUt6vYt62q/1Ce03Bu0roiISBnY3PyGmB2bsMqtPnH6HQA+fspjVshfC3w6YbSxVmj/nje1lPcEeUmNN0/ttEJ+RyDgNX5+uJ17+qZ+/Kkvhqsp0j/aAiDYnPweuE9JO0e51OdyTNjjvVXzWl/S080x119ZGnvDVaXXVqwIXb4Op2BtbWr+iYhI5SsxDlg/UQ3nx6v+2H+aqF6vYbidEKCOVLIF3dOAuwNWHMzK6JiA9UT6rWoeiqSMcvyEGr7y7yvv2S3abOiwqlj+f8NzT/k+888vXvz4w6H3nb2F7cumDXrTIiIiFc3mz8+RfJn9k2yy/RWr/D/NLdcCDyesC8bJNnduTW6dlF7e2lrE7WigO1xVOyxcLZH+UwMg4+ycjiNxPpx2jnI6aa/9K/513l0s8t07/1Q67Kr5xYB7/t+Z8wOb2zay7OOIiIisq4VP/jewfcIqs3zMmFW20zk4xuyEdQG2JF78xQB1pIJ589SHMQoBS77fZs4cFrCeSL9U/IORlI/NmjWEOJ6Rdo5y+tQ2O9heIzap6Nn/hxYv8g9e/qtix713xLGX/9m/z0YU6783UIOJiIj0m3FKwgqL8e6fr/Znou4LgJcT1ofYTk5cQypfHHUAywJVG8zQ4ocC1RLpN+0DzrKG7iaItk07RjmdMnr/ij34z93p/Nu98bTbbyqtKIU962+tGI12zhln+/gpjw384CL9Z3PbhlIcsi3OFlg8ksiG4z4coo3A1wPrXYprPhinDmwZHndj0XI87gZbTORPE/Ms5J7x5in/Svm3VDVsbn5D3Hai5JtjvjkWbY4zBPfhmBn4ULBueq/NegXiIm4vYv485s+DPceInud9TGvwg02kNllX+3vBPpCwylxvbn19dT/jja3LrJA/H5icbAh/nxXa9/OmlpD7xKXCePOUf1ln+/mYBbr5IfoEcE2YWiL9owZARtnMmcMYFgU81bTy7DVipB2yxTYVOfv/7NLX/Lgbry7d9NzTAzbl/58sRxxPB45LL4PIqgyMzvYdIRqN+a6Y7Yn7bsC20LAR5mB9H+l93/PGXyNf5TtwMHvL94Bb36+PsUJ+OXAvxl9w7gS/3ZtanhiQ32gFs8629aD+g2AfwdgXY3ecrXo/j9D7ue/7JBv8x+f/jZ9482P7PveLGmIr5P+F21MYT2P8DeIHiXL388KyJ721tYxnn0jVie1Ekn0FX0mRs9/1I8zn4DYJSDZZ0PtQmPCmAql4kV+MB2oAmO8dpI7IOlADIKuGFU8GG5V2jHL69t4HRWaV9/x/2ZOPxk03X1ta3BPwPJl15l+xuTM6vHH6I2knkez598M++2HRfuD7AftiNvzfD/Nl7ZENAd6P8/43Elmh40E8vpQo/q1POPXBcg5eSezsji2o40jcx2ANB/PW9wfh/ggiYAvMtwDe92YDpxTDqIbXrbPjAfD7gbupi2+p7n+X4q2s0P6JtFO8qdhzp5/U+mraMdaWzT1zJMZXEpb5jZ809dl3+wCf0PJPK+SvAL6QaCTnKJt75hRv/PaiRHWksr244v8Y1fACsHmAajsHqCGyTtQAyCCb2zYUGmp6z9oWw4bZkTvsUlFnXLyyoptT/nx96cLHHqqgWS7LUWQamrmQAWLnnr4pK6PPgX0K+BhmG/X+TIqLYVbhe/auOsi1WiF/H3gnS+su9MmTl6adLDQDo+uMz0B8CjkOwVM9F2g9zN8HvA+AUkTvagG/nsh+z8rua6rpARbss8Bn007xplz9gcBf0o6x1uLi8fQ26BLUiGat3QdGP4U4WQMAGvoytyesIxXMW1tjK+SvIcx7pq1s1qwhPmnS8gC1RPqloh6QZIAU68cCI9KOUU4n7bV/NDhXOdv/b3ruad/nkp8XK+vhv4/xJev88dZpx5DaZvPn56yQ/z0rc8+C/Qz4IrBR2rnWYG+wcxhWetYKHR1WaK/0vGvF2toi6+o4mkL+b3j8vzgfpzLfD2yG2ddwfkNdw0LrzF9nZ89MeiK8VDhra6vDaUpY5kafOOWetflAb5pyM/DXhOOB09R3baHUNLs/UKGIhtJOgWqJ9EslfsGXMur74nRS2jnKaf3Bgxm36+iKeG33lHqv9/vUVZcUn1v6eqVMcb6NDSJaGehQG5HV67uGa9Wl5dVjOPgUsMeskJ9obW3V+HsAwDrz72dUw+24/wLYLe08/TAY41B85WoPdJMasmn94cA2yYrYWf36cLd3Pytg7WzDS//4fIA6UtHicFvDvFTTB3FL5aqIhyQZQC8/cRhmO6Ydo5yO23V0NLy+Ie0YPLz4Jf/QwF/vt26ccbqTVgZAtd84MQI4m1ENd9mcGVW1f9Nmz663rvxZGH8GDkg7zzp6wk+avjDtEFJmnnSSwp5h5PZX9euXLIsuBpJvMQl1QJxUrmIU7mwSY/1gtUT6QQ2ArIn9+LQjlFPOjIl77pvq69rdOe+R++P3XfbL4l8XLazwJ/83bcCw+Mi0Q0jNezztAIHsTRTdZV35L6UdZG3YnBk7U7fsdpxvQsJz1dN1Z9oBpLysMHM02EeSFeFnfSuO1lrvGR92UaJxex1ic/J7BKgjlaonWhyslhoAkhI1ADLEzu3YCvivtHOU0xd22Dnabv0NU3uD++LypX7ENZcVm26+trSsuDKtGOsoHpd2AqlxZrXSAABYH+c3Vsh/N+0g78YKZ3yEKPo/YJ+0syRnd6SdQMrMSkln0FcSFc9dp18Z288Sjg1gREwMUEcq1eTJy4B+NZjema8Xpo5I/6gBkCUr4mPBavqAmm+O3j+11/Tvnnw03ueSnxf/8PQT1TLr/zZ2sJ0zY/e0U0gt82rfArA6P7TOju+kHWJ1elcoxNcCG6edJQh3rQCoYXberI1xvpasCFd446kvrMsv7Ts08O5E4/c62ubmNwxQRyqQ915Z81qYapEaAJIKNQCyxKiK5arr6kObb20HjtpiwGf/X13Rw8Q/XVf68nVXlF7qrvLbXOLoy2lHkBpWWysA/s38R9bZPintGG9l58w4DOdXQH3aWQJZSc/ge9MOIWW0omccMDRRDfdzEv16I8QqgPUoMjZAHalcYd5rxnFNT8pJ5VIDICPsnPzeYLuknaOcJu19wIC/nu948Xk/6NILij97+L7Ku95v3agBIOVjNbkCoJfZGVbIfzrtGAA2Z8ZBxNF8YFDaWYIxHtB92bWr94Yia05Y5lGaWq5PVGFl96+BpQlzgNFs1X3ehry7MDP3FmolgUj/qAGQFTE1fcDbThsOt8O22WHAXs/FOOZHd99W+ugVFxX/8eorVbrkf7V2sK7296YdQmqTN057BajVU9xzwEVW6Ei10WpnnTWcyH5D0pnUSuNo/38tW/Tk54DtEtUwn9u3PHud+UmtrwIXJ8rRa2c62z8ZoI5UGJs1awi9/94HKGa61lRSoQZAZnhN3017yt4HRpENTLP970te8g9e/svi/9x1a1yq9Ov91kn02bQTSE2r3VUAMBz8F9bWlt7X1vqeAljt3S2t/f+1zT3p7H83JZ8XIgpxHGIbABhNQepIZakvhjvfwbUCQNJRl3YAKb/e0/9tt7RzlMvGDUP46nt2K/sbbnfn/L8/EE++7YbS0pXVdsJ/P7h/Cvhh2jGkZj0OvD9QreXAYqD7LT/upnf2ux7YEBhOqNmatXMgoxqagDkDOCYAdk7HocBRAzDUK8DfgL9jvAr++qpvZKONAHDfBPOReLQJ5psD27CuEw85NQBqlc2ZsTNR9ImEZS7xidNfCpHHJ06/wwrt94ONTlbJPmOzO7byk6Y+GyKXVIiouCMe6i2nVgBIOtQAyIIV/ula3ok2cc/3RsMGDS7rGAuWL/MJf7q2dOU/H6/FKf+328+62kb5hNYFaQeRmrS2KwCKwD+AB4GHcZ4mFz+H+9PUsZDl6y/xk07qWVMRm982mAWDt6OO9xBH7wM+ChxEeffHn2bnnv5bP/7UF8s4xiqsrS1iVEO+TOWXAtfi/r9Qut6bv/PMuhSx2bPrqevZBY93xvx9wAeA/Vjze5FX+deKR9ZlTKkCUTSepPvlo7grTJg+Fv0M99kJq+TIxccDPwiQSCpFnNsVC/RWMPaXwxQS6R81ALLA/NBaPYumPpejcfd9yjr7//t/Ph5PuPna0qLuZeUcppJE0PAxwuyDFFmV8fhqdunGwCPgfwH7C2Z/YeWQ+9bmAX9NfEzrCuDRvm9XA1jnGZuBj8MYD7510jFWY0NW1k0CWspQe/U2rf9vnNDnd/wDfCbd9ReEOICv78/z/r5vvwWwmTOHsZ4fgseHAZ9mdfvAjb94a2u1HbS6EHg67RBvynnyg+3KwGbNGkJD4hPz7/Px0/8vRJ43eXwhWAcwJFGdyMbZ/Pk/9DFjAt0bL6kzwp3zYtGjwWqJ9IMaANlwcNoByuXonfeINh0yrCzdjWXFlXz/zltKP33g7mp745mc837UAJByMHuc3rMzFmBcgfM7it239h2+NSC8ecq/gNNsftsZvNQwDue7wBaBR5lgs9tOH7DfV2zjw/V57RmM6YzY/uJyP7j45MlLgSv7vmGdHbsRxYeBfRVn394Pqsbl/3apN03VHvA1aVh5FLBxsiIedvYf8KaWxVbIzweOSVaIrVj05GeA3wcJJhXAPxyo0Ct9X4tEBpwaADXOOtvfg9lmaecoBwNOHr1/WWb//7LgBR97w5Wlx15ZkoUl///J+UDaEaRG2fKHYOiHGbndbWnPivWtDihYof1i4CdgRwcsvyGD6k8AzgxYc7Ws0L4DZh8PVG0+9Yzz46amcjiVN099GHgYONMKM0dD6dtgt6aRRQaCT0hY4DXqowuDRHk752dYwgZAb6FG1ACoCTZ7xibURQcEKvf3QHVE+k0NgFoXRe+jJk+qh8O23dF2HT4i6Ox/MY456/674ta/3FJaGWdv4v9Nxh42N79h37VtIsF4Y+sy4Ja0c7yVN7UsBo6xQv4vwFmEuiHH7WsMQAMAt89hQTL/nKap45JepRaKN02+H/hG2jmkPKzQvh/YgQmrXFiuZpU3T/uzFfIPA0kPUf6UzTlzW5/47adC5JIU5aJPE+wGNVcDQFKjawBrnu+XdoJyOWX0/kFP9n7qtVf80Ct/Uzz1jpuz/fDfK6IU75N2CJGB5E3TZuMcS7gH4Pfa3DN2DFTrnZknPUEdjHsY2T2hUh7+JQss+RaJiPMCBHln5iHq54iKxweoI2kzawxXLLonXC2R/lEDoNY5e6UdoRz23WSUfWSLbYLN/l/02EPxe+fPK976wrN68/sGt5p87Yi8G2+e9gvgtGAFS6Ujg9VaDWtri8CS70n16Ft9WyJEys7OOms48JWEVR708VPvChLoHdX9Egjx9+I4a2vTqtsqZoWOg8HDbY90rg1WS6Sf1ACofXumHaAcJu19UJDX7qLu5X7ktb8rjb3hqtLrK/Xed1VWk68dkTUaucMPgu07Nzs0SJ13MnK9rYENkhWxB71pys1B8oisjcE93wCGJqph8bwgWd6FT5i8APjfAKW2YNP6zwWoI2lxvhew2tN9552IpEINgBpm53dsAWyUdo7Qthy2nn1h+50Sv3b/+MyTvv9v5xV//8/HM7/ef7WMPdKOIJIGHzOmRGTHEmLmzznY5s4dlDzVO6gr7Rygyh8C1BBZK9Z7hm/Sw/+K1MW/CpFnLYTZZuB416/yAAAgAElEQVQ2PkgdGXDWlT8K88PCFdTsv6RLy5FqWbfvEO5aqMrxzdEHRIOidd/+v7y4ku/deUtp9gN3x1rv/662TztAVXE+Z4V8mZejDqAcX/DGaZVzj/kA8/FTHrNC/jwg6T7lYcRL3guU5yo79x0S1zAeCJBEZO10tR+C2a4Jq/zBjz/1xSB51mTkDtex6MlnwLdOWOlQO3vm9n7i5CeD5JIBYeeevime+2nYqq6mq6RKDYBaZmyXdoTQ1h88mGN33XOdZ//vXvgvH3vDlaW/L1msZ/81G2Wdbet5c+vraQepEiP6vtWGlXFD2hFSF9fliYrjSb5a7kDK1wDYgKSdXiu9FCaMyNoIcPif27zkOdZyqDFjStbZPg+zpEvAI3LFE4BTQ+SS8rO5bUMpNVwBbBKw7EusHHZ1wHoi/aYtALVtu7QDhHbCbntHGw7u/3NJyWNm/vXO+CNXXFTUw38/5AZvk3YEkbT0Xdv1x+SV4qTXiL0LWy9xiTinyQAZEHZ2xxY4hycss4hNll8ZJNDaiut+DgTYLmjHlnVLkARjbW11FBt+BRwUuPQv/aSTegLXFOkXfdGvZeab47WzB6Auijhxr/3WqWnVUypx5I672JE77jKgr/mSx3Tce0f880ceqM5zBkq2FfBQ2jFEUuM2H/NPJqxRzgbAkOQ398WbBYkisiY5Px5I9gDsftFA31jhJ05+0gr5G4CkV25uRnHJ4cBvA8SSMrHzO9ZnVMNvgE8HLl2kFHo7gUj/qQFQyzzokqXUjdlhl2irYeuvU0djaN0gtlt/wwHthjzz+qt+/E3Xlv70/DPVvOKgdpa0i6yLOv8jpcRVku53fhe+PHkNUwNAys7a2iJGNYxLXMhzFwSI03/GeXjiBgDgjagBULGs0L4D2KXAPmUof4nOgJBKoC0ANc1q6uHtpHWc/U/DZU8+Gu//2wuKVf7wD2oASMZ547SnMZ5NWGbTsi37dZYGqPLeADVE3t2mDYcCCbeV+f0+cco9QfL0V0P35cDLiesYH7ezZ+qQ3QpjbW2RdXWcDHY/5Xn4X475d8pQV6TfquaBStbJxmkHCOWjW25j+4/avOL3Myzp6eYb119ZOuq6K0qLe7rTjpOcWc28hkTWmfO3hBUiViwpz4qsiFcCVPmYzW1Ldie7yJq4BZj9Z17yIOs49NjWbtxDXD0YkSsdH6COBGBg1pn/HKMabsf9J8Cwsgzk3uETWv5Zltoi/aQGQC1zr5k3dKeMPqDiX6s3PPeU7zP//OKvH3+4Ovf7r1btvIZEEkjaAIC6eNMAOf6T2RMBqmxAPOS4AHVEVsvmnjkSPOnhfyuJ6i4MEmhdWd15gSqNtbY2bcNNkZ3fsb4VOo6lkL8H4/fAAeUbzZ+irqejfPVF+qfiH6okAWNw2hFC2GX4Rvaprbev2Ndqd7HId+/8U+mwq+YXn1+6tNqX/K/KrCZeQyKJmCdvAMRlOpPF48fC1PHTrat9uyC1RN6uVPo6JHxPYlztEyYvCBNo3XjT5Ptx7gpQagtGNnwmQB3pB+tsW8/m5A+3Qvs8evwF8PMpz3L/t3Iib/bG1mVlHkdkran7WNOsJq6ambT3gVFklbn6/+HFL/kx1/9v6b6XFtbWg/+bvD7tBCKpK0VPESX8K+42JEyYt3mx52lGNSwBhiestD7OPJs791BvbFwZIprIWwRY/m/zkscIwPw8sP0T14k4AbgieSB5JzZnxgjMDiCKDsD9o1jDB3snxwb0PeVpPn761QM5oMiaqAFQ26q+ATBqyDC+8p7dKm72393p/Nu9ccvtN5V6SsmPCK9YXhurSEQSsfjVxG8YzRvChFmVt7bGVsjfBByRvJp9hNLii23u3KPUBJBQbM6Mg4iiPROWWUhu+FVBAiWVs19T4kwg6Ra5T1nnaVt783eeCREra+z8jvVZyoZENooo3hRnE4xtgO0wtsPZgSjqPWzR05qjsWtYsLw1pcFF3pEaALWt6t/ANe+xTzSkrrL6GM8tfc2Pu/EPpRufe6pGZ/3fwhjQu5ZFKpL7KyRehWTlW03j9kfMAzQAAPgCpcUX26xZX/dJkwJcMSiZl4vGkfyr5cWV0pTyxmmvWCF/GfD1hKVyRIOOA9oCxKps8eLbrZBf11fBRn3fD6e3E7sBkAP6nmL6yr71n+jKeHf2GIMHfc1bp9bQuVBSK9QAqGm+coCXOQXVkKvj+N33qajZ/8uefDRu/tN1pZe7s/K+2HrSTiCSOqt7FRK+hzMv32qaUmk+ddGZQKhVBl+gYcUDdk5Hk4+f+sdANSWDbObMYQzjqMSF3H8ZIE5AfgFY0gYAOONs/vwf+ZgxNbyUEHD2TTvCgHIeIbaP+7hJya+NFCmDinq4ksC8umdvv7HLntGoIUMrooPx6ooejrvx6tJR112RoYd/wL2qX0MiQZSWJT+8yct3kImfNH0h+PzAZXck9uuskL9Qd5bLOhsWfwlYP1EN5xFvbvlLmECBLOi5AXg6eSHfmpcf/2TyOlI57EEGlz7qJ059Pu0kIu9EDYBaZla1J44acOJe+1bE6/P2F5/zAy+9oPirR/+WwWVc1fsaEskUizuAcswifpVc6e9WyJ+rRoCsg+SH/2G/Sl4jLG9tjbFAqxLi6IQgdaQS3EEud4gff+qLaQcReTfaAlDbFqUdYF19drv32C7DR6Q6+78yLpG/947SaXffFpdSO0AmdS+lHaBqGPN8wrRj046RNQbG7BkjyeVGgo/AbCQeD8H6Zh3dhmC+vO+DXyK2FzF/niE9z/vY1u40s4fkE0590Aod54E3lqH8IGAcudIx1tl+CRad7U1Tby/DOFJDbO6MXSH6QMIyThRfGCRQaJa7AI9PJfley8/a2R1baMa4qjnwE0Z2T/MxrVo5KRVPDYBa5rxcrUcATBq9fy7N8R9Z8pJ/4/orS/cuWpDZJ38A3Ku2iSS1xebOHUT88p7E0b6Y7wn+HrAdge2pixr+feqTs8qBffbm//R+yBs/Xt6AFfIvgz+LRX/D4/vA7sf8YSa0POWVcoxUfxRL3yUXHY6xaZlGGITZ18C/ZoX83WBz6B50sQ4LlNUq5Y5L/NfIuMUntPwzSJ7AfPyUx6zQcRt40iZHHTkfC5weIJYMvCVgx3rT1MvTDiKyttQAqGWRL8KrrwOw/6jN7IObb51KcHdnzt/uiU+9/U+l7lIxjQiVZnHaASSbbNasIQxd+UFiPg5+CLAP2GDsjQeKIP9EbAy2Me6jwb4CgBsU8q8bPIzzABF3Ujf0ocSHAA4AP2n6Qus643g8/j3lPwF2P/DzaVgxy7ryl0B8gU+YfmuZx5QqYXPnDsL9mMSvwpiKW/6/qngeWNIGAMDx1tbW7q2tlf8Pjfybcwl1TPHGqQHOgxAZOGoA1DK3F9KOsC6+tfeBqez9X7B8mTfefE3p6qf+UX0zf2UT6X5iGTA2a9YQ6ns+j/FVGuy/iIOdat9f6wEHYByAc1w1PPy/wSdMudIKHR3g0wZoyA1xToDoBCvkHwUuoGTztJw54+KXP4tZ0pUo3ayoD324ZVjFnkuoa/gJMDRhpe3ZbMjHAd26UR3uhmiSN0+5Je0gIuuiIg5ZkzIxezLtCP21zfrr2xHb7TTgr8vL//lYvPcl5xf18P82yyJ1taXsrLNjN+vKz6VhxYuYXQz2ecJdaZc9TVOng/0mhZF3Bk4j509ZIf87K+Q/bW1tep+RRW7JD/8zrvRTTlkSIE3Z+Emtr+L+uyDFYnQYYMXz+zE7hgXdB3qTHv6lemkFQC2L/alqOwPgm3sdENVFA/d+8bUVPbTcfnPpZw/fVz1TfAPFeNEnT16adgypXdaZfz/GqRiH4dX2r1XlcnDLDT+a0hLAv5xChDrgCOAIRtU/ZV0d51HkPK0KyAabe/rmkEt+tZ1bmFP2y82YB3wteSH/vM2ZMcInTtfhu5XFgWvAf+xNLf8v7TAiIagBUMvq6v9BqSftFGttg8H1HLPLHgP29H/ngud97A1XlR5/ZYlm/VfHvepWkEh1sLn5bSiRx/gy5d+rnkne2LjS5s//GoueWARMTC+JbYv7/5Dj+9aVv5xSPNMnTr8jvTxSdqXo6yR/f7mIkcuvCRGn7Bb03MCoIc+Ab52wUj1R9FVgdohYktijwCXk4gu9cfojaYcRCUlL82qYN57yAlV0jdv43feONhxc/lW/xTjmR3ffVvrI5RcV9fD/buzBtBNIbTEw62r/NiUeAY5CD/9l5WPGlLxp2omYjwPSvvKwDudIouh2K+RvsULHEdoeUKtsbPISfkm1XKfmra0xFv8iUDldJZuuh4DTidjHm6bt4k3TvqeHf6lFWgFQ+x4EPpJ2iDUZFEU077lv2d8MPrrkZR9741Wluxb8Sw/+a+KuBoAEY3NP35xi7gLMDk07S9b4hJbzrTDzLij9Atg77TzAB8E/yKiGx6zQ/mOG9Mzzsa1pNygkAJsz4yCiaPfEhTyqjuX/b7DcBXh8Ksmbmu+1zjP28eYpfw0RS96VAw9jfhPYzcTRn7x5yr/SDiUyENQAqHXGA3jlNwC+/J7doi2HrV/W2cCLHnsonnjLdaWlK1eWc5jaYf5A2hGkNljnGftguT9gbJZ2lqzypsn32/y2A1lYfypm06iMQxZ3AiuwvOH71tl+BnU953hj67K0Q0kCUW5s73NVIo/RNLWqton4+CmPWaHjNvAAVwKWjgW+mbyOvMUrwN9wHsB4AKIHGVz3gI+b9HLawUTSoAZArXPuSTvC2vjm6P3LNvu/sHuZj7/52tKV/3xcs/5rLyYX3Z92CKl+VjjjQ1j8v8CGaWfJur4l1T+wQvsvMPsxzuFpZ+qzOWY/Jm74lnW2T6W55WIP8BQpA8vmtTVAw1EBSv2qKv/83S/ASN4AMPuazZ491U86qXoOcUrPEmAxxmJgMc5C4HnMnqLkT0H0DHHxGT9p+sKUc4pUFDUAap7fVunbbD+x1Xa294hRZQl53TNPeuPN1xSfX/p6OcrXLucBb5z2StoxpLr1nfJ/LTAk7Szyb97U8gRwhBU6Dgb/IfCJtDMB4GyF2UV05SeY+7F9OaVadDccAQwPUOnrVsh/PkCdgWXB/p0bQW7554DfBqqXvjg+mMiK614geh3i3uWbg+KlrIxW0NSypCobRSIVQA2AGudNLU9YV/4FnM3TzvJOThm9fy50zeXFlXzvzltKP33gbl3vty4ibk07glQ3O3vm9uT4HXr4r1jeNPV24NDeLRreBP41YFjauXA+DHafFdoneVPLuWnHkbXkjA1UaadAdarZsdRSA2DQiHu8sVH7L0UqhE7gzYKY29OO8E523WhjO3Sr7YLO/t+14AU/4NILinr4T+S2tANI9bLOtvXIla4ERqWdRdbMm6f81ZumjifHlsDJwMNpZwLWA/uZdea7bO7cQWmHkXdnszu2olJWktQC80/a2R1bpB1DRGqTVgBkgfkfwf477Rir8+29D4rMwjz/F+OYs+6/K279yy2llbGe/ROIofumtENINaufASQ/CXztLKD3tpMnged6f2zP4b4I8+XE1k3kywHI5YxS6Y0lyhsR+WA82hr3bcG2BbYDdgFGDFD2itK37We2wdl0dnyUyJv7zglI7wHcGE9p8U7W2Xa4N7dqL1elqvNjgOCr+TIs1/c5bU87iIjUHjUAssDq/4BX3nW6o4YM48s77hpkFcrTr7/qY2+4qvTnF57VfrDE/C6f0Log7RRSnWxO/sNE1lzGIVYA1+J2BXF0g584+cnQA9jc0zfH6/bEfT+cI4ADqfTDVAJycJqn3gjcaGd3bEEdJ+B+ArBlSpE+BkOus7POOsxPOWVJShnkHVjv341vpJ2j5jjHGuS1z11EQlMDIAN8wqTnrJB/iIGbkVsrJ+61b66hLvlL8KLHHopPvOWPpddXVl6Toyo516YdQaqTtbVFjGroohzby4xncf8pcK43tSwOXv8tvPHUF4AXgD8C7TYnvwcRD5ZzzErlJ059HmiztrbT2LT+cNxOBD464EHM30d9z+9s7tz/0l7iCtM14/0Q7Zx2jBq0M10z3s+E6TqTR0SCUgMgO66gghoAQ+sGccJueyd6SFjUvdybbr4mvuKfj2u9f1C5/007gVSpUUM+D75b4KqLcH7EyO5C3zV2Ay/ufoaoIZWhK4W3thaBS4FLrev0PfG6ieBHM7CHBn6U0pKfAk0DOKasiefGapK6TDw6FnQor4iEpUMAsyJXWafJjt1lz2hEw7ofDn79s//0/X87r6iH/+Ae9eYpf007hFQrnxK2nl3DoNKe3jztJ6k9/Mt/8AmnPuhNU5vIsSXu3wJ7ZiBHt0JH9V0RV6NsbttQ8C+lnaOGfclmzkz/Zg4RqSlqAGSEN057ALwSTnYmMuPk0fuv02uvu1hk8m03lA67an7x+aU6D6oMLkk7gFQnK8wcDbw/WEH3n7Jg+Wf8+FNfDFZTgvLGaa94c8sscsN3xP1YnEcGaOROm922wcCMJe8qHvJFQH8W5bM+w+Ij0w4hIrVFDYBMsflpJwA4fLv3RDtsMLzfB2r97eVF/oHLf1n86QN3x1psWCZeGa8RqUalcLOybmd6c8s3vbVVK3yqgDc2rvTmlnks7N4Dty+C31/mIbckVz+5zGPI2nAfm3aE2hcfm3YCEaktagBkiQ3+OXgp7RiT9j6gX6+72J05D94TH3TZL4oPvLRIz/7lYvyfN0+tiFUiUpU+G6jO5SxcPjVQLRlA3toae/PUy1jQ817cjy3r1gCzk+2ss4av+QPXQVwK8XWm5s9YsjlnbksaB0Jmjn3YCu07pJ1CRGqHGgAZ4hMmPYdZqie8HzBqczt40y3Xevb/mddf9U9eeUlx0q3Xl1aUUu9d1LaY89KOINXJCu0bAQckLuS8SK7uBM38V7feRkDLPLoH7YIxHVhehmE2ZHDP8WWoC9Qlv2XABvRwxHRY6evofeRAMCw6Ou0QIlI79A935kTnpjn6lPcetNavucuefDTe/7cXFG9+/mnN+pffKyzLXZp2CKlWuT0J8fXE/Pve+O1FyfNIJfBJk5b7hGntRNHeGH8KPoB5eR6KPA5wzaAPTV6jwpkfk3aEzHA/2qDfWydFRFZHDYCseXHZ1cDjaQy9/QYb2Oe23XGNr7lXVnQz9oarSkddd0VpcU/3QEQT41yfPHlp2jGkSlkc4orRV1lad2GAOlJhfPyUx3ix+5DeGwMohqtso63r9D3D1esTWfKMXtsrAOycGe8Ddk47R4bsSOGMD6YdQkRqQ83vUZNVeWtrbIX2n4L9dKDHPmX0gVHO3v35/8bnnvLjbry69NzS1zXrP2B8JXXRnLRTSBVz9khexK5VE6p29W3rmGVd+YdwLgcawlSu+xjwYJhab4hXJp5sdavpBgBx7hgI8mX6KrBlIQpVJHPD+SJBZu/9GOCW5HVEJOvUAMiiXM8vKDV8Hxg5UENuVN/A0Tvv8Y5P/93FIj+657bSzL/eGceuZ/+BZb/x46c+m3YKqWa2WeKHAfc7w2SRSuYTpl1rc/JHEfE7QjwUxf4BIHBDO/c6JDyGwmp3C4DNnl1PnX85QKknaZr2OQ/USahUVsjfSpArUn2MzZp1sk+aVI4zNUQkQ7QFIIO8sXUZ+E8GcswJe+wTrTdo8Gp/7uHFL/mHr/hVsePeO/TwP+C8BJZPO4VUvfUTVzB0A0VG+MRpVwCzghQzDgxS562GLlsSoEryvxOVqm7p54GNEtcxv6jWH/4BMPt1oEobUt9zRKBaIpJhagBk1dK6szFeHIihBudyNO2x73+81rzver8DL72g+NdFC2v/TUBFsgu9aerf004hVS9AAyAO8dAl1aLefoAH+Rq0lc2dOyhAnTf52NZuIOkBNFvU8KFtYQ7/M78oSJ1KV1ecD4S5xsgiHbwoIompAZBRPnnyUjw+cyDG+up7dos2GzpslTdCzy19zT911fzipFuvL/Xoer+U+EoG5U5LO4XUAk++39mi1wMEkSrhx019DeOcAKXqWPHqVgHqvF3ShlQD554+KkiSCmJdM0eBfSpAqXt9/PSHAtSpeH78qS8C1weqdqjNPX3zMLVEJKvUAMiyISu6cH+y3MOctNf+q7zOLnvy0Xi/315QvPG5pzTrnyazc/z4yWX/85dMWJG4glt9gBxSTaL4N0Hq1K3cIkidVVjy6yhLtkOAIJXF468S4vwo84zd+GEXByqUo5j7WqBaIpJRagBkmI9t7caiaeUc45PbbG97jdjEAF5d0cPEP11XOuq6K0ovd+sMm1QZL1OKNfsvoQQ4vT9eL3kNqSZ9M8ALEheKy3LifvKDUT3aJ0COCuPfCFAkphiF2hdfHXJ+Gcm3lfQyC/FnICIZpgZAxnnT1MuB/1eu+qfstX8O4I4Xn/cDL72g+LOH70t4tLIE4f59nzj9pbRjSK3w5A0Aj7YOEESqjfFI8hpR+BP3zZ8JUOW9AWpUDCvMHA0kb2oYN/qJU59Pnqh6eOO0V3D+EKjanjbnjH3D1BKRLFIDQMDt2+A9ocvuNWKkfXiLre1Hd99W+ugVFxWfePUVLfmvBO53MXLH89KOITXEoteS14h3CpBEqo2TfKm9x+G3j3iIFQB8JECSyuFxmAPo3DK2/L+PebhVD7lAfxYikklqAAjePPVhnI7QdQ/bZkf70OW/Kv7PXbfGJV3vVymKkGv2MWN08qKE4/E/k9ew9yUPIlXHKSauEeUCbEH5D08EqLGznT1z+wB1UmdtbXWYh9h73t23HD57uuuvBJI3SwGcr4S+/UJEskMNAOm1sCcP/C1kyZl/vTO+Z+ECPflXEvOZ3jzlr2nHkBpjPB6gysE2c2Y59nJLZUt+n7wHeqh6K/MwXw+j0pggddK22eD/AjZLXMe40hunvZI8UPXxSZOWg18eqNwoSks+HaiWiGSMGgACgLe2rsD8OEKc5t1Hs/4V5yGW189IO4TUoJKFaAAMZWjpiwHqSDUxdklcwwn/QNnQ8zAh7m43xhnYmj+wwsU5Lf8PwgIefujaBiAi60QNAHmTT2i5F/fWtHNIWXST4+jeGQiRwBoGPwgkP+Az4pvW1qavSxlhne3vAbZJWMZp8H+EyLNK0bGt3UCIujtT6Dg8QJ3U2FlnDQcP8XtYzMjlVweoU71yG/0/CHDuRa/P2nmzNg5US0QyRG+0ZFULe2YBN6QdQ0Lzqd447YG0U0ht8nGTXgbuT16Ifdl0iO64zoqIsQGqPO/HTQ2/BaDXrYHq/NDa2uoC1Rp49d1fAhqSF7L5PqY12CrDauSNjSuB+YHK1dOz8qhAtUQkQ9QAkFV4a2uMdR8D/lzaWSQQ90u8qaUr7RhS44wbg9Rxn22F9h2C1JKKZV2nbYnbiYkLOQ8FiPMOtf3aQIX2ZJP674aplYYozFLz2DO+/L9PzMXBapm2AYhI/6kBIP/BJ7QuwKIvl+NqQBlwD7KsbnzaISQDnD8GqrQh2DXWedrWgerVPJs9u94K+auts32szc1vmHaeNbF5bQ1QdxGQPGtUxhVr9fV/JMQ5AABm37HOji8EqdXfodva6vq2W/T/13a2vwf8/QFiPM2i7j8HqFP9FnX/GeyZQNUOskJH8nM0RCRT1ACQ1fIJU+8EJqWdQxIwXiYXjfHJk8txRZbIqhZ0/xF4PlC1nbBBt1rhjA8Fqlfbotf3AT6N2c8p8S/rys+3rvb/ttmz69OO9nZ21lnDWd5wOc6Hw1QMNUu/msrjJr2MBdsGUIf5xdbVflygemtk55yxk3XmZzCq4WnMfr5uRexoghxiaL/21tbk54TUgL7PQ7hVADoMUET6SQ0AeUfe1HIuxqy0c8g6WQH+VW+cEvxwLJHV8dbWIjAvYMWtIb7RuvJzreu0LcPVrUFRdOBbftSAcyRul1G37F9WyJ9rXe0fq4TDFa0z/znqe+4FPhmmoj/FhJbyXmvqdn7AaoNwO8+6Oi6y2R1bBaz7Jps1a4h1dRxthfabiOO/Y7QAmwMH9Lch1Hd7wdFBgpW0/H8VUcjPhx1dCX+/RaR6VO+hNDIwJkxrodC+OZgOmqka7lg03idM02GOMsD8PLCphPvaksM5Aeq+YV0dl4JfQEP3zX0ntMu/HfgO//9wYBxu4xjV8LwV8pcSxdfw2qCbB2plkM2cOYz1Sl/H7USMPcNWj85xKO99s7nl8yk1/IQQ2xXe4P4V6jjcCvlf48xjkx3+z8eMWeetBtY1cxRe+gTuh9Fgn8EZvppJ+3pyyw4A1n4ZfuGMDwPbr2uuf/P7/cQWHUL7Fj5+2n1WaL8fbHSAalszcsghwPXJa4lIFqgBIO/Kwa27fjwNKzYHPpJ2HlkbPt0nTNVsiww4b2p5wgod54M3Bi49GPevAF9hecNSK7Rfj9nVxH4PdfaoN04Leg+8tbVFbDxkCwb5HsTsTd2Qfcv9nJnQQWvxMVsAJxFHJzGs1GOF/G1gd+HxQ+SiB7HlD3lj67KkQazQvhGx7UXERzE+zDDehzO0DJ+/Hiw6L3TRt/PG1mXW2X4BZicHLj0UGIcxjkVPLLZC/nac+3r3hseLiexlsMV4XCL2OiJbH2wQ2CjMNwc2w9kV2IveP1uwNazUj/gg/WkAeHxMiMX/uOnr0eq4/RLjjCC1Ij8GNQBEZC2pASBr5JMmLbe5bYdTargS+GDaeeRdmP3QJ0z/cdoxJMNKtJHj6/Q+4JTDMLDP43weMyiBFfIvAI+ALQBeAX8d8+U4b7kezjYAy735Q/fhWN8Tk7kRMxJjU4xtGNWwKfggnL6J1Mp9+O+7B7y/B7zVA4eAH4IZxA40YIX8S8CL4AvBngN7Hec1jGLvobDe1yCw9XofRn0DjDrcN8dsW5xtwTZ4c3NhWT9tdpZPmLygnCO8qS5up5Q7nvK9pjcCPo3xad540Tm8+d/RW5/CE6x5cP/A2n7o/2/v3mP9rus7jr8+v0Npi8wFrUxRJ+JcnEAMiZcAAAz4SURBVGKiThPHVLYYweG8spoZNTNe6jkHamCjPQWSnVSn4wCLJJXCTvyDZU7/cHPihXndnGxzRuNQcWZzzqIBFNuuyqWn5ZzfZ3+ciqgtvX17vqe/z+ORnNCkh8/n3dPT9vye5/v5fsvs5pNSVv3BEe70YMNk/gMdrDN6huX9GatXJBk76Pse3Pll6+YL6uT0PR2sBYw4AYBDUtdN31eu2fyqrFz1ySTP7Hse9qPk3XV84zv6HoO21Qs33lGum3lnkncu4baPWXx70Cujur9vXT7o5x/8wv6BF/pZzq/19+/+vc9JJzdpS5I8cvHtQR+Mn1n5516IPvCfstQftzuzcuk+v+q6y+4s1125JalTS7XnsVHOKkk5pIQwXP3KpD786PesN9fJy7u64/1IqRduvKNsnfnHlLyog+UelrL6/CR/1cFawIhz0xAOWb1oelf2zJ2bki/0PQu/4Ko6PnWcf3HKyFhzxkwO51JjjkI50Pn/UVWTMlnfuPHug79rl4YzSe5c2j0794hcO/PUQ3rP2tGd5V3+/9AG5a+7W8zTAIBDIwBwWOpF07tyz9h5ST7T9yw84O11YuryvoeAn6hr1y6k1Ncn2dX3LCOv1kM5/z9CytV1YuOHl3rXOrHp/5K8Zan37dzYwY/x7Xvqxgs72G1PSv3bDtYZXcPdf5+kqxty/k6ZnfnVjtYCRpgAwGGrl1xyb1bPvSrVP+z9qven1nV1YurP+p4Efl4d37QtGbwsye6+Zxlxz+l7gCVTy025a/dlvW0/MfXxpLy3r/07cSj3Aahjr0sX59JrbtoXTjiAxTP79UMdLTfIfOnmsY3ASBMAOCL1DdNzmdz02pTizHkfSu5Ozfl1ctMNfY8CB1InNtycMnh1kvm+ZxlF5borzkhyat9zLI3yiZy0+/w6Pd3v59Lq3euTenOvMxyVcgg38h28rpOtOn3W/QireV9na5X6R6W7e4IAI0oA4IjVpNbxje9IresW7xDNkqj121nIC+rkpk/0PQocTB3f8LEMhi9PssRnthtQm/nu//syv/oV9Q3Tc30PUt8wPZcTV74iyX/2PcsReuK+S/z3q/zllc9O6pkd7LMrq/Z8vIN1Rt+jnvTZJHd0tNqTc92VjR0LAg6XAMBRq5Obbkgde36SbX3PMvJKbkrJWfWCqW/0PQocqvrWS2/KQn47/o7o1qCM+hf6e1PK+jox9fq6fv2yicz1TRfvTJk/J8ktfc9yRIZjB74KYNjVzf/yoeUQbI4Hde3ahSTv73BFNwMEHpIAQCfq5IZbMjZ3VpJP9T3LiJpPzZ9mfOqVzlRyPKoXTn09Y3lGkuuSDPueZyTUkX4CwJdS6nPr+Mb39D3I/tTxy29PnXt+Uj/W9yyHrZT93gegfHDziUle08keLv8/TGMdPg0gf1i2bFnZ4XrAiBEA6ExdN709E1MvTepkkvv6nmd01NtShi+qk1NXHNLzm2GZquumflQnpiZT8/wkX+x7nuNf/XFGL6ZsT3Jh7pp7bh3f9B99D/NQ6uT0PVnzpFek5NIkx8t3uxcO+DPbV5+XZE0He9yeH+z5XAfrNKNOXPK1JF/taLlTMrb7pR2tBYwgAYBO1aTWiU3vTVl4Xmpn/5g1qtaU3JC7B8+q45f+a9/TQFfq5NS/1Ymp56bkxUnxuX2E6sTUeanzpyd1U1K/1vc8R+n7KfWS3Dt2ep2YurZOTx8XYaOuXbtQx6euSMozUvL5vud5CLen1ndkLGfUiam37fc9ameXjn/gePn9W1ZK7e4qgOIYAHBgJ/Q9AKOpjl92a9m8+bdy6qqJJG9P8rC+Zzqu1Pqd1MGF9YKNn+57FDhW6vjUJ5N8smy96hkpwzcmeW2SR/Q8Vhe+m1puTcnXF1+Yj92aEx7+zWOxUZ28/HtJZpLMLD4VoLwkye8nOTvJcr8MeCEpn04d3pCT9tx4PJ8ZrxMb/yvJ2eX6mXOTXJaaF/Q9U5L/SfLh1NyYR53xhX1nzferzP7FmpS8pJNd68Dl/0difvCBjNWZdPEIxuTF5fqrT63jl9zVwVrAiBEAOGb2Pa5pS5m96qYsLFyTlHP7nmn5q3uSck32rHxXvfhiz09fKqV8NMkvH9Uaw3ypm2HaUyc33JLkbWXLlg0Zu/fslPJ7Sc5L8us9j3Ygd6dkW2q2JfveatmWMrwte1Z9u1500a4+hqoTm/43yZYkW8rWzScnq89J6ktS8rtJntjHTPtxT0o+m1o/kbLw0Tp++e19D9Sln0atmbNSsjbJy5KcsUTbzyfli0m9KcPceFg3i10Y/kZSbjzqCWrdue/PM4epXrjxjnLdzExSntzNivNPTXJ0AaDkG6nlg0c9yimnuCJkKZX6lWRwdL9vpd7b0TQsQ6VWR4pZGuXad70wg7Grkzyt71mWqY9nxdgf1zdf8p2+B4HloLznytMylmcn9TlJfjOLQeAJOTbx+t4sfrH8g6RuT8oPU/ODpN6VwWB7hsMfZqzcmRNO/F5908U7j8H+x1TZ+s7Hp5xwdpKzkjwlix/LAz4OriN7k3wrqV9JGXw5w/rlPGruy3Xt9N5jvO+yUq6deVpKOTslz0ypz0rNmUlO7GDpO5LcmpJbksHNGd73uTo5fU8H6wIwwgQAllSZnV2RhZ1vSs2mlHJa3/MsE/+SDKfrxKU39z0ILHdldnZF6o9Oz0J9XAb1V5KyJsPhmpTBqpThL6UOfi4O1PuS8pNHyP0ope5KsiMLZUdK2ZEThjuTue113XRzNy4tWzefnMHKJ6cOHp/kkclwTVJOXfxxOTmpJ+Wnxwgenp+9NHnf00jqXJIdqYPtKdmR5Pspw9uysOLb2X7P95wF/0VldnZF7r/7tIztfVwyeGxqOS2ppyRlZepwdcpg1QPvXIdzKYPdKdmdOrwztdyZUu/IsG6rF1y6o8dfBgDHKQGAXpQbNq/K7lVvSeqGpDy673n6Uf89ydvrxKbP9D0JAAAw+gQAelU2bz4xp656dZI/SRtHA4ZJ/iHDhffUCy77bN/DAAAA7RAAWBZKUnL9zDkZ5s0p9bykrOh7po5tT/I3GQxm61s3fKvvYQAAgPYIACw7ZetVj05ZeH1SXpPkzL7nOXL1/iSfSfK+zD/sI3X9+j0H+z8AAACOFQGAZa3M/vlTMl/WpuTlSZ6elNL3TAcxl9R/Ts3fZc+ej9SLp4+7u4UDAACjSQDguFFmr3lMFvaek9RzUvK81Dym75myeKb/myn5pwzrp3LCns+3eDdxAABg+RMAOG6V9179xMwPz9r3jPAzU/P0JKcc213rbUm5NaV+NbV8MXvmvlAvmt51bPcEAAA4egIAI6Vc/+7Hps79WurgCRmUJ2Q4PD2lPCKpj8zis61PyeKzrFckOTmpNSmLL+BL5lKzMyU7UuvOpHw/Nd/NWNmWZFv27v7vun76x7394gAAAI6CAAAAAAANGPQ9AAAAAHDsCQAAAADQAAEAAAAAGiAAAAAAQAMEAAAAAGiAAAAAAAANEAAAAACgAQIAAAAANEAAAAAAgAYIAAAAANAAAQAAAAAaIAAAAABAAwQAAAAAaIAAAAAAAA0QAAAAAKABAgAAAAA0QAAAAACABggAAAAA0AABAAAAABogAAAAAEADBAAAAABogAAAAAAADRAAAAAAoAECAAAAADRAAAAAAIAGCAAAAADQAAEAAAAAGiAAAAAAQAMEAAAAAGiAAAAAAAANEAAAAACgAQIAAAAANEAAAAAAgAYIAAAAANAAAQAAAAAaIAAAAABAAwQAAAAAaIAAAAAAAA0QAAAAAKABAgAAAAA0QAAAAACABggAAAAA0AABAAAAABogAAAAAEADBAAAAABogAAAAAAADRAAAAAAoAECAAAAADRAAAAAAIAGCAAAAADQAAEAAAAAGiAAAAAAQAMEAAAAAGiAAAAAAAANEAAAAACgAQIAAAAANEAAAAAAgAYIAAAAANAAAQAAAAAaIAAAAABAAwQAAAAAaIAAAAAAAA0QAAAAAKABAgAAAAA0QAAAAACABggAAAAA0AABAAAAABogAAAAAEADBAAAAABogAAAAAAADRAAAAAAoAECAAAAADRAAAAAAIAGCAAAAADQAAEAAAAAGiAAAAAAQAMEAAAAAGiAAAAAAAANEAAAAACgAQIAAAAANEAAAAAAgAYIAAAAANAAAQAAAAAaIAAAAABAAwQAAAAAaIAAAAAAAA0QAAAAAKABAgAAAAA0QAAAAACABggAAAAA0AABAAAAABogAAAAAEADBAAAAABogAAAAAAADRAAAAAAoAECAAAAADRAAAAAAIAGCAAAAADQAAEAAAAAGiAAAAAAQAMEAAAAAGiAAAAAAAANEAAAAACgAQIAAAAANEAAAAAAgAYIAAAAANAAAQAAAAAaIAAAAABAAwQAAAAAaIAAAAAAAA0QAAAAAKAB/w/iRyfuW9D9FwAAAABJRU5ErkJggg==;imageBackground=none;imageBorder=none;" vertex="1" parent="r7xqQwzz1_i2SjMvlClv-18">
          <mxGeometry x="16.45945945945946" y="2.849999999999928" width="164" height="59.1" as="geometry" />
        </mxCell>
        <mxCell id="r7xqQwzz1_i2SjMvlClv-21" value="" style="group" vertex="1" connectable="0" parent="1">
          <mxGeometry x="540" y="388.5" width="185" height="60" as="geometry" />
        </mxCell>
        <mxCell id="r7xqQwzz1_i2SjMvlClv-22" value="" style="strokeColor=#dddddd;shadow=1;strokeWidth=1;rounded=1;absoluteArcSize=1;arcSize=2;" vertex="1" parent="r7xqQwzz1_i2SjMvlClv-21">
          <mxGeometry width="185" height="60" as="geometry" />
        </mxCell>
        <mxCell id="r7xqQwzz1_i2SjMvlClv-23" value="" style="shape=image;verticalLabelPosition=bottom;labelBackgroundColor=default;verticalAlign=top;aspect=fixed;imageAspect=0;image=data:image/png,iVBORw0KGgoAAAANSUhEUgAAAgAAAACACAYAAAB9V9ELAAAACXBIWXMAAAsTAAALEwEAmpwYAAAAAXNSR0IArs4c6QAAAARnQU1BAACxjwv8YQUAABknSURBVHgB7d1dcttWsgfwBkjndTQruFTFvq+RVxBqBbFXYGoFUh6nElmwdVN5tL0CyyuwZgXirMDK61gpYVYwfo8J3NPAoU1TpEgA3ecD/P+q6HFNZImiKKBPnz7dCUHtNtujIp1QmfxIVB5QQntUmsdcQp/MH7n579fmv/+THp5eEgAAQKQSAnPzPz+mosy+ueFvklBO6YND2v9HTgAAAJHZ7QCAV/2zwXuzoh9TWwOTNdj/9R0BAABEZHcDgNtsZFL+V2bVP6KuyuSQHp1OCQAAIBK7GQDU+/0fRG7+rNoOKB7TfvaJAAAAIpDSLirSM7GbP+PPNRu8JQAAgEjsXgbg5vyJuWO/Jw3YCgAAgEjsXgYgKV+RlrREFgAAAKKwWwHAzcuJaOp/GX/ujy9PCAAAIHC7swUgWfV/v080KPZREAgAACHbnQzATLjwb709mg31thkAAAAE7EYGgFf/s/SWXEJBIAAABGw3MgA+jugldEYAAACB6n8AwIV/XVr9tma+JgoCAQAgUP0PAHyuxPlrc9dBAACAwPQ7APjz3FXh3zp79DnFVgAAAASnv0WAPgr/1kFBIAAABKa/GYBZQCtvFAQCAEBg+hkA3P52YP6cUDBQEAgAAGHp5xbAny9vPe/9rxJuh8Db30df/r7/j5wAAKD3htQ32v3+25sXBP5MvvHJhNlgbP52TEl5QLO/vp5UuHlp/kim5v+/Nh/zjv73l2sCAIDe6VcGwF2///aKwWOvN9Xb82Mqysy8RtsdT0ySayrLN/Tw+QUBAEBv9CsDUKTHQd/8WVrwnIBDcq0KjgbvaVYeNPp3ZfXxb+nm/36kweAFtggAAPqhPxmAkI79bXbkdEXNRZHF7GrrVf86CeWUPjhEEAAAEL/+nAII6djfJi47BFYrf4GbP+PsSvHXFbobAgDErx8BQNXvP6RjfxvwjfRz4uZYYF0TIXfDrp47uhsCAMSuHwGAZqOdhHSO7SXJ2TfH7zRotUJO6IQ+no8JAACiFX8AoNnvn/e8S8Vje7PPemOKOfVPpV6WAd0NAQCiFncAUN/kJqSlpBd1sV4yJRXcIVBpJc01EZKp/zvQ3RAAIGZxBwD1TW5EGnj1P6/UH8yOSEtavhUvqqsCIwc1ERh3DAAQrXgDAO2bHB93m9vPzFZA+YI0aBQE8nl/N/acFTMCAICoeAMArm5Xk17cOes+LF8rFgQeixUEVq2QGzb76cJFMSMAAIiLMwDQ7PfPN3nueLesHuKjkwXglbRUQaCP4jzNYsaeK2X81zyuzGNCATLPa2SfnwTFwB9gt8QXAPCes+ZNrijfrO109/3z10EXBGqeiLiXYjEjbIPrMMbm8dbcIG/5hkth4S2pMQFAUOILAIrBsWrh36Oz7N6PKdWyAN0KArkmoiwz8kWjmBHaGJnHlQkCQvpZuNuSAoCtxRUAaN/ktrm5Pzqdmg98Qxq6FAT6boXssrshbDIyD/RpAIB7xRUAqN7kTGp/2wE9AxOEhFQQyMN+QmiFXD13ZAECcVK6LAYFgOjEEwBo9/sfDLc/669fEPiq0b8oZq6O/W1invuw2XMHTfhZAMBa8YwD/vPlrV6BW3pBD39t3uxH8zmVyWG93bBBHRiFVYW/7XOH6hQA6XqaJMkleST8PU7N93NIABGyWblj6u4P83vwmjoaUgxuz49pplTZXM24H7RbzRfJESVKx5K4qM7kGu79mGrUL3Hlf1jqUxpTghC8MhcdvmnqbFkBQBO8RTqh7qbm0TkACH8LoLrJKQ614cK/dcf+NqlWuUrHAjmzsKnXfjF45ufY3ybl2GYmwL+ReaA4EwDuCD8AcNXvvy2eE6BWEHhPr33fx/42e4WCwGAcB9gbAAA8CzsA0O73XybdR/3ynIBC6VjgfUV1vo/9bYY5AeHgQAzdGgHgG2EHAKpDbbjw71SmOKqeE5CTimJyp8vezfkTCuHY3yaSMw6gq7HJAowJAMAKNwDQHmozaFn4twofC5TIJqyz3Po4KWM53rWHOQFBeRtYh0AA8CjcAECz3z+P9m1b+LdOlU3QnBNgCwI1ByGpwJyAgIwIBYEAYIUZAGgOteFUPafsNQxS3SwAd/xLImzxWh9phDCgIBAAKuEFAC76/ded/OTt/3KtNieA0+nc8U9t9a+VvaDtjjSCK7wFgA6BABBgAKBZ3S5x7G8TzTkBqschTw9Vg4D7jjSCa09QEAgAYQUA9V7xhLSkD/RbiOrOCdAxn4JYqj7vPfoc/NHFXYIsAMCOCysAUN0rTi/EC//W+f75a9XVtKjk8ktWRHPUcfWl6AQFgcE4MFkAbMsA7LBwAgDN6nZOyUse+9tGGUkWYDD8tnBRcwuDxVjE2F9nOBYIsLvCCAC48E/zxsCd+lyt/ud4NV2U7yhoK7Ii6lsYPCegamQE/vHNHwEZwI4KIwDQ7vf/6CwjHx6YFKvmaroLfl3WZUV4CyNJrkkLNzJCQWAoTlAQCLCb/AcA6v3+PabieTVdKO6pd7FpCmJBej0NONjDnICQIAsAsIP8BwCzgWI18kKBmy+cfVCbE9DSNschNUcdV88BcwICMkZBIMDu8RsAVDPjS7394OUCN1+K5IhCsu3z0Rx1jDkBoUFBIIC+nyggfgMA1Ypwh8f+NtFeTTdiXpfq+WxBd9QxYU5AUFAQCKDItuCeUECG5EvV71+pJzmnuNOBv73/VXg1XaQfzP6331VW0+OQPDehSJ6pFWmmVUOaxwQh4ILAd4lmAWggbLZj699F85rkFICmz3uuzfMXmBnxyXxdp0XQbV+fFbZ67g2+3jOqB3FJXf/3JGZ6JOQDF/7p3gyPvO/9r/LxRWZ+E/2tsngKYpsTEdWxvfI9aSnpZ3r0XGdAU+DML3FJYZmaC59ox0zh71Hk+dmTD1fUTM5f3zxeuA4I7MWet8zG1M6hec7TJv/AfE3+nTymbnJy8JqZ58pbyfxcx9RdTvXrlW/6QPN1J1T/XKLkZwugPvanc/N30e+/LV5N+yoI7HIcUnXUMWFOQFjG9mIKd42oTuHemtfIWSBvb/4crIzJrYyo8/VqRPVr9kGr0NT+LHiBMiYZzgM8X9wHADzSVvXYXxJG4d8qfCzQ1/PrehxSc9Qx5gSE5hUKAjfKHJ6c4Jv/iByzKXCpAuZqCqX0a2Y+H6/6M5JzYb7vC9oR7gMAHmmrJr2oV6sB015Nr8J7ul2zIrqjjus5Af+ugkPwb0T1fiXcT/3khN2qGJEndttA8vf+rBSq/bKfJyM5OcU2yK0jtwGAZr9/Ngis8G8d3dX0XenwKUnQnhOQFphQF47jUqtItz/45j8hXSFsx2REYluX/JpJ7Zm/JRLdSt6Z1P+cuwBAu98/F7iFcuxvE+3V9DcEj0O6mBOAY4GhkLxQ99kPpMv7VozwVgDr3HjKpv7HJGenUv9z7gKAIj1W7fc/LOOqItdeTbP7+v23pT3qmEdCoyAwFGPMCQAW0laAQupfeWETLjcBAK/+S8U9xaqvfeb0vGln6qtp4n7+OlMQNecrYE5AF7l5XJMsZAFgLiPZrYC2W35I/QtxEwDMFCu8Qz72t0la6BUsVsf+lM7W150NFZ875gR0IF1fMjIrroxg5ylsBTxpeuRUIfXPfSXiyh4L0g8Aqn7/ioUy6QPRpiVOzQZ6qyvtKYiD2c+6cwJmOBbYgk3VTknWMY4FAlPYCni77XtLIfXPwprT4ph+ALAr/f6bqgchjUkFH4dUzoqozwkoJigIbE36otYlXQv9k5HsVsC29wik/oXpBgBVv3+1wr9P0Rz7W0UzMHL1umh3NkwwnKYNe1GTfg9MUBAITGEr4GTTe0sh9Z+b7yOjHacXAHDhH1V9knXw6jPW1b9mYEQOXxcuZFQddczHAl+iILAd3teU3qJBQAYVl1sBSqn/eLeOBekFAHW//xFp6NLX3jfNwKg69ved24IW7VHHmBPQil2lSWcBOp/fhl7JSG4rYETrA0yk/pXoBADVTU6z33/EZzY1A6PqOKSHrAiPOtazh2OB7djq5inJUm9/C3FwsRWA1L+uIWko0qZjNhtILunh6QXFiAOjmVJgxKv/7z0dh+SCwJsXJh2YdB0duhqPUL79Pd6CT784WB6TnHnRVrhDt8AZ3gowN2neCpD63eetgMccXESS+p82/JwHJFNQy/0+Ov8OygcA6v3+h/FeeIrBe16m63xuzb34LXBnwyJ5pjbmefaZ04DYt2vIXqDfmb8+Izm8UnuDNCpYmXn8RDJDi0b0NcAMPvVvP1++7ceb3xsS8snWYXQiuwXAe7U49rdaFRiVStPuzOtS7cV7hDkBIeMtFOmCQHQIhIrSVgC/v8YkB6n/FWQDgGKg2+8fx/5WC+V1wZyAINkLtHTPBswJgC8UTgVMSBayhyvIBQBVv3/FlqG+CtwkaB77C20KIuYEBMmufnKSheZAsCgj+feYBGxXrSEXAKDf/2r1sT+dm1aIUxB5K6Ko9px1VHMCkAVoSbpO5ADHAmFOYStAQk7yhYS9IRMA3JzzQIcJafFd4NZFfexP54YV6hTEB+amoDonYIiVZws2TXtJsnAsEL5Q2Aro6sgGJrCCTACQlIoX5AAK3NrS7IcQclak6hCIOQGB4upqyQsi3/yRBYBFGYWxFXAhUSnfZ90DgNvzY91jfxEX/mn2Qwh9CiJ3asScgODYvVDp4OzYntkGCGUrICeKuGGcI90CAF7hFop7gKEVuDWh2g8hkuOQ2nMC6lHT0BzXjeQkp8lEN9gBAWwFoN3vFroFANr9/kMrcGtiF479baI9J4Cr0FEQ2JjSCg3TAmFZRn62Ajj1f0GwUfsAwEW//xAL3LaxS8f+NsGcgCDZFdqUZCELAF942grICan/rbUPAKq2tkpiP/an1Q8hximIPCeAgxYt1bHA30cEbUi31ebmQE8IwPKwFYDUfwPtAgDVtrYUfoHbfTT7IcQ6BZG3clSPBX5GW9oWzIWSB4pIX5xf4VggLMnIzVYAUv8NtQsA0O9/NdVjf+ZiHWtWhLdySs3pcZgT0EFGsscCR4RjgbDA0VZATkj9N9Y8ANDc346937/qsb/hU4pZFbwozwmAxuzFWfp37hhZAFjkYCsAqf8WmgUA2v3+uYUsjv2tEHFWZJH2nICPL7HybMFcOPm0zTXJwbFAWCUjna0ApP5bahYAaPf7j63AbU5zDHLsWZFF1bFAxQ6B/DPAscC2pLdoTtAcCBbZbJP0+0x5DHm/bR8A1HusE9ISa4Eb0xyDHHNWZJVBmakWBH5OsfJsQWlOALZlYJlG23j0+m9p+wBAdY/VpLhx7O+umLMi69S9HRSPBdIJCgJbk54TMEZzIJgz7wUOzkckC9tNHWwXAKjub1Pc/f5x7K+575+/xpyA8CjNCcDkRiC7HZSRjhMEmu1sDgB4hat6QTV7wjEX/qltiySX0WZFtqE+J+AcDWnakZ4ToNcvBGKid0KqhkCzhc0BgHa//8F3cfb71w6MBkPFc/MB0J4TwCOqURDYmFKhFuwwszo/JlLMINcOSs0Taj11fwDgpN9/pKt/zcCoL8f+NuE5AVoFgfyzwZyAVkwQwMWAUwLoSDn1v+ys1OxQ20P3BwCzgV5aJeZ+/9wMSa3jX4+O/W3CcwIKzWOBmBPQAY5WgQS+h7jMxOHkSQPrA4Bqf1txsIfqHrAi3lvWTDXFnBVpo54TkJMOzAloKYB57lD7G0XKrMYn5n9c1+JgK6CB9QGAdr//ag84Mre/HZi9Zb0bSsxZkbaqOQEJ5gSEKSOcsfZNavXs9OdoU/++TuNgK2BLqwMAzX7/LMYUN9/8i9mVeV300lmqN8KAPTy91J0TgArhNpTmBIQiJxl/pzi4DuQ0zvw3gd/5LdwNAKrCv1KveIpnw8eW4r49P6bZ7IPqzb9qhnQq3YktHqpzAsxqAHMCWlGYExAKqRtiFCl6l4NybOp/Qn5xEyr8zm9wNwCoq9t1bnSxdbbjY2R/vnxFs1L/qOKuFP6tgzkBIetdZspmNySCgBHpGlF3OTniOfW/7CzAeRQ5yRC5ln0bALg49hcLLoIs0lvznPWjyBizIhowJyBItiBwSv0jkdnQDipH1F1O7vhO/S/in01fi4BHJODbAEBznn2SXAdf4Fav+E/M45b4jVOS/oqRsyLD7y4I3MwJ+PdvKA5qh0/t9K0g8A/qbk+r4Eywva3E97lRIKn/ZaFtBUj9Du1JZDe+BgDa/f7T4VMKEd8Q+KZ/c35lV/yvVF+HZbt27G+Tak5AorfnnBYoDmpBaU6Ab1LvM62jblKfd0rKzM0o5KE8wWwF2K0nKRPqKKn+5NQ/r/41W/7yWFvf0uRv5o89qt6sVdQ+Iq+48O9XnX4InM2ItRNekv6g2oOiTA5DOYZqLkwlycnNBWaflNiL/Afy+3szNd/jIQmw389/qbtP5jmJnwYwz48zkSPq7u/CN547zHPlwFrqepNTXXfynuSIvW+6Evy58s90v8vPdlj9WQyekWaExIFFkviPDqtLbUFB4KAoVSz8KwbHlJSR7nlL3hNX4NHWt9lju+UAW+ILTcn1Kj3ZV7Xfz9T8dUzdcDo2M58vIyGCo3OnDm7+IyLRWqkX3I7avtekrmHVVoA91eIbZ55G1N0869K6SDdVnWcP62mm/vEzvR/mBLRmLqAX1K+CwH+SjDOpPXvzeZ6RXP98F5lXydqxC/seIxtQSW4HhrIVIFmTcWKDxVZSk/rXS7XCahzZahZEzlDtvlE1JwDHAlvq05HVC5Jz1bXgzE7OuyA5U1IkmKlgOd19b3HtmFjhHIWRvZqSrIy3FWwRZiNJVfxGYtWmsAkXuH1/+pi08Op/lt4SbCF56rv5Ukw1AIvM0+ZU6jG5J76Xa74XXsGOSc6U6jT2dNt/YLMH/HpKLsh4Na02c8WupiWvNUfz1f/S1+GgSrJ492efWwG29oRfN60FyJTqoGlj4DQ0IcCe9pYrWNW+v/JpiGLwnvAD3U6S/GT+9BoARCwzD05V9yGLwqvOMckZU73nzBfgKdUr2//Q3QvyyDz+x378iORpp/9VUv/L+GZtXkv+XR2TDN4KuHTZHXGRrT3hrY0x6Rhv+4FDwtAEN6qb/4ND1SN/1VFO/Dy3VhZjglbsRYyPBUa/3cQrdaFiwGUcHPnaYp02yUA05SD1v4wzGXwCRSLgnG8F+DwVwL87Y/IsJdDH3e3SwVP18/5J/Bdjx0YErdkirZz6oU91DUw79Z+RnBebVuP2v0v+jHw3CJpSAI21EABoq2/+ZuX/i15zG8YDi0rc0MA5tRuNS3a13JdGRxfK6W3J8/lrU//L7L79lOR4OxVgj2Z6f78hANDk7ObPjZww+aoF9AHoqGdzAjKKP6ORk2I2w55SkNpmzKn5c5VsSe37VAAHNF6vQRwA5ATy6j3/x+o3f1ZPcBwRNJTo/2x2g+RF2Ru7Kos9o3Gktfr3kfpf1qetAPt+87r1lJJyl6idxEf9tAv+5rQnOPZZWUo1gdlpfZoTYDMasdYDNDp62ALXGEmd+tg69b+sZ1sB0t9LIymVxb8IBJVvKJ0dOhvwg6Y/7Q0f4AigHO/pTCm2uNH/7JJm3ki2Il4mPOkvp+5BVp+2Arxl0EwAkOIiKKGaY8+NZc5OnPWYvznnI0YTghbSC0xhlGPTma17kgeI08KxbBHxkT+1NLZdHUsuNBqn/pf1bCsgp7rjoXNpPRVNNW20A5JLSot9513lkhKjbdsaDGJN8warT3MCbEDD58RDXyC9czDlTvLMf+vU/zKbPpf8+fjcCpiSh/qT+hTAYHZUr2ChGfND49GyD0+fOp8sVzX9QeFfKzyLAat/Lb0JrDgIMA9emYX6PfFKekKKAkz9L+vNVoANjDiYc3YvSb787fa3AypmV+amIlXk0WMcrZXvVAf63IeH2BTpBwQALfDN/9FZRoGIdRbAfcy3dEF1m2ANXua62179fHMYkX851dX+U1JkV8Pc7ndEMo6kVv+LzPPkrVDJ3gRPeRwxeaLwuq/1tQ8AH1dLi8fV8TVY48uK/9DbzZ8VAzT9aYozXKXZow7o5t9jvJfaq4wi32xtcMUr2Jz8mB8be6x987eCTP0vszdryVMob+3AHi+4JmDhvab7tVb+vx9fZOZZoLq8wjf94l80LF87T/Ovgml/LZif4WB4FGLaXzgDcG0uHHqTJhtQmOA25yUDsMiu0MYke4O8z7xr3OvE0bFtm/GQGvaTUx20qD13e8PmWQEjknFpt3+8Wui9wMOQxIOSZO1/4RvNX0lGaaKVygtVTkk6NcvsP0xG5CKIm/6im5echpwQbIGDNxNFV4WuYRIOAFTHvzalFAR4DwAWlfXwrYl5/ECyw134usNHES8drfa/EL6Z5uZxmDiYvKeQOve6FbBoIeh8RoLvs2TjR1RtZtMnJvX9EyXmzR5/jUBe/cnRaMl/L/5D/OYszWMwmwZ3w1+E1f/96qOYeZWx4eOtAd/45wQDgCnVF6yg3r8LK5gfSebCHFQAsMjeOA/sY0R1ULBnH6MV/+TTwuOa6pHBOdXfY06e2El/GXXjPGsxZwNPvlEeUDf8vPcD/J2av8/G9PU9NqIWv1//D92b4thMDv52AAAAAElFTkSuQmCC;" vertex="1" parent="r7xqQwzz1_i2SjMvlClv-21">
          <mxGeometry x="12.5" y="9.5" width="160" height="40" as="geometry" />
        </mxCell>
        <mxCell id="r7xqQwzz1_i2SjMvlClv-24" value="&lt;b&gt;MongDB &lt;/b&gt;Atlas Cluster: &lt;b&gt;InteractiveMaps&lt;/b&gt;" style="fillColor=#f5f5f5;strokeColor=#666666;shadow=0;fontSize=14;align=left;spacing=10;fontColor=#333333;9E9E9E;verticalAlign=top;spacingTop=-4;fontStyle=0;spacingLeft=40;html=1;" vertex="1" parent="1">
          <mxGeometry x="810" y="130" width="630" height="760" as="geometry" />
        </mxCell>
        <mxCell id="r7xqQwzz1_i2SjMvlClv-25" value="FastAPI" style="group;align=center;" vertex="1" connectable="0" parent="1">
          <mxGeometry x="960" y="230" width="185" height="140" as="geometry" />
        </mxCell>
        <mxCell id="r7xqQwzz1_i2SjMvlClv-26" value="InteractiveMaps:&#xa;    Satellites&#xa;    Locations&#xa;&#xa;    &#xa;" style="strokeColor=#dddddd;shadow=1;strokeWidth=1;rounded=1;absoluteArcSize=1;arcSize=2;align=left;verticalAlign=top;" vertex="1" parent="r7xqQwzz1_i2SjMvlClv-25">
          <mxGeometry width="185" height="140" as="geometry" />
        </mxCell>
        <mxCell id="r7xqQwzz1_i2SjMvlClv-27" value="" style="group" vertex="1" connectable="0" parent="1">
          <mxGeometry x="860" y="229.99818181818182" width="90" height="150.86181818181825" as="geometry" />
        </mxCell>
        <mxCell id="r7xqQwzz1_i2SjMvlClv-28" value="&lt;span style=&quot;text-wrap-mode: nowrap;&quot;&gt;FastAPI&lt;/span&gt;&lt;div&gt;&lt;span style=&quot;color: rgb(153, 153, 153); text-wrap-mode: nowrap;&quot;&gt;Collection&lt;/span&gt;&lt;/div&gt;" style="text;whiteSpace=wrap;html=1;verticalAlign=middle;align=center;" vertex="1" parent="r7xqQwzz1_i2SjMvlClv-27">
          <mxGeometry y="78.1345454545455" width="90" height="72.72727272727273" as="geometry" />
        </mxCell>
        <mxCell id="r7xqQwzz1_i2SjMvlClv-29" value="" style="shape=image;verticalLabelPosition=bottom;labelBackgroundColor=default;verticalAlign=top;aspect=fixed;imageAspect=0;image=data:image/webp,UklGRrAMAABXRUJQVlA4TKMMAAAv5MBMEOfkOrZtpdn3XtzhjxYy6b+F9OLuglOD40aSFCm6Z/aYwX9DzqL9H1M7jiTJiRKtwTSsxxB4iRPtJrZtV1lUVMlBlIGZLJSeQcOTcD45vf/WASzsTQAV2gzooUGDL/TQwx8q/KFChR4aVPjBH/4NhAf8IA2EQKA1gAgDCLQGQjcOQBqZoDj5YaZwA4MFLjTxChI/kD9uw/5oooHwsb+hNvyg+RWCQBMtN4fRv4dLJEz1V9BCh/CD5lPwQpQpQdMDOggEAgUKFCgQCOQb5SX9ZBEEkjiFYhyBQIFAoLzKOTqvq02GO3Rk16mqoIvOIXCWnby4Ljv5ovdYtmzZC4t1r703k7qFh+tpEy07PprAFp3V5bAbL/fbYzee7tfH4/a4X2+/2+ONz/tn2b7HpBA2YbfmKGjbhknKH3Z3IETEBABSVRu1ZQCmmkeLZWnbGkuO/vou4F+xYkEHKIkWhKClBKlC3nvTVt67lW5p7rY052T+/LCciej/BNDatr1t2+DCD8iRj9LWU1Q23S1KpuTBOMODulqNqp+PMkn3y95774HsnX/LBeH7BPYwov8TINvZ9qiNfn01JClhhu7ZQAX5PwAJHwD3f3P490LS+mg0Ef2fAFL+xQezu6rVanV6XGM1OTv74GVa9ZcePH//uXv3bm5uIPLm5pV79+7ff+HBy6u0lxgcY2DjtlTbwvQavYWabkt1PWr0BgrbkPdV6GWz0Jx92qe3R4cZss9tXiUwJmrjPqMSGIM2qAAw2z6XPTDG3UsIgE19Fj0bDL23RgpAqDNoG2PwtSY1wGTtWsD4fy/RA0zsirUADf/tcgBw0qpHqNjYhAUWAFNUKgwdw03o1ngAXFOneyjp4ybAAS7ASZnK0HKQgCYXgO+aJKgZYkq3xgbMrkeAmiGmwXc+wLsWAVp6HcyCZT7ARYcALb0B5oF5PsC7Bhla+jHm683xAe7j7dDSj7EAdGt8wI3ntPBjLAR/1fhAHi1DST9GDXCQETOaU8KPUQsc5AN5rAYdvQFqggN8+LGyDt4AtcECGxgr6tDBIcACG22ooMLnOJTeHBd1KKfB+/8MB7q1UuDHw4J2GfAiHBocKAEdNACa1rcfjejVLM9HM6Btd97AFFiyulU0ple3uBaaA2178yKTYMnaVtCoXt3SfDQL2pbWNw3mrSxA47o1C/Mi82DZwlaQANSty4tJHLSuVSQBTctqIJG2ZYVUoGlVDSTTtqpVOtC0KC8m1LaoFSQETXuKSLVHkh8iQFIwN4riEH1iB0dRGqGBxKBOhIbeR1glt0zDjkVmgIhcl0YaLMpbRHIwT6IN1llcyMB3ChuNXsTFDEDdPO7DkRe2iBy8J6/S+N3KCll4LC6Rht2Kiln44VVhgXTsVpCPPLwnK5CW3cpZYeKxqESKbmIGTPzwqhyupGphGR5y8Z4Y10jZ7kUssvFQCCdSuBoBK2z8cCsiNNKyXkSU+LQ+H28LcJUuTmPFfhn1yCchH5+c5ipd6ftQLl9B1JM5w2fk8Umu0rUddSxzFRFld1zAyA+3J3BodH0cDekAorbxQSucvHmYzZ0ObDwctyOIqAQ+os/Jh8eY2OhYh+Fg+zFEVAJfFXHy8AC77XR0hAIIhxFR3exlyMnX1/jU6PgMFRBOIKKWw1iGz8oPr17gYqVTM5RA6Gfc/W1nZauUssXLm3fYxUpnZ6gB205KdXd84+UjF0sjgRsUARcBQpzl5VcS2R1UAbY+m19EFIY2MGUyPwloHpeqAbh9Kj+c1iNDJyC0dciMK1UBQpvHX2f0bHC1MoCvs/jjuBYZB6oDmNQPOjcaasCxCgHw5ZALI6BFg6N1AjiU6bRkcaJWADjkPo89Wpyr2F0X9wsusdVzMDhdOQA85bgpgqVWNguR+v3reGXnr+IkL39STd5A7CRS/+HFQPZMQl6wLCvlaJGVx+vis/JwXSQr/1mYAScfLkzIyTsLE3Dy5sL4nNwujIz5+Bor0+Hj4dLs5+PDpfH5eHtpZMzGq2sTcvEMa7PIxadz2eR5XLwzlyhPdph4VV4bKg8Q8PAM8mnoNoDHwyfy/Fjk5MmQhTfl5cHqAIscfA3xhkZ38mTEwKfy8nA7y1th4G1xjsbP8hr0nkE6dwUoiJMdcp9I451UDOJa5F4VxjspGaTJiNhDyOad1MzSAmLvyLI7KVqNLBmRegbRvpOq3csKSL0niROpW4wkGRH6+laQb6RwjywoIPQhxJpKas5ORC3IkRGZr2+lmEyX72P1HkQtiAnIfAiZJtO121id8SFqkWXIAZGvb0XYTNebOlTT+BH1bEW0iHwIgaHSgRmDwQQgon3j82SHxDOcbnOnQ81wlzBEVAKf1SDx9kk2NTo4YjjoUERUNnOKXCHwEGfa1OjwHQpgOI6I9uROkJFxX796mAm504mNVUA+4251xnW1jPsQhxqfdjq3W+iAfNJdd8fUmAa5athjXO+23Oj0ZqEF4nnJ311neryAF5n1+kXstryTyJ2hB3yXkP6b61TGx9JkS8t/2t7Dv1oXc+0kNuG/6gBTxWT+5u50KuPj6zpQ1yMfY6mdZHcPZYCty8q8dErHVT0//k0DFoY+4DyCuKjjup4/SH5zuFgPwNQBxDkNd7X8RuJbwJWaAK7KE2eK3dfxK0lvAVfrApgs7tKpQk80/Py3sBZwoDYAxyZLXDxR4MrLYj/+TaKzw6H6APBZlDhf4Ia6WmTjTxLcNsbBKgEciiBxLt8ddbvIERLbksXxSgHgUMSIM7nuqQcFDgmhLVmcqtddn5oMcTrPU/Uy3yFhZNkMztYNgAk7fzPg0qkcL5S6leeQGH6NDhLVuzs2tcMdkrh0KuOKUupBjkNiuK1sDlKnkLp1eof7uz5x6WTaHaWUuppxSOhvJTqG5Hmkbhmv7HB/0yIunkh5mHiQsnFYaK0lBgf5k8ncOl5xdrq/5hMXTyReJNR1ANg4InL3WmP0jjHqnC40znnHcXa4rut+vYx4U6W+vA7Hv7iuu8dxnIpzDuNP7kpvgA/TlHr0UfK6EtK7pjKff5LlRb7PeivLjHyW9liWm1dpb0vO25TnsuR8SnlVduSzxJvS8yrxrvS8SXwoPe8SsvR8KkfSRrxGjy0kavXeMpJGr5VS7xiiofdlsmORWaU0WFToHU99sM5rtNHoRZ/3HHEfjoI68sNjfiqN3606Un76zEwiDbvVh9tAOna7NoG07HZlMim6LQtXUrXwmrhOyna/IJxI4WpWI3TSOfFKuEpq98ir4Cqp3rNZAVdJ/+Imx6HRHNtm5uVyp4mWwDMysdF0S+C52LjTpOtmZ+FTo6n3HIx2LlZawlY2pxT7WGktawpOFXaxNFrUvUTvhmO3pdppfXvNMTgrjp2LsVZa773WGGNwzrmD2DnnthhzrZ3+7///Tbg++9cNT9J0PXtfm66ff18ImqOebAYhswx6SQHg6ThFAKBOaQD1FQcZpwEwxsExEXIdCeZ3pmzlTkATpnIYf2dVZ9b9m3TzMVaWKv6lMVlb6exD9o9E4FhnL4bIpi2wrvuFiExbYH3Ts8usazjf9CQwRDZtAQBF3c8upvvC+rWba4hGmHUN55ueHln5Bwp2VQzUQcGuwJJGDs8c3eJR/oGCXRWDsLTIYVfHFy+NHJ45uuVxVXBv4M42jZCq9ajgPtpaBccMPhohVfu4Sg/veTUh8OBWehTLakBgy4TAw8OKm/NK52GybzfvYdVmMXQeJvv+kVCvbggdQ+kVQltuCP3AiqqqXMqqqnbSxwry39VzsKKqKgmNR1lV1c4H8t/V8w9w0Mx8ctDMXBcC3HZsjDFjqINm5pN0c3vumLktA+3YGGPGH6AjIuJS+CAiMioMyBqqIyLiUji7gYhoQSCQ9XEUAgYvtlTC2YI7YEsVgR6d+CSZpJGPlER9EjWUQgpjCgFvSfO8EzClibGOkIc0IfuHUHHSnP/xMhPR/Hua7+Xw2TTNSxFq3lob6+MBlCdm1pdse94e5YmZ9SXbQMPWQqp92NpBLO+gEPzjvUYpBP9wARsf/3F7dajXeF0eow71up0Dx5q216swqos3I0avwqhuO5givdH2lmMeBHM8Yqcnn+WYB8G8mUNNkYY7IFMovwwDbYCGI/aWHLUPmUL5ZRhoK/nXEqmjUCoKTTWUctrjzVAY5UM0crPWhrxoqqGU0x5vhraxB7qFIuzx1pNsWDQrw+Kwmlm2Ec09O/cTiYZFszIsDpKrH9Hcs3M/UVAOOi4kzhzU0E8eIhUn4zqmyw2uu32ynJ1c5yR6pRRSnEL5aUmfHKeFkvPm9z1Qgk7Gk/77/393AA==;" vertex="1" parent="r7xqQwzz1_i2SjMvlClv-27">
          <mxGeometry x="7.82000000000005" width="74.35" height="100" as="geometry" />
        </mxCell>
        <mxCell id="r7xqQwzz1_i2SjMvlClv-30" value="" style="group" vertex="1" connectable="0" parent="1">
          <mxGeometry x="105" y="188.5" width="185" height="60" as="geometry" />
        </mxCell>
        <mxCell id="r7xqQwzz1_i2SjMvlClv-31" value="" style="strokeColor=#dddddd;shadow=1;strokeWidth=1;rounded=1;absoluteArcSize=1;arcSize=2;" vertex="1" parent="r7xqQwzz1_i2SjMvlClv-30">
          <mxGeometry width="185" height="60" as="geometry" />
        </mxCell>
        <mxCell id="r7xqQwzz1_i2SjMvlClv-32" value="" style="editableCssRules=.*;html=1;shape=image;verticalLabelPosition=bottom;labelBackgroundColor=none;verticalAlign=middle;aspect=fixed;imageAspect=0;image=data:image/svg+xml,PHN2ZyB4bWxucz0iaHR0cDovL3d3dy53My5vcmcvMjAwMC9zdmciIHhtbG5zOnY9Imh0dHBzOi8vdmVjdGEuaW8vbmFubyIgd2lkdGg9IjM2NS40NjQ5OTY3NzA0MjQ5MyIgaGVpZ2h0PSIzNzkuMjIyOTk0NDYzNTc3OTUiIHZpZXdCb3g9IjAgMCA5Ni42OTU5OTkxNDU1MDc4MSAxMDAuMzM1OTk4NTM1MTU2MjUiPiYjeGE7PHN0eWxlIHR5cGU9InRleHQvY3NzIj4mI3hhOwkuc3Qwe2ZpbGw6IzQyODVmNDt9JiN4YTsJLnN0MXtmaWxsOiNhZWNiZmE7fSYjeGE7PC9zdHlsZT4mI3hhOwk8cGF0aCBjbGFzcz0ic3QwIiBkPSJNMjkuNzk0IDEwMC4zMzZMNDYuOTIgNTAuMTY4aDQ5Ljc3NnpNMCA5OS42NzFsMTIuOTc2LTQ5LjUwMkgyOS4yMkwxNi44OTcgOTIuMDU0eiIvPiYjeGE7CTxwYXRoIGNsYXNzPSJzdDEiIGQ9Ik0yOS43OTQgMEw0Ni45MiA1MC4xNjhoNDkuNzc2ek0wIC42NjZsMTIuOTc2IDQ5LjUwMkgyOS4yMkwxNi44OTcgOC4yODN6Ii8+JiN4YTs8L3N2Zz4=;" vertex="1" parent="r7xqQwzz1_i2SjMvlClv-30">
          <mxGeometry x="15" y="15" width="30" height="30" as="geometry" />
        </mxCell>
        <mxCell id="r7xqQwzz1_i2SjMvlClv-33" value="&lt;font color=&quot;#000000&quot; style=&quot;forced-color-adjust: none; color: rgb(0, 0, 0); font-family: Helvetica; font-size: 12px; font-style: normal; font-variant-ligatures: normal; font-variant-caps: normal; font-weight: 400; letter-spacing: normal; orphans: 2; text-indent: 0px; text-transform: none; widows: 2; word-spacing: 0px; -webkit-text-stroke-width: 0px; white-space: nowrap; background-color: rgb(251, 251, 251); text-decoration-thickness: initial; text-decoration-style: initial; text-decoration-color: initial; text-align: left;&quot;&gt;Cloud Run: Backend&lt;/font&gt;&lt;br style=&quot;forced-color-adjust: none; font-family: Helvetica; font-size: 12px; font-style: normal; font-variant-ligatures: normal; font-variant-caps: normal; font-weight: 400; letter-spacing: normal; orphans: 2; text-indent: 0px; text-transform: none; widows: 2; word-spacing: 0px; -webkit-text-stroke-width: 0px; white-space: nowrap; background-color: rgb(251, 251, 251); text-decoration-thickness: initial; text-decoration-style: initial; text-decoration-color: initial; color: rgb(153, 153, 153); text-align: left;&quot;&gt;&lt;span style=&quot;forced-color-adjust: none; font-family: Helvetica; font-size: 12px; font-style: normal; font-variant-ligatures: normal; font-variant-caps: normal; font-weight: 400; letter-spacing: normal; orphans: 2; text-indent: 0px; text-transform: none; widows: 2; word-spacing: 0px; -webkit-text-stroke-width: 0px; white-space: nowrap; background-color: rgb(251, 251, 251); text-decoration-thickness: initial; text-decoration-style: initial; text-decoration-color: initial; color: rgb(153, 153, 153); text-align: left; float: none; display: inline !important;&quot;&gt;Container&lt;/span&gt;" style="text;whiteSpace=wrap;html=1;" vertex="1" parent="r7xqQwzz1_i2SjMvlClv-30">
          <mxGeometry x="65" y="10" width="90" height="50" as="geometry" />
        </mxCell>
        <mxCell id="r7xqQwzz1_i2SjMvlClv-34" style="edgeStyle=orthogonalEdgeStyle;rounded=0;orthogonalLoop=1;jettySize=auto;html=1;startArrow=classic;startFill=1;" edge="1" parent="1" source="r7xqQwzz1_i2SjMvlClv-22">
          <mxGeometry relative="1" as="geometry">
            <mxPoint x="633" y="340" as="targetPoint" />
          </mxGeometry>
        </mxCell>
        <mxCell id="r7xqQwzz1_i2SjMvlClv-35" style="edgeStyle=orthogonalEdgeStyle;rounded=0;orthogonalLoop=1;jettySize=auto;html=1;entryX=1;entryY=0.5;entryDx=0;entryDy=0;exitX=0;exitY=0.5;exitDx=0;exitDy=0;" edge="1" parent="1" source="r7xqQwzz1_i2SjMvlClv-22" target="r7xqQwzz1_i2SjMvlClv-9">
          <mxGeometry relative="1" as="geometry">
            <mxPoint x="469.5" y="368.5" as="targetPoint" />
          </mxGeometry>
        </mxCell>
        <mxCell id="r7xqQwzz1_i2SjMvlClv-37" value="Satellites:&lt;div&gt;&lt;div&gt;&lt;br&gt;&lt;/div&gt;&lt;div&gt;id: str = Field(None, alias=&quot;_id&quot;)&lt;/div&gt;&lt;div&gt;sat_id: int&lt;/div&gt;&lt;div&gt;name: str&lt;/div&gt;&lt;div&gt;units: str&amp;nbsp;= &quot;kilometers&quot;&lt;/div&gt;&lt;/div&gt;" style="whiteSpace=wrap;html=1;shape=mxgraph.basic.document;align=left;verticalAlign=top;" vertex="1" parent="1">
          <mxGeometry x="890" y="400" width="180" height="220" as="geometry" />
        </mxCell>
        <mxCell id="r7xqQwzz1_i2SjMvlClv-38" value="Locations:&lt;div&gt;&lt;div&gt;&lt;br&gt;&lt;/div&gt;&lt;div&gt;id: str = Field(None, alias=&quot;_id&quot;)&lt;/div&gt;&lt;div&gt;&lt;span style=&quot;background-color: initial;&quot;&gt;sat_id&lt;/span&gt;&lt;span style=&quot;background-color: initial;&quot;&gt;: int&lt;/span&gt;&lt;/div&gt;&lt;div&gt;&lt;div&gt;latitude: float,&lt;/div&gt;&lt;div&gt;&amp;nbsp;longitude: float,&lt;/div&gt;&lt;div&gt;&amp;nbsp;altitude: float,&lt;/div&gt;&lt;div&gt;&amp;nbsp;velocity: float,&lt;/div&gt;&lt;div&gt;&amp;nbsp;visibility: str,&lt;/div&gt;&lt;div&gt;&amp;nbsp;footprint: float,&lt;/div&gt;&lt;div&gt;&amp;nbsp;timestamp: datetime,&lt;/div&gt;&lt;div&gt;&amp;nbsp;daynum: float,&lt;/div&gt;&lt;div&gt;&amp;nbsp;solar_lat: float,&lt;/div&gt;&lt;div&gt;&amp;nbsp;solar_lon: float&lt;/div&gt;&lt;/div&gt;&lt;/div&gt;" style="whiteSpace=wrap;html=1;shape=mxgraph.basic.document;align=left;verticalAlign=top;" vertex="1" parent="1">
          <mxGeometry x="1080" y="400" width="180" height="220" as="geometry" />
        </mxCell>
        <mxCell id="r7xqQwzz1_i2SjMvlClv-43" value="" style="edgeStyle=orthogonalEdgeStyle;rounded=0;orthogonalLoop=1;jettySize=auto;html=1;exitX=0.5;exitY=0;exitDx=0;exitDy=0;entryX=0.5;entryY=1;entryDx=0;entryDy=0;" edge="1" parent="1" source="r7xqQwzz1_i2SjMvlClv-67">
          <mxGeometry relative="1" as="geometry">
            <mxPoint x="677.5" y="604.1500000000001" as="targetPoint" />
          </mxGeometry>
        </mxCell>
        <mxCell id="r7xqQwzz1_i2SjMvlClv-49" value="" style="edgeStyle=orthogonalEdgeStyle;rounded=0;orthogonalLoop=1;jettySize=auto;html=1;entryX=1;entryY=0.5;entryDx=0;entryDy=0;" edge="1" parent="1" source="r7xqQwzz1_i2SjMvlClv-40">
          <mxGeometry relative="1" as="geometry">
            <mxPoint x="540" y="573.8" as="targetPoint" />
          </mxGeometry>
        </mxCell>
        <mxCell id="r7xqQwzz1_i2SjMvlClv-50" value="Every 20s" style="edgeStyle=orthogonalEdgeStyle;rounded=0;orthogonalLoop=1;jettySize=auto;html=1;entryX=0;entryY=0.5;entryDx=0;entryDy=0;exitX=1;exitY=0.5;exitDx=0;exitDy=0;" edge="1" parent="1" source="r7xqQwzz1_i2SjMvlClv-72" target="r7xqQwzz1_i2SjMvlClv-29">
          <mxGeometry x="-0.4295" y="10" relative="1" as="geometry">
            <mxPoint x="430.1100000000001" y="603.8599999999999" as="sourcePoint" />
            <Array as="points">
              <mxPoint x="790" y="260" />
              <mxPoint x="790" y="280" />
            </Array>
            <mxPoint as="offset" />
          </mxGeometry>
        </mxCell>
        <mxCell id="r7xqQwzz1_i2SjMvlClv-51" value="" style="group" vertex="1" connectable="0" parent="1">
          <mxGeometry x="-99" y="303.5" width="90" height="230" as="geometry" />
        </mxCell>
        <mxCell id="r7xqQwzz1_i2SjMvlClv-52" value="Multiple&lt;br&gt;Clients" style="rounded=1;absoluteArcSize=1;arcSize=2;html=1;strokeColor=none;gradientColor=none;shadow=0;dashed=0;fontSize=12;fontColor=#9E9E9E;align=left;verticalAlign=top;spacing=10;spacingTop=-4;fillColor=#F1F8E9;" vertex="1" parent="r7xqQwzz1_i2SjMvlClv-51">
          <mxGeometry width="90" height="230" as="geometry" />
        </mxCell>
        <mxCell id="r7xqQwzz1_i2SjMvlClv-53" value="" style="strokeColor=#dddddd;fillColor=#ffffff;shadow=1;strokeWidth=1;rounded=1;absoluteArcSize=1;arcSize=2;labelPosition=center;verticalLabelPosition=middle;align=center;verticalAlign=bottom;spacingLeft=0;fontColor=#999999;fontSize=12;whiteSpace=wrap;spacingBottom=2;html=1;" vertex="1" parent="r7xqQwzz1_i2SjMvlClv-51">
          <mxGeometry x="10" y="60" width="70" height="70" as="geometry" />
        </mxCell>
        <mxCell id="r7xqQwzz1_i2SjMvlClv-54" value="" style="dashed=0;connectable=0;html=1;fillColor=#757575;strokeColor=none;shape=mxgraph.gcp2.mobile_devices;part=1;" vertex="1" parent="r7xqQwzz1_i2SjMvlClv-53">
          <mxGeometry x="0.5" width="50" height="36.5" relative="1" as="geometry">
            <mxPoint x="-25" y="16.75" as="offset" />
          </mxGeometry>
        </mxCell>
        <mxCell id="r7xqQwzz1_i2SjMvlClv-55" value="" style="strokeColor=#dddddd;fillColor=#ffffff;shadow=1;strokeWidth=1;rounded=1;absoluteArcSize=1;arcSize=2;labelPosition=center;verticalLabelPosition=middle;align=center;verticalAlign=bottom;spacingLeft=0;fontColor=#999999;fontSize=12;whiteSpace=wrap;spacingBottom=2;html=1;" vertex="1" parent="r7xqQwzz1_i2SjMvlClv-51">
          <mxGeometry x="10" y="149.5" width="70" height="70" as="geometry" />
        </mxCell>
        <mxCell id="r7xqQwzz1_i2SjMvlClv-56" value="" style="dashed=0;connectable=0;html=1;fillColor=#757575;strokeColor=none;shape=mxgraph.gcp2.laptop;part=1;" vertex="1" parent="r7xqQwzz1_i2SjMvlClv-55">
          <mxGeometry x="0.5" width="50" height="33" relative="1" as="geometry">
            <mxPoint x="-25" y="18.5" as="offset" />
          </mxGeometry>
        </mxCell>
        <mxCell id="r7xqQwzz1_i2SjMvlClv-57" style="edgeStyle=orthogonalEdgeStyle;rounded=0;orthogonalLoop=1;jettySize=auto;html=1;entryX=1;entryY=0.5;entryDx=0;entryDy=0;" edge="1" parent="1" source="r7xqQwzz1_i2SjMvlClv-20" target="r7xqQwzz1_i2SjMvlClv-31">
          <mxGeometry relative="1" as="geometry" />
        </mxCell>
        <mxCell id="r7xqQwzz1_i2SjMvlClv-59" value="&lt;b&gt;External Services&lt;/b&gt;" style="shadow=0;fontSize=14;align=left;spacing=10;9E9E9E;verticalAlign=top;spacingTop=-4;fontStyle=0;spacingLeft=40;html=1;fillColor=#f5f5f5;fontColor=#333333;strokeColor=#666666;" vertex="1" parent="1">
          <mxGeometry x="60" y="750" width="740" height="141" as="geometry" />
        </mxCell>
        <mxCell id="r7xqQwzz1_i2SjMvlClv-60" value="" style="group" vertex="1" connectable="0" parent="1">
          <mxGeometry x="360" y="801.5" width="240" height="60" as="geometry" />
        </mxCell>
        <mxCell id="r7xqQwzz1_i2SjMvlClv-61" value="" style="group" vertex="1" connectable="0" parent="r7xqQwzz1_i2SjMvlClv-60">
          <mxGeometry x="-5" y="-12" width="240" height="72" as="geometry" />
        </mxCell>
        <mxCell id="r7xqQwzz1_i2SjMvlClv-62" value="" style="strokeColor=#dddddd;shadow=1;strokeWidth=1;rounded=1;absoluteArcSize=1;arcSize=2;" vertex="1" parent="r7xqQwzz1_i2SjMvlClv-61">
          <mxGeometry width="240" height="72" as="geometry" />
        </mxCell>
        <mxCell id="r7xqQwzz1_i2SjMvlClv-63" value="" style="aspect=fixed;sketch=0;html=1;dashed=0;whitespace=wrap;verticalLabelPosition=bottom;verticalAlign=top;fillColor=#2875E2;strokeColor=#ffffff;points=[[0.005,0.63,0],[0.1,0.2,0],[0.9,0.2,0],[0.5,0,0],[0.995,0.63,0],[0.72,0.99,0],[0.5,1,0],[0.28,0.99,0]];shape=mxgraph.kubernetes.icon2;prIcon=api" vertex="1" parent="r7xqQwzz1_i2SjMvlClv-61">
          <mxGeometry x="5" y="12" width="50" height="48" as="geometry" />
        </mxCell>
        <UserObject label="API: https://api.wheretheiss.at" link="https://api.wheretheiss.at" id="r7xqQwzz1_i2SjMvlClv-64">
          <mxCell style="text;whiteSpace=wrap;verticalAlign=middle;" vertex="1" parent="r7xqQwzz1_i2SjMvlClv-61">
            <mxGeometry x="60" y="16" width="170" height="40" as="geometry" />
          </mxCell>
        </UserObject>
        <mxCell id="r7xqQwzz1_i2SjMvlClv-65" style="edgeStyle=orthogonalEdgeStyle;rounded=0;orthogonalLoop=1;jettySize=auto;html=1;entryX=0.148;entryY=-0.004;entryDx=0;entryDy=0;entryPerimeter=0;exitX=0;exitY=0.5;exitDx=0;exitDy=0;" edge="1" parent="1" source="r7xqQwzz1_i2SjMvlClv-72" target="r7xqQwzz1_i2SjMvlClv-62">
          <mxGeometry relative="1" as="geometry">
            <Array as="points">
              <mxPoint x="391" y="260" />
            </Array>
            <mxPoint x="391" y="603.8" as="sourcePoint" />
          </mxGeometry>
        </mxCell>
        <mxCell id="r7xqQwzz1_i2SjMvlClv-70" style="edgeStyle=orthogonalEdgeStyle;rounded=0;orthogonalLoop=1;jettySize=auto;html=1;entryX=0;entryY=0.5;entryDx=0;entryDy=0;startArrow=classic;startFill=1;" edge="1" parent="1" source="r7xqQwzz1_i2SjMvlClv-19" target="r7xqQwzz1_i2SjMvlClv-29">
          <mxGeometry relative="1" as="geometry">
            <Array as="points">
              <mxPoint x="790" y="219" />
              <mxPoint x="790" y="280" />
            </Array>
          </mxGeometry>
        </mxCell>
        <mxCell id="r7xqQwzz1_i2SjMvlClv-71" value="" style="group;fillColor=#dae8fc;strokeColor=#6c8ebf;" vertex="1" connectable="0" parent="1">
          <mxGeometry x="510" y="230" width="185" height="60" as="geometry" />
        </mxCell>
        <mxCell id="r7xqQwzz1_i2SjMvlClv-72" value="" style="strokeColor=#dddddd;shadow=1;strokeWidth=1;rounded=1;absoluteArcSize=1;arcSize=2;" vertex="1" parent="r7xqQwzz1_i2SjMvlClv-71">
          <mxGeometry width="185" height="60" as="geometry" />
        </mxCell>
        <mxCell id="r7xqQwzz1_i2SjMvlClv-74" value="" style="verticalLabelPosition=bottom;html=1;verticalAlign=top;align=center;strokeColor=none;fillColor=#00BEF2;shape=mxgraph.azure.scheduler;pointerEvents=1;" vertex="1" parent="r7xqQwzz1_i2SjMvlClv-71">
          <mxGeometry x="10.5" y="5" width="40" height="50" as="geometry" />
        </mxCell>
        <mxCell id="r7xqQwzz1_i2SjMvlClv-75" value="&lt;span style=&quot;forced-color-adjust: none; font-family: Helvetica; font-size: 12px; font-style: normal; font-variant-ligatures: normal; font-variant-caps: normal; font-weight: 400; letter-spacing: normal; orphans: 2; text-indent: 0px; text-transform: none; widows: 2; word-spacing: 0px; -webkit-text-stroke-width: 0px; white-space: nowrap; background-color: rgb(251, 251, 251); text-decoration-thickness: initial; text-decoration-style: initial; text-decoration-color: initial; text-align: left; float: none; display: inline !important;&quot;&gt;Pull Position Task&lt;/span&gt;&lt;div&gt;&lt;span style=&quot;forced-color-adjust: none; font-family: Helvetica; font-size: 12px; font-style: normal; font-variant-ligatures: normal; font-variant-caps: normal; font-weight: 400; letter-spacing: normal; orphans: 2; text-indent: 0px; text-transform: none; widows: 2; word-spacing: 0px; -webkit-text-stroke-width: 0px; white-space: nowrap; background-color: rgb(251, 251, 251); text-decoration-thickness: initial; text-decoration-style: initial; text-decoration-color: initial; color: rgb(153, 153, 153); text-align: left; float: none; display: inline !important;&quot;&gt;Background Scheduler&lt;/span&gt;&lt;/div&gt;" style="text;whiteSpace=wrap;html=1;" vertex="1" parent="r7xqQwzz1_i2SjMvlClv-71">
          <mxGeometry x="60" y="5" width="90" height="50" as="geometry" />
        </mxCell>
        <mxCell id="r7xqQwzz1_i2SjMvlClv-76" style="edgeStyle=orthogonalEdgeStyle;rounded=0;orthogonalLoop=1;jettySize=auto;html=1;exitX=0.5;exitY=0;exitDx=0;exitDy=0;entryX=0.25;entryY=1;entryDx=0;entryDy=0;startArrow=block;startFill=1;" edge="1" parent="1" source="r7xqQwzz1_i2SjMvlClv-9" target="r7xqQwzz1_i2SjMvlClv-33">
          <mxGeometry relative="1" as="geometry" />
        </mxCell>
      </root>
    </mxGraphModel>
  </diagram>
  <diagram id="f106602c-feb2-e66a-4537-3a34d633f6aa" name="Rev0">
    <mxGraphModel dx="2500" dy="871" grid="1" gridSize="10" guides="1" tooltips="1" connect="1" arrows="1" fold="1" page="1" pageScale="1" pageWidth="1169" pageHeight="827" background="none" math="0" shadow="0">
      <root>
        <mxCell id="0" />
        <mxCell id="1" parent="0" />
        <mxCell id="Qo7nLD7n5bN8_-DEjTDH-54" value="&lt;b&gt;Internet&lt;/b&gt;" style="fillColor=none;strokeColor=default;shadow=0;gradientColor=none;fontSize=14;align=left;spacing=10;fontColor=#717171;9E9E9E;verticalAlign=top;spacingTop=-4;fontStyle=0;spacingLeft=40;html=1;dashed=1;" parent="1" vertex="1">
          <mxGeometry x="-140" y="90" width="1620" height="840" as="geometry" />
        </mxCell>
        <mxCell id="Lif8JBEafslfNm7ranTe-1" value="&lt;b&gt;Google &lt;/b&gt;Cloud Platform" style="fillColor=#f5f5f5;strokeColor=#666666;shadow=0;fontSize=14;align=left;spacing=10;fontColor=#333333;9E9E9E;verticalAlign=top;spacingTop=-4;fontStyle=0;spacingLeft=40;html=1;" parent="1" vertex="1">
          <mxGeometry x="60" y="128.5" width="740" height="610" as="geometry" />
        </mxCell>
        <mxCell id="Qo7nLD7n5bN8_-DEjTDH-55" value="" style="group" parent="1" vertex="1" connectable="0">
          <mxGeometry x="80" y="168.5" width="230" height="545" as="geometry" />
        </mxCell>
        <mxCell id="Qo7nLD7n5bN8_-DEjTDH-56" value="" style="group" parent="Qo7nLD7n5bN8_-DEjTDH-55" vertex="1" connectable="0">
          <mxGeometry width="230.00000000000003" height="545" as="geometry" />
        </mxCell>
        <mxCell id="Qo7nLD7n5bN8_-DEjTDH-57" value="" style="strokeColor=#dddddd;shadow=1;strokeWidth=1;rounded=1;absoluteArcSize=1;arcSize=2;" parent="Qo7nLD7n5bN8_-DEjTDH-56" vertex="1">
          <mxGeometry width="230.00000000000003" height="545" as="geometry" />
        </mxCell>
        <mxCell id="Qo7nLD7n5bN8_-DEjTDH-58" value="&lt;span style=&quot;forced-color-adjust: none; font-family: Helvetica; font-size: 12px; font-style: normal; font-variant-ligatures: normal; font-variant-caps: normal; font-weight: 400; letter-spacing: normal; orphans: 2; text-indent: 0px; text-transform: none; widows: 2; word-spacing: 0px; -webkit-text-stroke-width: 0px; white-space: nowrap; background-color: rgb(251, 251, 251); text-decoration-thickness: initial; text-decoration-style: initial; text-decoration-color: initial; text-align: left; float: none; display: inline !important;&quot;&gt;Artifact Registry&lt;/span&gt;&lt;div&gt;&lt;span style=&quot;forced-color-adjust: none; font-family: Helvetica; font-size: 12px; font-style: normal; font-variant-ligatures: normal; font-variant-caps: normal; font-weight: 400; letter-spacing: normal; orphans: 2; text-indent: 0px; text-transform: none; widows: 2; word-spacing: 0px; -webkit-text-stroke-width: 0px; white-space: nowrap; background-color: rgb(251, 251, 251); text-decoration-thickness: initial; text-decoration-style: initial; text-decoration-color: initial; color: rgb(153, 153, 153); text-align: left; float: none; display: inline !important;&quot;&gt;Docker&lt;/span&gt;&lt;/div&gt;" style="text;whiteSpace=wrap;html=1;" parent="Qo7nLD7n5bN8_-DEjTDH-56" vertex="1">
          <mxGeometry x="80.81" y="490.99099099099095" width="111.89" height="54.009009009009006" as="geometry" />
        </mxCell>
        <mxCell id="Qo7nLD7n5bN8_-DEjTDH-59" value="" style="editableCssRules=.*;html=1;shape=image;verticalLabelPosition=bottom;labelBackgroundColor=#ffffff;verticalAlign=top;aspect=fixed;imageAspect=0;image=data:image/svg+xml,PHN2ZyB4bWxucz0iaHR0cDovL3d3dy53My5vcmcvMjAwMC9zdmciIHhtbG5zOnY9Imh0dHBzOi8vdmVjdGEuaW8vbmFubyIgd2lkdGg9IjM3Ny4xNTkzMDIxNjAyNjMwNSIgaGVpZ2h0PSIzMzYuMTYyNDk5MDAzMzEwOCIgdmlld0JveD0iLTAuMDU4MDAwMDA1NzgxNjUwNTQgMC4xMTI5OTk5OTgwMzMwNDY3MiA5OS43OTAwMDA5MTU1MjczNCA4OC45NDMwMDA3OTM0NTcwMyI+JiN4YTs8c3R5bGUgdHlwZT0idGV4dC9jc3MiPiYjeGE7CS5zdDB7ZmlsbDojNjY5ZGY2O30mI3hhOwkuc3Qxe2ZpbGw6I2FlY2JmYTt9JiN4YTsJLnN0MntmaWxsOiM0Mjg1ZjQ7fSYjeGE7PC9zdHlsZT4mI3hhOwk8cGF0aCBjbGFzcz0ic3QwIiBkPSJNNTMuMjQzIDYyLjA5VjQ3LjA5NGwxMy4yMDEgOC40MTZ2MTUuMDM4em0tMzMuMDIxIDBWNDcuMDk0bDEzLjIwMSA4LjQxNnYxNS4wMzh6bTE2LjUxMS0zMi4yODVWMTQuODFsMTMuMjAxIDguNDE2djE1LjAzOHptNjIuOTk5IDMzLjk2VjI1LjQwM2wtOS41NjItMS44ODR2NDIuMTMxem0tOTkuNzg4IDBWMjUuNDAzbDkuNTYyLTEuODg0djQyLjEzMXoiLz4mI3hhOwk8cGF0aCBjbGFzcz0ic3QxIiBkPSJNNTMuMTg1IDQ3LjA5NGwxMy4yNTgtOC4yODcgMTMuMDE2IDguMjM0LTEzLjAxNiA4LjQ2OXptLTMzLjAyMSAwbDEzLjI1OC04LjI4NyAxMy4wMTYgOC4yMzQtMTMuMDE2IDguNDY5ek0zNi42NzUgMTQuODFsMTMuMjU4LTguMjg3IDEzLjAxNiA4LjIzNC0xMy4wMTYgOC40Njl6bTYzLjA1NiA0OC45NTZ2MTIuMjE3TDc3LjAxIDg5LjA1NVY3Ny43NTJ6bTAtMzguMzYzVjEzLjE4Nkw3Ny4wMS4xMTN2MTEuMzAzek0tLjA1OCA2My43NjZ2MTIuMjE3bDIyLjcyMSAxMy4wNzNWNzcuNzUyem0wLTM4LjM2M1YxMy4xODZMMjIuNjYzLjExM3YxMS4zMDN6Ii8+JiN4YTsJPHBhdGggY2xhc3M9InN0MiIgZD0iTTY2LjQ0NCA3MC41NDdWNTUuNTFsMTMuMDE2LTguNDY5djE1LjR6bS0zMy4wMjEgMFY1NS41MWwxMy4wMTYtOC40Njl2MTUuNHptMTYuNTExLTMyLjI4NVYyMy4yMjVsMTMuMDE2LTguNDY5djE1LjR6bTQ5Ljc5OCAyNS41MDNsLTkuNTYyIDUuODh2LTMuOTk2em0wLTM4LjM2M2wtOS41NjItNS44OHYzLjk5NnpNLS4wNTggNjMuNzY2bDkuNTYyIDUuODh2LTMuOTk2em0wLTM4LjM2M2w5LjU2Mi01Ljg4djMuOTk2eiIvPiYjeGE7PC9zdmc+;" parent="Qo7nLD7n5bN8_-DEjTDH-56" vertex="1">
          <mxGeometry x="12.432432432432433" y="490.99099099099095" width="39.27927927927928" height="35.35135135135135" as="geometry" />
        </mxCell>
        <mxCell id="k2kGGla_AJdaGIRQjZgb-66" value="" style="group" parent="Qo7nLD7n5bN8_-DEjTDH-56" vertex="1" connectable="0">
          <mxGeometry x="22.5" y="220" width="185" height="60" as="geometry" />
        </mxCell>
        <mxCell id="k2kGGla_AJdaGIRQjZgb-67" value="" style="strokeColor=#dddddd;shadow=1;strokeWidth=1;rounded=1;absoluteArcSize=1;arcSize=2;" parent="k2kGGla_AJdaGIRQjZgb-66" vertex="1">
          <mxGeometry width="185" height="60" as="geometry" />
        </mxCell>
        <mxCell id="k2kGGla_AJdaGIRQjZgb-68" value="" style="editableCssRules=.*;html=1;shape=image;verticalLabelPosition=bottom;labelBackgroundColor=none;verticalAlign=middle;aspect=fixed;imageAspect=0;image=data:image/svg+xml,PHN2ZyB4bWxucz0iaHR0cDovL3d3dy53My5vcmcvMjAwMC9zdmciIHhtbG5zOnY9Imh0dHBzOi8vdmVjdGEuaW8vbmFubyIgd2lkdGg9IjM2NS40NjQ5OTY3NzA0MjQ5MyIgaGVpZ2h0PSIzNzkuMjIyOTk0NDYzNTc3OTUiIHZpZXdCb3g9IjAgMCA5Ni42OTU5OTkxNDU1MDc4MSAxMDAuMzM1OTk4NTM1MTU2MjUiPiYjeGE7PHN0eWxlIHR5cGU9InRleHQvY3NzIj4mI3hhOwkuc3Qwe2ZpbGw6IzQyODVmNDt9JiN4YTsJLnN0MXtmaWxsOiNhZWNiZmE7fSYjeGE7PC9zdHlsZT4mI3hhOwk8cGF0aCBjbGFzcz0ic3QwIiBkPSJNMjkuNzk0IDEwMC4zMzZMNDYuOTIgNTAuMTY4aDQ5Ljc3NnpNMCA5OS42NzFsMTIuOTc2LTQ5LjUwMkgyOS4yMkwxNi44OTcgOTIuMDU0eiIvPiYjeGE7CTxwYXRoIGNsYXNzPSJzdDEiIGQ9Ik0yOS43OTQgMEw0Ni45MiA1MC4xNjhoNDkuNzc2ek0wIC42NjZsMTIuOTc2IDQ5LjUwMkgyOS4yMkwxNi44OTcgOC4yODN6Ii8+JiN4YTs8L3N2Zz4=;" parent="k2kGGla_AJdaGIRQjZgb-66" vertex="1">
          <mxGeometry x="15" y="15" width="30" height="30" as="geometry" />
        </mxCell>
        <mxCell id="k2kGGla_AJdaGIRQjZgb-69" value="&lt;font color=&quot;#000000&quot; style=&quot;forced-color-adjust: none; color: rgb(0, 0, 0); font-family: Helvetica; font-size: 12px; font-style: normal; font-variant-ligatures: normal; font-variant-caps: normal; font-weight: 400; letter-spacing: normal; orphans: 2; text-indent: 0px; text-transform: none; widows: 2; word-spacing: 0px; -webkit-text-stroke-width: 0px; white-space: nowrap; background-color: rgb(251, 251, 251); text-decoration-thickness: initial; text-decoration-style: initial; text-decoration-color: initial; text-align: left;&quot;&gt;Cloud Run: Frontend&lt;/font&gt;&lt;br style=&quot;forced-color-adjust: none; font-family: Helvetica; font-size: 12px; font-style: normal; font-variant-ligatures: normal; font-variant-caps: normal; font-weight: 400; letter-spacing: normal; orphans: 2; text-indent: 0px; text-transform: none; widows: 2; word-spacing: 0px; -webkit-text-stroke-width: 0px; white-space: nowrap; background-color: rgb(251, 251, 251); text-decoration-thickness: initial; text-decoration-style: initial; text-decoration-color: initial; color: rgb(153, 153, 153); text-align: left;&quot;&gt;&lt;span style=&quot;forced-color-adjust: none; font-family: Helvetica; font-size: 12px; font-style: normal; font-variant-ligatures: normal; font-variant-caps: normal; font-weight: 400; letter-spacing: normal; orphans: 2; text-indent: 0px; text-transform: none; widows: 2; word-spacing: 0px; -webkit-text-stroke-width: 0px; white-space: nowrap; background-color: rgb(251, 251, 251); text-decoration-thickness: initial; text-decoration-style: initial; text-decoration-color: initial; color: rgb(153, 153, 153); text-align: left; float: none; display: inline !important;&quot;&gt;Container&lt;/span&gt;" style="text;whiteSpace=wrap;html=1;" parent="k2kGGla_AJdaGIRQjZgb-66" vertex="1">
          <mxGeometry x="65" y="10" width="90" height="50" as="geometry" />
        </mxCell>
        <mxCell id="Qo7nLD7n5bN8_-DEjTDH-62" value="" style="group" parent="Qo7nLD7n5bN8_-DEjTDH-56" vertex="1" connectable="0">
          <mxGeometry x="22.5" y="375" width="185" height="60" as="geometry" />
        </mxCell>
        <mxCell id="Qo7nLD7n5bN8_-DEjTDH-39" value="" style="strokeColor=#dddddd;shadow=1;strokeWidth=1;rounded=1;absoluteArcSize=1;arcSize=2;" parent="Qo7nLD7n5bN8_-DEjTDH-62" vertex="1">
          <mxGeometry width="185" height="60" as="geometry" />
        </mxCell>
        <mxCell id="Qo7nLD7n5bN8_-DEjTDH-40" value="" style="editableCssRules=.*;html=1;shape=image;verticalLabelPosition=bottom;labelBackgroundColor=none;verticalAlign=middle;aspect=fixed;imageAspect=0;image=data:image/svg+xml,PHN2ZyB4bWxucz0iaHR0cDovL3d3dy53My5vcmcvMjAwMC9zdmciIHhtbG5zOnY9Imh0dHBzOi8vdmVjdGEuaW8vbmFubyIgd2lkdGg9IjM2NS40NjQ5OTY3NzA0MjQ5MyIgaGVpZ2h0PSIzNzkuMjIyOTk0NDYzNTc3OTUiIHZpZXdCb3g9IjAgMCA5Ni42OTU5OTkxNDU1MDc4MSAxMDAuMzM1OTk4NTM1MTU2MjUiPiYjeGE7PHN0eWxlIHR5cGU9InRleHQvY3NzIj4mI3hhOwkuc3Qwe2ZpbGw6IzQyODVmNDt9JiN4YTsJLnN0MXtmaWxsOiNhZWNiZmE7fSYjeGE7PC9zdHlsZT4mI3hhOwk8cGF0aCBjbGFzcz0ic3QwIiBkPSJNMjkuNzk0IDEwMC4zMzZMNDYuOTIgNTAuMTY4aDQ5Ljc3NnpNMCA5OS42NzFsMTIuOTc2LTQ5LjUwMkgyOS4yMkwxNi44OTcgOTIuMDU0eiIvPiYjeGE7CTxwYXRoIGNsYXNzPSJzdDEiIGQ9Ik0yOS43OTQgMEw0Ni45MiA1MC4xNjhoNDkuNzc2ek0wIC42NjZsMTIuOTc2IDQ5LjUwMkgyOS4yMkwxNi44OTcgOC4yODN6Ii8+JiN4YTs8L3N2Zz4=;" parent="Qo7nLD7n5bN8_-DEjTDH-62" vertex="1">
          <mxGeometry x="15" y="15" width="30" height="30" as="geometry" />
        </mxCell>
        <mxCell id="Qo7nLD7n5bN8_-DEjTDH-41" value="&lt;font color=&quot;#000000&quot; style=&quot;forced-color-adjust: none; color: rgb(0, 0, 0); font-family: Helvetica; font-size: 12px; font-style: normal; font-variant-ligatures: normal; font-variant-caps: normal; font-weight: 400; letter-spacing: normal; orphans: 2; text-indent: 0px; text-transform: none; widows: 2; word-spacing: 0px; -webkit-text-stroke-width: 0px; white-space: nowrap; background-color: rgb(251, 251, 251); text-decoration-thickness: initial; text-decoration-style: initial; text-decoration-color: initial; text-align: left;&quot;&gt;Cloud Run:&amp;nbsp;&lt;/font&gt;&lt;div&gt;&lt;font color=&quot;#000000&quot; style=&quot;forced-color-adjust: none; color: rgb(0, 0, 0); font-family: Helvetica; font-size: 12px; font-style: normal; font-variant-ligatures: normal; font-variant-caps: normal; font-weight: 400; letter-spacing: normal; orphans: 2; text-indent: 0px; text-transform: none; widows: 2; word-spacing: 0px; -webkit-text-stroke-width: 0px; white-space: nowrap; background-color: rgb(251, 251, 251); text-decoration-thickness: initial; text-decoration-style: initial; text-decoration-color: initial; text-align: left;&quot;&gt;Scheduled Tasks&lt;/font&gt;&lt;br style=&quot;forced-color-adjust: none; font-family: Helvetica; font-size: 12px; font-style: normal; font-variant-ligatures: normal; font-variant-caps: normal; font-weight: 400; letter-spacing: normal; orphans: 2; text-indent: 0px; text-transform: none; widows: 2; word-spacing: 0px; -webkit-text-stroke-width: 0px; white-space: nowrap; background-color: rgb(251, 251, 251); text-decoration-thickness: initial; text-decoration-style: initial; text-decoration-color: initial; color: rgb(153, 153, 153); text-align: left;&quot;&gt;&lt;span style=&quot;forced-color-adjust: none; font-family: Helvetica; font-size: 12px; font-style: normal; font-variant-ligatures: normal; font-variant-caps: normal; font-weight: 400; letter-spacing: normal; orphans: 2; text-indent: 0px; text-transform: none; widows: 2; word-spacing: 0px; -webkit-text-stroke-width: 0px; white-space: nowrap; background-color: rgb(251, 251, 251); text-decoration-thickness: initial; text-decoration-style: initial; text-decoration-color: initial; color: rgb(153, 153, 153); text-align: left; float: none; display: inline !important;&quot;&gt;Container&lt;/span&gt;&lt;/div&gt;" style="text;whiteSpace=wrap;html=1;" parent="Qo7nLD7n5bN8_-DEjTDH-62" vertex="1">
          <mxGeometry x="65" y="7" width="90" height="50" as="geometry" />
        </mxCell>
        <mxCell id="Lif8JBEafslfNm7ranTe-4" value="Architecture Diagram: Aerospacelab&amp;nbsp;&lt;span style=&quot;background-color: initial;&quot;&gt;Interactive Maps&lt;/span&gt;" style="fillColor=#4DA1F5;strokeColor=none;shadow=1;gradientColor=none;fontSize=14;align=left;spacingLeft=50;fontColor=#ffffff;html=1;" parent="1" vertex="1">
          <mxGeometry x="-140" y="20" width="650" height="40" as="geometry" />
        </mxCell>
        <mxCell id="Qo7nLD7n5bN8_-DEjTDH-43" style="edgeStyle=orthogonalEdgeStyle;rounded=0;orthogonalLoop=1;jettySize=auto;html=1;entryX=0;entryY=0.5;entryDx=0;entryDy=0;exitX=1;exitY=0.5;exitDx=0;exitDy=0;" parent="1" source="Lif8JBEafslfNm7ranTe-3" target="k2kGGla_AJdaGIRQjZgb-67" edge="1">
          <mxGeometry relative="1" as="geometry" />
        </mxCell>
        <mxCell id="Lif8JBEafslfNm7ranTe-11" style="edgeStyle=orthogonalEdgeStyle;rounded=0;elbow=vertical;html=1;labelBackgroundColor=none;startFill=1;startSize=4;endArrow=blockThin;endFill=1;endSize=4;jettySize=auto;orthogonalLoop=1;strokeColor=#4284F3;strokeWidth=2;fontSize=12;fontColor=#000000;align=left;dashed=0;" parent="1" edge="1">
          <mxGeometry relative="1" as="geometry">
            <Array as="points">
              <mxPoint x="570" y="405" />
              <mxPoint x="570" y="355" />
            </Array>
            <mxPoint x="594" y="355" as="targetPoint" />
          </mxGeometry>
        </mxCell>
        <mxCell id="k2kGGla_AJdaGIRQjZgb-21" value="" style="group" parent="1" vertex="1" connectable="0">
          <mxGeometry x="540" y="188.5" width="185" height="60" as="geometry" />
        </mxCell>
        <mxCell id="k2kGGla_AJdaGIRQjZgb-19" value="" style="strokeColor=#dddddd;shadow=1;strokeWidth=1;rounded=1;absoluteArcSize=1;arcSize=2;" parent="k2kGGla_AJdaGIRQjZgb-21" vertex="1">
          <mxGeometry width="185" height="60" as="geometry" />
        </mxCell>
        <mxCell id="k2kGGla_AJdaGIRQjZgb-14" value="" style="shape=image;verticalLabelPosition=bottom;labelBackgroundColor=default;verticalAlign=top;aspect=fixed;imageAspect=0;image=data:image/png,iVBORw0KGgoAAAANSUhEUgAABAAAAAFxCAYAAADtW9pAAAAACXBIWXMAAAjbAAAI2wHNrPlDAAAAGXRFWHRTb2Z0d2FyZQB3d3cuaW5rc2NhcGUub3Jnm+48GgAAIABJREFUeJzs3XmclXXd//HX5zoDM4ALCuK+565o7u1ZeVe26F1StmgoOjCDmhTLYMs0dylzRgwLmTOSGlaaSZp2q6n93DK91VxySU1Nc09AwQWYgXOuz++PGU0MheH6nrnOOdf7+XgQEsPn+2Y4MOf6fDdzd0RERERERESktkVpBxARERERERGR8lMDQERERERERCQD1AAQERERERERyQA1AEREREREREQyQA0AERERERERkQxQA0BEREREREQkA9QAEBEREREREckANQBEREREREREMkANABEREREREZEMUANAREREREREJAPUABARERERERHJADUARERERERERDJADQARERERERGRDFADQERERERERCQD1AAQERERERERyQA1AEREREREREQyQA0AERERERERkQxQA0BEREREREQkA9QAEBEREREREckANQBEREREREREMkANABEREREREZEMUANAREREREREJAPUABARERERERHJADUARERERERERDJADQARERERERGRDFADQERERERERCQD1AAQERERERERyQA1AEREREREREQyQA0AERERERERkQxQA0BEREREREQkA9QAEBEREREREckANQBEREREREREMkANABEREREREZEMUANAREREREREJAPUABARERERERHJADUARERERERERDJADQARERERERGRDFADQERERERERCQD1AAQERERERERyQA1AEREREREREQyQA0AERERERERkQxQA0BEREREREQkA9QAEBEREREREckANQBEREREREREMkANABEREREREZEMUANAREREREREJAPUABARERERERHJADUARERERERERDJADQARERERERGRDFADQERERERERCQD1AAQERERERERyQA1AEREREREREQyQA0AERERERERkQxQA0BEREREREQkA9QAEBEREREREckANQBEREREREREMkANABEREREREZEMUANAREREREREJAPUABARERERERHJADUARERERERERDJADQARERERERGRDFADQERERERERCQD1AAQERERERERyQA1AEREREREREQyQA0AERERERERkQxQA0BEREREREQkA9QAEBEREREREckANQBEREREREREMkANABEREREREZEMUANAREREREREJAPUABARERERERHJADUARERERERERDJADQARERERERGRDFADQERERERERCQD1AAQERERERERyQA1AEREREREREQyQA0AERERERERkQxQA0BEREREREQkA9QAEBEREREREckANQBEREREREREMkANABEREREREZEMUANAREREREREJAPUABARERERERHJADUARERERERERDJADQARERERERGRDFADQERERERERCQD1AAQERERERERyQA1AEREREREREQyQA0AERERERERkQxQA0BEREREREQkA9QAEBEREREREckANQBEREREREREMkANABEREREREZEMUANAREREREREJAPUABARERERERHJADUARERERERERDJADQARERERERGRDFADQERERERERCQD1AAQERERERERyQA1AEREREREREQyQA0AERERERERkQxQA0BEREREREQkA9QAEBEREREREckANQBEREREREREMkANABEREREREZEMUANAREREREREJAPUABARERERERHJADUARERERERERDJADQARERERERGRDFADQERERERERCQD1AAQERERERERyYC6tAOIhGRzztyW3Mod8WhbjG1w3xZjY9xH4ozAbOO+D60Hhvb99xLAMVbg/jLYS+AvY7xIbE8R8U/cnob4797Usjid35mIiIiIiEgy5u5pZxBZJ3bOGTvhfjDuBwB7AXsCG5Z3VH8GeBDjPtzuII5v94nTXyrvmCIiIiIiIsmpASBVw87t2IoVfBKLPwn2fmBU2pnAHXgU5yai3LW8bjf65MlL004lIiIiIiLydmoASEWzOfk9yNmRuB8B7JF2njXzHrBbwC8j13O5N7YuSjuRiIiIiIgIqAEgFcjmnrU5pe6xwFFgu6WdJ4Ei5jeC/ZKG7st9bGt32oFERERERCS71ACQimBgFPKfwjke49PU2gGVxss4F4LN9aapf087joiIiIiIZI8aAJIqmz27nrplY4DJwO5p5yk/d4huAD+bpmlXO+gvoIiIiIiIDAg1ACQVNrdtKKXBEyD6NrBJ2nlScjfwP9407Q9pBxERERERkdqnBoAMKGtrG8yohvHgU8A2SztPZfDbMX7gE1puSDuJiIiISAh2fsf6rIhHEOeGE5WGU7INiWw47sPf/B42BFuv9xf4YJxhvf/Nv/8bwG0F5m/csrQcrBt8OcZLOItwFhL5Ijy3CC+9QN3GT3lj48oB/i2LVAU1AGTA2JzTP04U/bjKD/YrI7ueqPRtHz/9obSTZI0V8t998w2IvDuP7/Pmll+nHUNE5O3s3NM3ZWXdpERFcsWfeOOpLwSKVLPs7I4tqIt3JWYbYDuM7cC2xtgEZyQwAhicYsQi8BTwOOb/wKPHsPivDI7u9uOmvpZirrKzrvb/xqODEhXxuNubW34QJpFUmto6aE0qks2ZsTNR9FOi3MfSzlLZ/OPE0Z1WaD+bpXU/9MmTl67510gQzomYb5p2jKpgdjGgBoCIVJ4VuVMwn5aoRqkuAqaGCVT9bP78HIue2gOKB2O2P84ewO7kGI4b2Nt+QeXMK9YBOwI74gY4uEGPx1bIPwzcifEXYrvJm6c+nG7UwGL7JObjE9UwWwL8IEgeqThqAEjZWFtbHaPqJxFF3wMa0s5TJQaDfYthxS9aZ/tEb265Lu1AIiKydmxeWwNLh+4O4BOn3JN2niyx2W0bUNfQlLySj7ezzjrdTzllSfJa1c268k04HcB6YJX0cJ9EBOwB7IFzLOZYIf8kcDVwFd2Db/JJk5anG1GkvNQAkLKwc/J7M6rh58CeaWepTrYtxpXW2X4hdXaKN057Je1EIiLSy9ra6ths8M7EtgfOXpjtDoyGhh2I4hxYFxDgYVTWWl19E7BhgEobUN/TDJweoFZ1c7YAsrA9bntgIjCRhhXLrJC/HPPzmNByo25rklqkBoAEZWAU8ieCnw5Wn3aeqmf2NUr+YZuTP9YnTvtT2nFERLKk92ta+/a47YHZnhh74b47oxp2I+7b3/z2JdAy4GxeWwM0fDNYQedkm9f2Yx/b2h2splSLocBXcfsqhfwT5nY+MT/3E6c+n3YwkVDUAJBg7Cenb8rg3C+AQ/SOKCTbmsivtUJ+Bgu6f+StrXHaiUREapV1nrY1VtcKjAZ2A1uv90ua5gIr1vL6Y4DNg9UzNqW74VigEKymVKMdMP8ROb5nXe3nEZfavfk7z6QdSiSpKO0AUhus0L4fg3O3AoeknaU2WQ74Lps2XGNdbaPSTiMiUrNs0JbAOOAAsrH8uarZ/Pk5sMnBCzuTe2uLUI9bM1b3mBXyZ9vsjq3SDiSShBoAkph15k8AuxnYJu0sNc/5KF5/qxVmjk47ioiISOoW/uNIYKcyVN6Bl54YU4a6Ur3qgYnU+aNWaJ+mBpFUKzUAZJ0ZmHV1fA9jDune9Zoxti2UbrJC/jNpJxEREUmV2ZSy1XZaVnPRncgQsHYWPXGXndOxf9phRPpLDQBZJzZr1hAK7b/B/XtpZ8mo9YD5vasvREREssfO6TgU2K+MQ+xNV/6/ylhfqts+xP5/1tXxPTWKpJqoASD9ZjNnDqNhxe/Ajkg7S8bVYcyxQv60tIOIiIgMuNhbyj6GM63sY0g1q8P9f+jsuNIK7RulHUZkbagBIP1iZ7UNZ1jxD8DH0s4ib5qiJoCIiGSJdbYfwMC8FznE5sw4aADGkWpmfhjYHdZ1+p5pRxFZEzUAZK1ZoX0j6uuvAzs47SzyH6ZYIX9G2iFEREQGhNnAzcxbpFUAsjZ2wnN/7mtOiVQsNQBkrdjMmcPALgPbJ+0s8o6+aV3tP0g7hIiISDlZoWMX4L8HbkCOsHNm7D5g40k12xCz63Q4oFSyurQDSOWzWbOGMKz0e+ADaWeRNXA71QrtS72pRasBRESkNrlPwgZ0Esvw6BSgcQDHrEWvgL0K/hrwau83e+XfP+3LwbpX/SW+DKwHPAe2AcRDIGoA3wAYBGwIbARs3ffjSjCc2K+xwsyPedPk+9MOI/J2agDIu7K2tohR9ReAfSjtLLLWfmRdHf/yCVN/mXaQjLkbfH7aIcovejjtBCKSXTZnxgii6OgBH9j5us2e8R0/afrCAR+72hXjUeX+vNn8+TkWProFNng7zLfDfXuM7YH9cHYHcuUcfzVGQPH3dt6sfX3cpJcHeGyRd6UGgLy7TYZ0gOu0/6pihsddNuf0533iqdennSYzjAd8Qks+7RgiIjUtisYDQ1MYeQh10XjgRymMXd3qRywp9xA+ZkwJeKbv2y1v/TnrbFuPqH5/PDoM/HBg53Ln6Rt5W1b0/NzgCAcfmDFF1kxnAMg7skL7BMxPTjuHrAsbRJT7tZ1zxk5pJxEREQnB5rcNBiamGKHZZs+uT3F8WQfe3Pq6T2i5yZumTvWmabtgpb1wP5vebQhlZp+nq/1b5R9HZO2pASCrZYWOg8Fmpp1DEhlOHP/OZrdtkHYQERGRxBY1fAnYIsUEm1O3/KgUx5cAfMKpD3pzy0l495Y4U4DF5R3QZtjcGbuWdQyRflADQP6DdZ6xGR5fDAxOO4sktjN19ecbWNpBREREEjol7QDgFZBBQvDm1te9edpM8B2BHwPFMg01iFLUUabaIv2mBoCswtraIiz+JWZpdtglKPs8ne1pLpkUERFJxObkPwzsl7DMcwGi7GOdHYcEqCMVwptaFnvTtG9jfiDGPWUa5nM2p+PjZaot0i9qAMiqRtVPAT6SdgwJzJhhhZmj044hIiKyTiImJaxQJOIzwOuJs5gnzSIVyCe03MuL3Qdh3lmWASI/UysypRKoASBvskL7fsD3084h5WD1ULrA5rU1pJ1ERESkP2zuGTsCn0tUxLnMx0+7D7ggQKTP6JDd2uStrUWf0DIR5xQgDlx+bwrtWgUgqdM1gAKAtbUNZlTDecCgtLOUw7BBg9h1+Iiq67q+sOw1nl+6NNTVMXvQXf9d4LuB6omIiJRfsXQyZsnucff4xwBE0U+I4yaSTYJFxPE3gRMTZZKK5c3TfmKdHSsxnxO2ctQI/L+wNUX6Rw0A6bXpkOm47552jHL55l77Rz844IPJ3jwMsIseeyg+6c9/LAUt6vYt62q/1Ce03Bu0roiISBnY3PyGmB2bsMqtPnH6HQA+fspjVshfC3w6YbSxVmj/nje1lPcEeUmNN0/ttEJ+RyDgNX5+uJ17+qZ+/Kkvhqsp0j/aAiDYnPweuE9JO0e51OdyTNjjvVXzWl/S080x119ZGnvDVaXXVqwIXb4Op2BtbWr+iYhI5SsxDlg/UQ3nx6v+2H+aqF6vYbidEKCOVLIF3dOAuwNWHMzK6JiA9UT6rWoeiqSMcvyEGr7y7yvv2S3abOiwqlj+f8NzT/k+888vXvz4w6H3nb2F7cumDXrTIiIiFc3mz8+RfJn9k2yy/RWr/D/NLdcCDyesC8bJNnduTW6dlF7e2lrE7WigO1xVOyxcLZH+UwMg4+ycjiNxPpx2jnI6aa/9K/513l0s8t07/1Q67Kr5xYB7/t+Z8wOb2zay7OOIiIisq4VP/jewfcIqs3zMmFW20zk4xuyEdQG2JF78xQB1pIJ589SHMQoBS77fZs4cFrCeSL9U/IORlI/NmjWEOJ6Rdo5y+tQ2O9heIzap6Nn/hxYv8g9e/qtix713xLGX/9m/z0YU6783UIOJiIj0m3FKwgqL8e6fr/Znou4LgJcT1ofYTk5cQypfHHUAywJVG8zQ4ocC1RLpN+0DzrKG7iaItk07RjmdMnr/ij34z93p/Nu98bTbbyqtKIU962+tGI12zhln+/gpjw384CL9Z3PbhlIcsi3OFlg8ksiG4z4coo3A1wPrXYprPhinDmwZHndj0XI87gZbTORPE/Ms5J7x5in/Svm3VDVsbn5D3Hai5JtjvjkWbY4zBPfhmBn4ULBueq/NegXiIm4vYv485s+DPceInud9TGvwg02kNllX+3vBPpCwylxvbn19dT/jja3LrJA/H5icbAh/nxXa9/OmlpD7xKXCePOUf1ln+/mYBbr5IfoEcE2YWiL9owZARtnMmcMYFgU81bTy7DVipB2yxTYVOfv/7NLX/Lgbry7d9NzTAzbl/58sRxxPB45LL4PIqgyMzvYdIRqN+a6Y7Yn7bsC20LAR5mB9H+l93/PGXyNf5TtwMHvL94Bb36+PsUJ+OXAvxl9w7gS/3ZtanhiQ32gFs8629aD+g2AfwdgXY3ecrXo/j9D7ue/7JBv8x+f/jZ9482P7PveLGmIr5P+F21MYT2P8DeIHiXL388KyJ721tYxnn0jVie1Ekn0FX0mRs9/1I8zn4DYJSDZZ0PtQmPCmAql4kV+MB2oAmO8dpI7IOlADIKuGFU8GG5V2jHL69t4HRWaV9/x/2ZOPxk03X1ta3BPwPJl15l+xuTM6vHH6I2knkez598M++2HRfuD7AftiNvzfD/Nl7ZENAd6P8/43Elmh40E8vpQo/q1POPXBcg5eSezsji2o40jcx2ANB/PW9wfh/ggiYAvMtwDe92YDpxTDqIbXrbPjAfD7gbupi2+p7n+X4q2s0P6JtFO8qdhzp5/U+mraMdaWzT1zJMZXEpb5jZ809dl3+wCf0PJPK+SvAL6QaCTnKJt75hRv/PaiRHWksr244v8Y1fACsHmAajsHqCGyTtQAyCCb2zYUGmp6z9oWw4bZkTvsUlFnXLyyoptT/nx96cLHHqqgWS7LUWQamrmQAWLnnr4pK6PPgX0K+BhmG/X+TIqLYVbhe/auOsi1WiF/H3gnS+su9MmTl6adLDQDo+uMz0B8CjkOwVM9F2g9zN8HvA+AUkTvagG/nsh+z8rua6rpARbss8Bn007xplz9gcBf0o6x1uLi8fQ26BLUiGat3QdGP4U4WQMAGvoytyesIxXMW1tjK+SvIcx7pq1s1qwhPmnS8gC1RPqloh6QZIAU68cCI9KOUU4n7bV/NDhXOdv/b3ruad/nkp8XK+vhv4/xJev88dZpx5DaZvPn56yQ/z0rc8+C/Qz4IrBR2rnWYG+wcxhWetYKHR1WaK/0vGvF2toi6+o4mkL+b3j8vzgfpzLfD2yG2ddwfkNdw0LrzF9nZ89MeiK8VDhra6vDaUpY5kafOOWetflAb5pyM/DXhOOB09R3baHUNLs/UKGIhtJOgWqJ9EslfsGXMur74nRS2jnKaf3Bgxm36+iKeG33lHqv9/vUVZcUn1v6eqVMcb6NDSJaGehQG5HV67uGa9Wl5dVjOPgUsMeskJ9obW3V+HsAwDrz72dUw+24/wLYLe08/TAY41B85WoPdJMasmn94cA2yYrYWf36cLd3Pytg7WzDS//4fIA6UtHicFvDvFTTB3FL5aqIhyQZQC8/cRhmO6Ydo5yO23V0NLy+Ie0YPLz4Jf/QwF/vt26ccbqTVgZAtd84MQI4m1ENd9mcGVW1f9Nmz663rvxZGH8GDkg7zzp6wk+avjDtEFJmnnSSwp5h5PZX9euXLIsuBpJvMQl1QJxUrmIU7mwSY/1gtUT6QQ2ArIn9+LQjlFPOjIl77pvq69rdOe+R++P3XfbL4l8XLazwJ/83bcCw+Mi0Q0jNezztAIHsTRTdZV35L6UdZG3YnBk7U7fsdpxvQsJz1dN1Z9oBpLysMHM02EeSFeFnfSuO1lrvGR92UaJxex1ic/J7BKgjlaonWhyslhoAkhI1ADLEzu3YCvivtHOU0xd22Dnabv0NU3uD++LypX7ENZcVm26+trSsuDKtGOsoHpd2AqlxZrXSAABYH+c3Vsh/N+0g78YKZ3yEKPo/YJ+0syRnd6SdQMrMSkln0FcSFc9dp18Z288Sjg1gREwMUEcq1eTJy4B+NZjema8Xpo5I/6gBkCUr4mPBavqAmm+O3j+11/Tvnnw03ueSnxf/8PQT1TLr/zZ2sJ0zY/e0U0gt82rfArA6P7TOju+kHWJ1elcoxNcCG6edJQh3rQCoYXberI1xvpasCFd446kvrMsv7Ts08O5E4/c62ubmNwxQRyqQ915Z81qYapEaAJIKNQCyxKiK5arr6kObb20HjtpiwGf/X13Rw8Q/XVf68nVXlF7qrvLbXOLoy2lHkBpWWysA/s38R9bZPintGG9l58w4DOdXQH3aWQJZSc/ge9MOIWW0omccMDRRDfdzEv16I8QqgPUoMjZAHalcYd5rxnFNT8pJ5VIDICPsnPzeYLuknaOcJu19wIC/nu948Xk/6NILij97+L7Ku95v3agBIOVjNbkCoJfZGVbIfzrtGAA2Z8ZBxNF8YFDaWYIxHtB92bWr94Yia05Y5lGaWq5PVGFl96+BpQlzgNFs1X3ehry7MDP3FmolgUj/qAGQFTE1fcDbThsOt8O22WHAXs/FOOZHd99W+ugVFxX/8eorVbrkf7V2sK7296YdQmqTN057BajVU9xzwEVW6Ei10WpnnTWcyH5D0pnUSuNo/38tW/Tk54DtEtUwn9u3PHud+UmtrwIXJ8rRa2c62z8ZoI5UGJs1awi9/94HKGa61lRSoQZAZnhN3017yt4HRpENTLP970te8g9e/svi/9x1a1yq9Ov91kn02bQTSE2r3VUAMBz8F9bWlt7X1vqeAljt3S2t/f+1zT3p7H83JZ8XIgpxHGIbABhNQepIZakvhjvfwbUCQNJRl3YAKb/e0/9tt7RzlMvGDUP46nt2K/sbbnfn/L8/EE++7YbS0pXVdsJ/P7h/Cvhh2jGkZj0OvD9QreXAYqD7LT/upnf2ux7YEBhOqNmatXMgoxqagDkDOCYAdk7HocBRAzDUK8DfgL9jvAr++qpvZKONAHDfBPOReLQJ5psD27CuEw85NQBqlc2ZsTNR9ImEZS7xidNfCpHHJ06/wwrt94ONTlbJPmOzO7byk6Y+GyKXVIiouCMe6i2nVgBIOtQAyIIV/ula3ok2cc/3RsMGDS7rGAuWL/MJf7q2dOU/H6/FKf+328+62kb5hNYFaQeRmrS2KwCKwD+AB4GHcZ4mFz+H+9PUsZDl6y/xk07qWVMRm982mAWDt6OO9xBH7wM+ChxEeffHn2bnnv5bP/7UF8s4xiqsrS1iVEO+TOWXAtfi/r9Qut6bv/PMuhSx2bPrqevZBY93xvx9wAeA/Vjze5FX+deKR9ZlTKkCUTSepPvlo7grTJg+Fv0M99kJq+TIxccDPwiQSCpFnNsVC/RWMPaXwxQS6R81ALLA/NBaPYumPpejcfd9yjr7//t/Ph5PuPna0qLuZeUcppJE0PAxwuyDFFmV8fhqdunGwCPgfwH7C2Z/YeWQ+9bmAX9NfEzrCuDRvm9XA1jnGZuBj8MYD7510jFWY0NW1k0CWspQe/U2rf9vnNDnd/wDfCbd9ReEOICv78/z/r5vvwWwmTOHsZ4fgseHAZ9mdfvAjb94a2u1HbS6EHg67RBvynnyg+3KwGbNGkJD4hPz7/Px0/8vRJ43eXwhWAcwJFGdyMbZ/Pk/9DFjAt0bL6kzwp3zYtGjwWqJ9IMaANlwcNoByuXonfeINh0yrCzdjWXFlXz/zltKP33g7mp745mc837UAJByMHuc3rMzFmBcgfM7it239h2+NSC8ecq/gNNsftsZvNQwDue7wBaBR5lgs9tOH7DfV2zjw/V57RmM6YzY/uJyP7j45MlLgSv7vmGdHbsRxYeBfRVn394Pqsbl/3apN03VHvA1aVh5FLBxsiIedvYf8KaWxVbIzweOSVaIrVj05GeA3wcJJhXAPxyo0Ct9X4tEBpwaADXOOtvfg9lmaecoBwNOHr1/WWb//7LgBR97w5Wlx15ZkoUl///J+UDaEaRG2fKHYOiHGbndbWnPivWtDihYof1i4CdgRwcsvyGD6k8AzgxYc7Ws0L4DZh8PVG0+9Yzz46amcjiVN099GHgYONMKM0dD6dtgt6aRRQaCT0hY4DXqowuDRHk752dYwgZAb6FG1ACoCTZ7xibURQcEKvf3QHVE+k0NgFoXRe+jJk+qh8O23dF2HT4i6Ox/MY456/674ta/3FJaGWdv4v9Nxh42N79h37VtIsF4Y+sy4Ja0c7yVN7UsBo6xQv4vwFmEuiHH7WsMQAMAt89hQTL/nKap45JepRaKN02+H/hG2jmkPKzQvh/YgQmrXFiuZpU3T/uzFfIPA0kPUf6UzTlzW5/47adC5JIU5aJPE+wGNVcDQFKjawBrnu+XdoJyOWX0/kFP9n7qtVf80Ct/Uzz1jpuz/fDfK6IU75N2CJGB5E3TZuMcS7gH4Pfa3DN2DFTrnZknPUEdjHsY2T2hUh7+JQss+RaJiPMCBHln5iHq54iKxweoI2kzawxXLLonXC2R/lEDoNY5e6UdoRz23WSUfWSLbYLN/l/02EPxe+fPK976wrN68/sGt5p87Yi8G2+e9gvgtGAFS6Ujg9VaDWtri8CS70n16Ft9WyJEys7OOms48JWEVR708VPvChLoHdX9Egjx9+I4a2vTqtsqZoWOg8HDbY90rg1WS6Sf1ACofXumHaAcJu19UJDX7qLu5X7ktb8rjb3hqtLrK/Xed1VWk68dkTUaucMPgu07Nzs0SJ13MnK9rYENkhWxB71pys1B8oisjcE93wCGJqph8bwgWd6FT5i8APjfAKW2YNP6zwWoI2lxvhew2tN9552IpEINgBpm53dsAWyUdo7Qthy2nn1h+50Sv3b/+MyTvv9v5xV//8/HM7/ef7WMPdKOIJIGHzOmRGTHEmLmzznY5s4dlDzVO6gr7Rygyh8C1BBZK9Z7hm/Sw/+K1MW/CpFnLYTZZuB416/yAAAgAElEQVQ2PkgdGXDWlT8K88PCFdTsv6RLy5FqWbfvEO5aqMrxzdEHRIOidd/+v7y4ku/deUtp9gN3x1rv/662TztAVXE+Z4V8mZejDqAcX/DGaZVzj/kA8/FTHrNC/jwg6T7lYcRL3guU5yo79x0S1zAeCJBEZO10tR+C2a4Jq/zBjz/1xSB51mTkDtex6MlnwLdOWOlQO3vm9n7i5CeD5JIBYeeevime+2nYqq6mq6RKDYBaZmyXdoTQ1h88mGN33XOdZ//vXvgvH3vDlaW/L1msZ/81G2Wdbet5c+vraQepEiP6vtWGlXFD2hFSF9fliYrjSb5a7kDK1wDYgKSdXiu9FCaMyNoIcPif27zkOdZyqDFjStbZPg+zpEvAI3LFE4BTQ+SS8rO5bUMpNVwBbBKw7EusHHZ1wHoi/aYtALVtu7QDhHbCbntHGw7u/3NJyWNm/vXO+CNXXFTUw38/5AZvk3YEkbT0Xdv1x+SV4qTXiL0LWy9xiTinyQAZEHZ2xxY4hycss4hNll8ZJNDaiut+DgTYLmjHlnVLkARjbW11FBt+BRwUuPQv/aSTegLXFOkXfdGvZeab47WzB6Auijhxr/3WqWnVUypx5I672JE77jKgr/mSx3Tce0f880ceqM5zBkq2FfBQ2jFEUuM2H/NPJqxRzgbAkOQ398WbBYkisiY5Px5I9gDsftFA31jhJ05+0gr5G4CkV25uRnHJ4cBvA8SSMrHzO9ZnVMNvgE8HLl2kFHo7gUj/qQFQyzzokqXUjdlhl2irYeuvU0djaN0gtlt/wwHthjzz+qt+/E3Xlv70/DPVvOKgdpa0i6yLOv8jpcRVku53fhe+PHkNUwNAys7a2iJGNYxLXMhzFwSI03/GeXjiBgDgjagBULGs0L4D2KXAPmUof4nOgJBKoC0ANc1q6uHtpHWc/U/DZU8+Gu//2wuKVf7wD2oASMZ547SnMZ5NWGbTsi37dZYGqPLeADVE3t2mDYcCCbeV+f0+cco9QfL0V0P35cDLiesYH7ezZ+qQ3QpjbW2RdXWcDHY/5Xn4X475d8pQV6TfquaBStbJxmkHCOWjW25j+4/avOL3Myzp6eYb119ZOuq6K0qLe7rTjpOcWc28hkTWmfO3hBUiViwpz4qsiFcCVPmYzW1Ldie7yJq4BZj9Z17yIOs49NjWbtxDXD0YkSsdH6COBGBg1pn/HKMabsf9J8Cwsgzk3uETWv5Zltoi/aQGQC1zr5k3dKeMPqDiX6s3PPeU7zP//OKvH3+4Ovf7r1btvIZEEkjaAIC6eNMAOf6T2RMBqmxAPOS4AHVEVsvmnjkSPOnhfyuJ6i4MEmhdWd15gSqNtbY2bcNNkZ3fsb4VOo6lkL8H4/fAAeUbzZ+irqejfPVF+qfiH6okAWNw2hFC2GX4Rvaprbev2Ndqd7HId+/8U+mwq+YXn1+6tNqX/K/KrCZeQyKJmCdvAMRlOpPF48fC1PHTrat9uyC1RN6uVPo6JHxPYlztEyYvCBNo3XjT5Ptx7gpQagtGNnwmQB3pB+tsW8/m5A+3Qvs8evwF8PMpz3L/t3Iib/bG1mVlHkdkran7WNOsJq6ambT3gVFklbn6/+HFL/kx1/9v6b6XFtbWg/+bvD7tBCKpK0VPESX8K+42JEyYt3mx52lGNSwBhiestD7OPJs791BvbFwZIprIWwRY/m/zkscIwPw8sP0T14k4AbgieSB5JzZnxgjMDiCKDsD9o1jDB3snxwb0PeVpPn761QM5oMiaqAFQ26q+ATBqyDC+8p7dKm72393p/Nu9ccvtN5V6SsmPCK9YXhurSEQSsfjVxG8YzRvChFmVt7bGVsjfBByRvJp9hNLii23u3KPUBJBQbM6Mg4iiPROWWUhu+FVBAiWVs19T4kwg6Ra5T1nnaVt783eeCREra+z8jvVZyoZENooo3hRnE4xtgO0wtsPZgSjqPWzR05qjsWtYsLw1pcFF3pEaALWt6t/ANe+xTzSkrrL6GM8tfc2Pu/EPpRufe6pGZ/3fwhjQu5ZFKpL7KyRehWTlW03j9kfMAzQAAPgCpcUX26xZX/dJkwJcMSiZl4vGkfyr5cWV0pTyxmmvWCF/GfD1hKVyRIOOA9oCxKps8eLbrZBf11fBRn3fD6e3E7sBkAP6nmL6yr71n+jKeHf2GIMHfc1bp9bQuVBSK9QAqGm+coCXOQXVkKvj+N33qajZ/8uefDRu/tN1pZe7s/K+2HrSTiCSOqt7FRK+hzMv32qaUmk+ddGZQKhVBl+gYcUDdk5Hk4+f+sdANSWDbObMYQzjqMSF3H8ZIE5AfgFY0gYAOONs/vwf+ZgxNbyUEHD2TTvCgHIeIbaP+7hJya+NFCmDinq4ksC8umdvv7HLntGoIUMrooPx6ooejrvx6tJR112RoYd/wL2qX0MiQZSWJT+8yct3kImfNH0h+PzAZXck9uuskL9Qd5bLOhsWfwlYP1EN5xFvbvlLmECBLOi5AXg6eSHfmpcf/2TyOlI57EEGlz7qJ059Pu0kIu9EDYBaZla1J44acOJe+1bE6/P2F5/zAy+9oPirR/+WwWVc1fsaEskUizuAcswifpVc6e9WyJ+rRoCsg+SH/2G/Sl4jLG9tjbFAqxLi6IQgdaQS3EEud4gff+qLaQcReTfaAlDbFqUdYF19drv32C7DR6Q6+78yLpG/947SaXffFpdSO0AmdS+lHaBqGPN8wrRj046RNQbG7BkjyeVGgo/AbCQeD8H6Zh3dhmC+vO+DXyK2FzF/niE9z/vY1u40s4fkE0590Aod54E3lqH8IGAcudIx1tl+CRad7U1Tby/DOFJDbO6MXSH6QMIyThRfGCRQaJa7AI9PJfley8/a2R1baMa4qjnwE0Z2T/MxrVo5KRVPDYBa5rxcrUcATBq9fy7N8R9Z8pJ/4/orS/cuWpDZJ38A3Ku2iSS1xebOHUT88p7E0b6Y7wn+HrAdge2pixr+feqTs8qBffbm//R+yBs/Xt6AFfIvgz+LRX/D4/vA7sf8YSa0POWVcoxUfxRL3yUXHY6xaZlGGITZ18C/ZoX83WBz6B50sQ4LlNUq5Y5L/NfIuMUntPwzSJ7AfPyUx6zQcRt40iZHHTkfC5weIJYMvCVgx3rT1MvTDiKyttQAqGWRL8KrrwOw/6jN7IObb51KcHdnzt/uiU+9/U+l7lIxjQiVZnHaASSbbNasIQxd+UFiPg5+CLAP2GDsjQeKIP9EbAy2Me6jwb4CgBsU8q8bPIzzABF3Ujf0ocSHAA4AP2n6Qus643g8/j3lPwF2P/DzaVgxy7ryl0B8gU+YfmuZx5QqYXPnDsL9mMSvwpiKW/6/qngeWNIGAMDx1tbW7q2tlf8Pjfybcwl1TPHGqQHOgxAZOGoA1DK3F9KOsC6+tfeBqez9X7B8mTfefE3p6qf+UX0zf2UT6X5iGTA2a9YQ6ns+j/FVGuy/iIOdat9f6wEHYByAc1w1PPy/wSdMudIKHR3g0wZoyA1xToDoBCvkHwUuoGTztJw54+KXP4tZ0pUo3ayoD324ZVjFnkuoa/gJMDRhpe3ZbMjHAd26UR3uhmiSN0+5Je0gIuuiIg5ZkzIxezLtCP21zfrr2xHb7TTgr8vL//lYvPcl5xf18P82yyJ1taXsrLNjN+vKz6VhxYuYXQz2ecJdaZc9TVOng/0mhZF3Bk4j509ZIf87K+Q/bW1tep+RRW7JD/8zrvRTTlkSIE3Z+Emtr+L+uyDFYnQYYMXz+zE7hgXdB3qTHv6lemkFQC2L/alqOwPgm3sdENVFA/d+8bUVPbTcfnPpZw/fVz1TfAPFeNEnT16adgypXdaZfz/GqRiH4dX2r1XlcnDLDT+a0hLAv5xChDrgCOAIRtU/ZV0d51HkPK0KyAabe/rmkEt+tZ1bmFP2y82YB3wteSH/vM2ZMcInTtfhu5XFgWvAf+xNLf8v7TAiIagBUMvq6v9BqSftFGttg8H1HLPLHgP29H/ngud97A1XlR5/ZYlm/VfHvepWkEh1sLn5bSiRx/gy5d+rnkne2LjS5s//GoueWARMTC+JbYv7/5Dj+9aVv5xSPNMnTr8jvTxSdqXo6yR/f7mIkcuvCRGn7Bb03MCoIc+Ab52wUj1R9FVgdohYktijwCXk4gu9cfojaYcRCUlL82qYN57yAlV0jdv43feONhxc/lW/xTjmR3ffVvrI5RcV9fD/buzBtBNIbTEw62r/NiUeAY5CD/9l5WPGlLxp2omYjwPSvvKwDudIouh2K+RvsULHEdoeUKtsbPISfkm1XKfmra0xFv8iUDldJZuuh4DTidjHm6bt4k3TvqeHf6lFWgFQ+x4EPpJ2iDUZFEU077lv2d8MPrrkZR9741Wluxb8Sw/+a+KuBoAEY3NP35xi7gLMDk07S9b4hJbzrTDzLij9Atg77TzAB8E/yKiGx6zQ/mOG9Mzzsa1pNygkAJsz4yCiaPfEhTyqjuX/b7DcBXh8Ksmbmu+1zjP28eYpfw0RS96VAw9jfhPYzcTRn7x5yr/SDiUyENQAqHXGA3jlNwC+/J7doi2HrV/W2cCLHnsonnjLdaWlK1eWc5jaYf5A2hGkNljnGftguT9gbJZ2lqzypsn32/y2A1lYfypm06iMQxZ3AiuwvOH71tl+BnU953hj67K0Q0kCUW5s73NVIo/RNLWqton4+CmPWaHjNvAAVwKWjgW+mbyOvMUrwN9wHsB4AKIHGVz3gI+b9HLawUTSoAZArXPuSTvC2vjm6P3LNvu/sHuZj7/52tKV/3xcs/5rLyYX3Z92CKl+VjjjQ1j8v8CGaWfJur4l1T+wQvsvMPsxzuFpZ+qzOWY/Jm74lnW2T6W55WIP8BQpA8vmtTVAw1EBSv2qKv/83S/ASN4AMPuazZ491U86qXoOcUrPEmAxxmJgMc5C4HnMnqLkT0H0DHHxGT9p+sKUc4pUFDUAap7fVunbbD+x1Xa294hRZQl53TNPeuPN1xSfX/p6OcrXLucBb5z2StoxpLr1nfJ/LTAk7Szyb97U8gRwhBU6Dgb/IfCJtDMB4GyF2UV05SeY+7F9OaVadDccAQwPUOnrVsh/PkCdgWXB/p0bQW7554DfBqqXvjg+mMiK614geh3i3uWbg+KlrIxW0NSypCobRSIVQA2AGudNLU9YV/4FnM3TzvJOThm9fy50zeXFlXzvzltKP33gbl3vty4ibk07glQ3O3vm9uT4HXr4r1jeNPV24NDeLRreBP41YFjauXA+DHafFdoneVPLuWnHkbXkjA1UaadAdarZsdRSA2DQiHu8sVH7L0UqhE7gzYKY29OO8E523WhjO3Sr7YLO/t+14AU/4NILinr4T+S2tANI9bLOtvXIla4ERqWdRdbMm6f81ZumjifHlsDJwMNpZwLWA/uZdea7bO7cQWmHkXdnszu2olJWktQC80/a2R1bpB1DRGqTVgBkgfkfwf477Rir8+29D4rMwjz/F+OYs+6/K279yy2llbGe/ROIofumtENINaufASQ/CXztLKD3tpMnged6f2zP4b4I8+XE1k3kywHI5YxS6Y0lyhsR+WA82hr3bcG2BbYDdgFGDFD2itK37We2wdl0dnyUyJv7zglI7wHcGE9p8U7W2Xa4N7dqL1elqvNjgOCr+TIs1/c5bU87iIjUHjUAssDq/4BX3nW6o4YM48s77hpkFcrTr7/qY2+4qvTnF57VfrDE/C6f0Log7RRSnWxO/sNE1lzGIVYA1+J2BXF0g584+cnQA9jc0zfH6/bEfT+cI4ADqfTDVAJycJqn3gjcaGd3bEEdJ+B+ArBlSpE+BkOus7POOsxPOWVJShnkHVjv341vpJ2j5jjHGuS1z11EQlMDIAN8wqTnrJB/iIGbkVsrJ+61b66hLvlL8KLHHopPvOWPpddXVl6Toyo516YdQaqTtbVFjGroohzby4xncf8pcK43tSwOXv8tvPHUF4AXgD8C7TYnvwcRD5ZzzErlJ059HmiztrbT2LT+cNxOBD464EHM30d9z+9s7tz/0l7iCtM14/0Q7Zx2jBq0M10z3s+E6TqTR0SCUgMgO66gghoAQ+sGccJueyd6SFjUvdybbr4mvuKfj2u9f1C5/007gVSpUUM+D75b4KqLcH7EyO5C3zV2Ay/ufoaoIZWhK4W3thaBS4FLrev0PfG6ieBHM7CHBn6U0pKfAk0DOKasiefGapK6TDw6FnQor4iEpUMAsyJXWafJjt1lz2hEw7ofDn79s//0/X87r6iH/+Ae9eYpf007hFQrnxK2nl3DoNKe3jztJ6k9/Mt/8AmnPuhNU5vIsSXu3wJ7ZiBHt0JH9V0RV6NsbttQ8C+lnaOGfclmzkz/Zg4RqSlqAGSEN057ALwSTnYmMuPk0fuv02uvu1hk8m03lA67an7x+aU6D6oMLkk7gFQnK8wcDbw/WEH3n7Jg+Wf8+FNfDFZTgvLGaa94c8sscsN3xP1YnEcGaOROm922wcCMJe8qHvJFQH8W5bM+w+Ij0w4hIrVFDYBMsflpJwA4fLv3RDtsMLzfB2r97eVF/oHLf1n86QN3x1psWCZeGa8RqUalcLOybmd6c8s3vbVVK3yqgDc2rvTmlnks7N4Dty+C31/mIbckVz+5zGPI2nAfm3aE2hcfm3YCEaktagBkiQ3+OXgp7RiT9j6gX6+72J05D94TH3TZL4oPvLRIz/7lYvyfN0+tiFUiUpU+G6jO5SxcPjVQLRlA3toae/PUy1jQ817cjy3r1gCzk+2ss4av+QPXQVwK8XWm5s9YsjlnbksaB0Jmjn3YCu07pJ1CRGqHGgAZ4hMmPYdZqie8HzBqczt40y3Xevb/mddf9U9eeUlx0q3Xl1aUUu9d1LaY89KOINXJCu0bAQckLuS8SK7uBM38V7feRkDLPLoH7YIxHVhehmE2ZHDP8WWoC9Qlv2XABvRwxHRY6evofeRAMCw6Ou0QIlI79A935kTnpjn6lPcetNavucuefDTe/7cXFG9+/mnN+pffKyzLXZp2CKlWuT0J8fXE/Pve+O1FyfNIJfBJk5b7hGntRNHeGH8KPoB5eR6KPA5wzaAPTV6jwpkfk3aEzHA/2qDfWydFRFZHDYCseXHZ1cDjaQy9/QYb2Oe23XGNr7lXVnQz9oarSkddd0VpcU/3QEQT41yfPHlp2jGkSlkc4orRV1lad2GAOlJhfPyUx3ix+5DeGwMohqtso63r9D3D1esTWfKMXtsrAOycGe8Ddk47R4bsSOGMD6YdQkRqQ83vUZNVeWtrbIX2n4L9dKDHPmX0gVHO3v35/8bnnvLjbry69NzS1zXrP2B8JXXRnLRTSBVz9khexK5VE6p29W3rmGVd+YdwLgcawlSu+xjwYJhab4hXJp5sdavpBgBx7hgI8mX6KrBlIQpVJHPD+SJBZu/9GOCW5HVEJOvUAMiiXM8vKDV8Hxg5UENuVN/A0Tvv8Y5P/93FIj+657bSzL/eGceuZ/+BZb/x46c+m3YKqWa2WeKHAfc7w2SRSuYTpl1rc/JHEfE7QjwUxf4BIHBDO/c6JDyGwmp3C4DNnl1PnX85QKknaZr2OQ/USahUVsjfSpArUn2MzZp1sk+aVI4zNUQkQ7QFIIO8sXUZ+E8GcswJe+wTrTdo8Gp/7uHFL/mHr/hVsePeO/TwP+C8BJZPO4VUvfUTVzB0A0VG+MRpVwCzghQzDgxS562GLlsSoEryvxOVqm7p54GNEtcxv6jWH/4BMPt1oEobUt9zRKBaIpJhagBk1dK6szFeHIihBudyNO2x73+81rzver8DL72g+NdFC2v/TUBFsgu9aerf004hVS9AAyAO8dAl1aLefoAH+Rq0lc2dOyhAnTf52NZuIOkBNFvU8KFtYQ7/M78oSJ1KV1ecD4S5xsgiHbwoIompAZBRPnnyUjw+cyDG+up7dos2GzpslTdCzy19zT911fzipFuvL/Xoer+U+EoG5U5LO4XUAk++39mi1wMEkSrhx019DeOcAKXqWPHqVgHqvF3ShlQD554+KkiSCmJdM0eBfSpAqXt9/PSHAtSpeH78qS8C1weqdqjNPX3zMLVEJKvUAMiyISu6cH+y3MOctNf+q7zOLnvy0Xi/315QvPG5pzTrnyazc/z4yWX/85dMWJG4glt9gBxSTaL4N0Hq1K3cIkidVVjy6yhLtkOAIJXF468S4vwo84zd+GEXByqUo5j7WqBaIpJRagBkmI9t7caiaeUc45PbbG97jdjEAF5d0cPEP11XOuq6K0ovd+sMm1QZL1OKNfsvoQQ4vT9eL3kNqSZ9M8ALEheKy3LifvKDUT3aJ0COCuPfCFAkphiF2hdfHXJ+Gcm3lfQyC/FnICIZpgZAxnnT1MuB/1eu+qfstX8O4I4Xn/cDL72g+LOH70t4tLIE4f59nzj9pbRjSK3w5A0Aj7YOEESqjfFI8hpR+BP3zZ8JUOW9AWpUDCvMHA0kb2oYN/qJU59Pnqh6eOO0V3D+EKjanjbnjH3D1BKRLFIDQMDt2+A9ocvuNWKkfXiLre1Hd99W+ugVFxWfePUVLfmvBO53MXLH89KOITXEoteS14h3CpBEqo2TfKm9x+G3j3iIFQB8JECSyuFxmAPo3DK2/L+PebhVD7lAfxYikklqAAjePPVhnI7QdQ/bZkf70OW/Kv7PXbfGJV3vVymKkGv2MWN08qKE4/E/k9ew9yUPIlXHKSauEeUCbEH5D08EqLGznT1z+wB1UmdtbXWYh9h73t23HD57uuuvBJI3SwGcr4S+/UJEskMNAOm1sCcP/C1kyZl/vTO+Z+ECPflXEvOZ3jzlr2nHkBpjPB6gysE2c2Y59nJLZUt+n7wHeqh6K/MwXw+j0pggddK22eD/AjZLXMe40hunvZI8UPXxSZOWg18eqNwoSks+HaiWiGSMGgACgLe2rsD8OEKc5t1Hs/4V5yGW189IO4TUoJKFaAAMZWjpiwHqSDUxdklcwwn/QNnQ8zAh7m43xhnYmj+wwsU5Lf8PwgIefujaBiAi60QNAHmTT2i5F/fWtHNIWXST4+jeGQiRwBoGPwgkP+Az4pvW1qavSxlhne3vAbZJWMZp8H+EyLNK0bGt3UCIujtT6Dg8QJ3U2FlnDQcP8XtYzMjlVweoU71yG/0/CHDuRa/P2nmzNg5US0QyRG+0ZFULe2YBN6QdQ0Lzqd447YG0U0ht8nGTXgbuT16Ifdl0iO64zoqIsQGqPO/HTQ2/BaDXrYHq/NDa2uoC1Rp49d1fAhqSF7L5PqY12CrDauSNjSuB+YHK1dOz8qhAtUQkQ9QAkFV4a2uMdR8D/lzaWSQQ90u8qaUr7RhS44wbg9Rxn22F9h2C1JKKZV2nbYnbiYkLOQ8FiPMOtf3aQIX2ZJP674aplYYozFLz2DO+/L9PzMXBapm2AYhI/6kBIP/BJ7QuwKIvl+NqQBlwD7KsbnzaISQDnD8GqrQh2DXWedrWgerVPJs9u94K+auts32szc1vmHaeNbF5bQ1QdxGQPGtUxhVr9fV/JMQ5AABm37HOji8EqdXfodva6vq2W/T/13a2vwf8/QFiPM2i7j8HqFP9FnX/GeyZQNUOskJH8nM0RCRT1ACQ1fIJU+8EJqWdQxIwXiYXjfHJk8txRZbIqhZ0/xF4PlC1nbBBt1rhjA8Fqlfbotf3AT6N2c8p8S/rys+3rvb/ttmz69OO9nZ21lnDWd5wOc6Hw1QMNUu/msrjJr2MBdsGUIf5xdbVflygemtk55yxk3XmZzCq4WnMfr5uRexoghxiaL/21tbk54TUgL7PQ7hVADoMUET6SQ0AeUfe1HIuxqy0c8g6WQH+VW+cEvxwLJHV8dbWIjAvYMWtIb7RuvJzreu0LcPVrUFRdOBbftSAcyRul1G37F9WyJ9rXe0fq4TDFa0z/znqe+4FPhmmoj/FhJbyXmvqdn7AaoNwO8+6Oi6y2R1bBaz7Jps1a4h1dRxthfabiOO/Y7QAmwMH9Lch1Hd7wdFBgpW0/H8VUcjPhx1dCX+/RaR6VO+hNDIwJkxrodC+OZgOmqka7lg03idM02GOMsD8PLCphPvaksM5Aeq+YV0dl4JfQEP3zX0ntMu/HfgO//9wYBxu4xjV8LwV8pcSxdfw2qCbB2plkM2cOYz1Sl/H7USMPcNWj85xKO99s7nl8yk1/IQQ2xXe4P4V6jjcCvlf48xjkx3+z8eMWeetBtY1cxRe+gTuh9Fgn8EZvppJ+3pyyw4A1n4ZfuGMDwPbr2uuf/P7/cQWHUL7Fj5+2n1WaL8fbHSAalszcsghwPXJa4lIFqgBIO/Kwa27fjwNKzYHPpJ2HlkbPt0nTNVsiww4b2p5wgod54M3Bi49GPevAF9hecNSK7Rfj9nVxH4PdfaoN04Leg+8tbVFbDxkCwb5HsTsTd2Qfcv9nJnQQWvxMVsAJxFHJzGs1GOF/G1gd+HxQ+SiB7HlD3lj67KkQazQvhGx7UXERzE+zDDehzO0DJ+/Hiw6L3TRt/PG1mXW2X4BZicHLj0UGIcxjkVPLLZC/nac+3r3hseLiexlsMV4XCL2OiJbH2wQ2CjMNwc2w9kV2IveP1uwNazUj/gg/WkAeHxMiMX/uOnr0eq4/RLjjCC1Ij8GNQBEZC2pASBr5JMmLbe5bYdTargS+GDaeeRdmP3QJ0z/cdoxJMNKtJHj6/Q+4JTDMLDP43weMyiBFfIvAI+ALQBeAX8d8+U4b7kezjYAy735Q/fhWN8Tk7kRMxJjU4xtGNWwKfggnL6J1Mp9+O+7B7y/B7zVA4eAH4IZxA40YIX8S8CL4AvBngN7Hec1jGLvobDe1yCw9XofRn0DjDrcN8dsW5xtwTZ4c3NhWT9tdpZPmLygnCO8qS5up5Q7nvK9pjcCPo3xad540Tm8+d/RW5/CE6x5cP/A2n7o/2/v3mP9rus7jr8+v0Npi8wFrUxRJ+JcnEAMiZcAAAz4SURBVGKiThPHVLYYweG8spoZNTNe6jkHamCjPQWSnVSn4wCLJJXCTvyDZU7/cHPihXndnGxzRuNQcWZzzqIBFNuuyqWn5ZzfZ3+ciqgtvX17vqe/z+ORnNCkh8/n3dPT9vye5/v5fsvs5pNSVv3BEe70YMNk/gMdrDN6huX9GatXJBk76Pse3Pll6+YL6uT0PR2sBYw4AYBDUtdN31eu2fyqrFz1ySTP7Hse9qPk3XV84zv6HoO21Qs33lGum3lnkncu4baPWXx70Cujur9vXT7o5x/8wv6BF/pZzq/19+/+vc9JJzdpS5I8cvHtQR+Mn1n5516IPvCfstQftzuzcuk+v+q6y+4s1125JalTS7XnsVHOKkk5pIQwXP3KpD786PesN9fJy7u64/1IqRduvKNsnfnHlLyog+UelrL6/CR/1cFawIhz0xAOWb1oelf2zJ2bki/0PQu/4Ko6PnWcf3HKyFhzxkwO51JjjkI50Pn/UVWTMlnfuPHug79rl4YzSe5c2j0794hcO/PUQ3rP2tGd5V3+/9AG5a+7W8zTAIBDIwBwWOpF07tyz9h5ST7T9yw84O11YuryvoeAn6hr1y6k1Ncn2dX3LCOv1kM5/z9CytV1YuOHl3rXOrHp/5K8Zan37dzYwY/x7Xvqxgs72G1PSv3bDtYZXcPdf5+kqxty/k6ZnfnVjtYCRpgAwGGrl1xyb1bPvSrVP+z9qven1nV1YurP+p4Efl4d37QtGbwsye6+Zxlxz+l7gCVTy025a/dlvW0/MfXxpLy3r/07cSj3Aahjr0sX59JrbtoXTjiAxTP79UMdLTfIfOnmsY3ASBMAOCL1DdNzmdz02pTizHkfSu5Ozfl1ctMNfY8CB1InNtycMnh1kvm+ZxlF5borzkhyat9zLI3yiZy0+/w6Pd3v59Lq3euTenOvMxyVcgg38h28rpOtOn3W/QireV9na5X6R6W7e4IAI0oA4IjVpNbxje9IresW7xDNkqj121nIC+rkpk/0PQocTB3f8LEMhi9PssRnthtQm/nu//syv/oV9Q3Tc30PUt8wPZcTV74iyX/2PcsReuK+S/z3q/zllc9O6pkd7LMrq/Z8vIN1Rt+jnvTZJHd0tNqTc92VjR0LAg6XAMBRq5Obbkgde36SbX3PMvJKbkrJWfWCqW/0PQocqvrWS2/KQn47/o7o1qCM+hf6e1PK+jox9fq6fv2yicz1TRfvTJk/J8ktfc9yRIZjB74KYNjVzf/yoeUQbI4Hde3ahSTv73BFNwMEHpIAQCfq5IZbMjZ3VpJP9T3LiJpPzZ9mfOqVzlRyPKoXTn09Y3lGkuuSDPueZyTUkX4CwJdS6nPr+Mb39D3I/tTxy29PnXt+Uj/W9yyHrZT93gegfHDziUle08keLv8/TGMdPg0gf1i2bFnZ4XrAiBEA6ExdN709E1MvTepkkvv6nmd01NtShi+qk1NXHNLzm2GZquumflQnpiZT8/wkX+x7nuNf/XFGL6ZsT3Jh7pp7bh3f9B99D/NQ6uT0PVnzpFek5NIkx8t3uxcO+DPbV5+XZE0He9yeH+z5XAfrNKNOXPK1JF/taLlTMrb7pR2tBYwgAYBO1aTWiU3vTVl4Xmpn/5g1qtaU3JC7B8+q45f+a9/TQFfq5NS/1Ymp56bkxUnxuX2E6sTUeanzpyd1U1K/1vc8R+n7KfWS3Dt2ep2YurZOTx8XYaOuXbtQx6euSMozUvL5vud5CLen1ndkLGfUiam37fc9ameXjn/gePn9W1ZK7e4qgOIYAHBgJ/Q9AKOpjl92a9m8+bdy6qqJJG9P8rC+Zzqu1Pqd1MGF9YKNn+57FDhW6vjUJ5N8smy96hkpwzcmeW2SR/Q8Vhe+m1puTcnXF1+Yj92aEx7+zWOxUZ28/HtJZpLMLD4VoLwkye8nOTvJcr8MeCEpn04d3pCT9tx4PJ8ZrxMb/yvJ2eX6mXOTXJaaF/Q9U5L/SfLh1NyYR53xhX1nzferzP7FmpS8pJNd68Dl/0difvCBjNWZdPEIxuTF5fqrT63jl9zVwVrAiBEAOGb2Pa5pS5m96qYsLFyTlHP7nmn5q3uSck32rHxXvfhiz09fKqV8NMkvH9Uaw3ypm2HaUyc33JLkbWXLlg0Zu/fslPJ7Sc5L8us9j3Ygd6dkW2q2JfveatmWMrwte1Z9u1500a4+hqoTm/43yZYkW8rWzScnq89J6ktS8rtJntjHTPtxT0o+m1o/kbLw0Tp++e19D9Sln0atmbNSsjbJy5KcsUTbzyfli0m9KcPceFg3i10Y/kZSbjzqCWrdue/PM4epXrjxjnLdzExSntzNivNPTXJ0AaDkG6nlg0c9yimnuCJkKZX6lWRwdL9vpd7b0TQsQ6VWR4pZGuXad70wg7Grkzyt71mWqY9nxdgf1zdf8p2+B4HloLznytMylmcn9TlJfjOLQeAJOTbx+t4sfrH8g6RuT8oPU/ODpN6VwWB7hsMfZqzcmRNO/F5908U7j8H+x1TZ+s7Hp5xwdpKzkjwlix/LAz4OriN7k3wrqV9JGXw5w/rlPGruy3Xt9N5jvO+yUq6deVpKOTslz0ypz0rNmUlO7GDpO5LcmpJbksHNGd73uTo5fU8H6wIwwgQAllSZnV2RhZ1vSs2mlHJa3/MsE/+SDKfrxKU39z0ILHdldnZF6o9Oz0J9XAb1V5KyJsPhmpTBqpThL6UOfi4O1PuS8pNHyP0ope5KsiMLZUdK2ZEThjuTue113XRzNy4tWzefnMHKJ6cOHp/kkclwTVJOXfxxOTmpJ+Wnxwgenp+9NHnf00jqXJIdqYPtKdmR5Pspw9uysOLb2X7P95wF/0VldnZF7r/7tIztfVwyeGxqOS2ppyRlZepwdcpg1QPvXIdzKYPdKdmdOrwztdyZUu/IsG6rF1y6o8dfBgDHKQGAXpQbNq/K7lVvSeqGpDy673n6Uf89ydvrxKbP9D0JAAAw+gQAelU2bz4xp656dZI/SRtHA4ZJ/iHDhffUCy77bN/DAAAA7RAAWBZKUnL9zDkZ5s0p9bykrOh7po5tT/I3GQxm61s3fKvvYQAAgPYIACw7ZetVj05ZeH1SXpPkzL7nOXL1/iSfSfK+zD/sI3X9+j0H+z8AAACOFQGAZa3M/vlTMl/WpuTlSZ6elNL3TAcxl9R/Ts3fZc+ej9SLp4+7u4UDAACjSQDguFFmr3lMFvaek9RzUvK81Dym75myeKb/myn5pwzrp3LCns+3eDdxAABg+RMAOG6V9179xMwPz9r3jPAzU/P0JKcc213rbUm5NaV+NbV8MXvmvlAvmt51bPcEAAA4egIAI6Vc/+7Hps79WurgCRmUJ2Q4PD2lPCKpj8zis61PyeKzrFckOTmpNSmLL+BL5lKzMyU7UuvOpHw/Nd/NWNmWZFv27v7vun76x7394gAAAI6CAAAAAAANGPQ9AAAAAHDsCQAAAADQAAEAAAAAGiAAAAAAQAMEAAAAAGiAAAAAAAANEAAAAACgAQIAAAAANEAAAAAAgAYIAAAAANAAAQAAAAAaIAAAAABAAwQAAAAAaIAAAAAAAA0QAAAAAKABAgAAAAA0QAAAAACABggAAAAA0AABAAAAABogAAAAAEADBAAAAABogAAAAAAADRAAAAAAoAECAAAAADRAAAAAAIAGCAAAAADQAAEAAAAAGiAAAAAAQAMEAAAAAGiAAAAAAAANEAAAAACgAQIAAAAANEAAAAAAgAYIAAAAANAAAQAAAAAaIAAAAABAAwQAAAAAaIAAAAAAAA0QAAAAAKABAgAAAAA0QAAAAACABggAAAAA0AABAAAAABogAAAAAEADBAAAAABogAAAAAAADRAAAAAAoAECAAAAADRAAAAAAIAGCAAAAADQAAEAAAAAGiAAAAAAQAMEAAAAAGiAAAAAAAANEAAAAACgAQIAAAAANEAAAAAAgAYIAAAAANAAAQAAAAAaIAAAAABAAwQAAAAAaIAAAAAAAA0QAAAAAKABAgAAAAA0QAAAAACABggAAAAA0AABAAAAABogAAAAAEADBAAAAABogAAAAAAADRAAAAAAoAECAAAAADRAAAAAAIAGCAAAAADQAAEAAAAAGiAAAAAAQAMEAAAAAGiAAAAAAAANEAAAAACgAQIAAAAANEAAAAAAgAYIAAAAANAAAQAAAAAaIAAAAABAAwQAAAAAaIAAAAAAAA0QAAAAAKABAgAAAAA0QAAAAACABggAAAAA0AABAAAAABogAAAAAEADBAAAAABogAAAAAAADRAAAAAAoAECAAAAADRAAAAAAIAGCAAAAADQAAEAAAAAGiAAAAAAQAMEAAAAAGiAAAAAAAANEAAAAACgAQIAAAAANEAAAAAAgAYIAAAAANAAAQAAAAAaIAAAAABAAwQAAAAAaIAAAAAAAA0QAAAAAKAB/w/iRyfuW9D9FwAAAABJRU5ErkJggg==;imageBackground=none;imageBorder=none;" parent="k2kGGla_AJdaGIRQjZgb-21" vertex="1">
          <mxGeometry x="10.5" y="0.8999999999999773" width="164" height="59.1" as="geometry" />
        </mxCell>
        <mxCell id="k2kGGla_AJdaGIRQjZgb-30" value="" style="group" parent="1" vertex="1" connectable="0">
          <mxGeometry x="540" y="388.5" width="185" height="60" as="geometry" />
        </mxCell>
        <mxCell id="k2kGGla_AJdaGIRQjZgb-28" value="" style="strokeColor=#dddddd;shadow=1;strokeWidth=1;rounded=1;absoluteArcSize=1;arcSize=2;" parent="k2kGGla_AJdaGIRQjZgb-30" vertex="1">
          <mxGeometry width="185" height="60" as="geometry" />
        </mxCell>
        <mxCell id="k2kGGla_AJdaGIRQjZgb-26" value="" style="shape=image;verticalLabelPosition=bottom;labelBackgroundColor=default;verticalAlign=top;aspect=fixed;imageAspect=0;image=data:image/png,iVBORw0KGgoAAAANSUhEUgAAAgAAAACACAYAAAB9V9ELAAAACXBIWXMAAAsTAAALEwEAmpwYAAAAAXNSR0IArs4c6QAAAARnQU1BAACxjwv8YQUAABknSURBVHgB7d1dcttWsgfwBkjndTQruFTFvq+RVxBqBbFXYGoFUh6nElmwdVN5tL0CyyuwZgXirMDK61gpYVYwfo8J3NPAoU1TpEgA3ecD/P+q6HFNZImiKKBPnz7dCUHtNtujIp1QmfxIVB5QQntUmsdcQp/MH7n579fmv/+THp5eEgAAQKQSAnPzPz+mosy+ueFvklBO6YND2v9HTgAAAJHZ7QCAV/2zwXuzoh9TWwOTNdj/9R0BAABEZHcDgNtsZFL+V2bVP6KuyuSQHp1OCQAAIBK7GQDU+/0fRG7+rNoOKB7TfvaJAAAAIpDSLirSM7GbP+PPNRu8JQAAgEjsXgbg5vyJuWO/Jw3YCgAAgEjsXgYgKV+RlrREFgAAAKKwWwHAzcuJaOp/GX/ujy9PCAAAIHC7swUgWfV/v080KPZREAgAACHbnQzATLjwb709mg31thkAAAAE7EYGgFf/s/SWXEJBIAAABGw3MgA+jugldEYAAACB6n8AwIV/XVr9tma+JgoCAQAgUP0PAHyuxPlrc9dBAACAwPQ7APjz3FXh3zp79DnFVgAAAASnv0WAPgr/1kFBIAAABKa/GYBZQCtvFAQCAEBg+hkA3P52YP6cUDBQEAgAAGHp5xbAny9vPe/9rxJuh8Db30df/r7/j5wAAKD3htQ32v3+25sXBP5MvvHJhNlgbP52TEl5QLO/vp5UuHlp/kim5v+/Nh/zjv73l2sCAIDe6VcGwF2///aKwWOvN9Xb82Mqysy8RtsdT0ySayrLN/Tw+QUBAEBv9CsDUKTHQd/8WVrwnIBDcq0KjgbvaVYeNPp3ZfXxb+nm/36kweAFtggAAPqhPxmAkI79bXbkdEXNRZHF7GrrVf86CeWUPjhEEAAAEL/+nAII6djfJi47BFYrf4GbP+PsSvHXFbobAgDErx8BQNXvP6RjfxvwjfRz4uZYYF0TIXfDrp47uhsCAMSuHwGAZqOdhHSO7SXJ2TfH7zRotUJO6IQ+no8JAACiFX8AoNnvn/e8S8Vje7PPemOKOfVPpV6WAd0NAQCiFncAUN/kJqSlpBd1sV4yJRXcIVBpJc01EZKp/zvQ3RAAIGZxBwD1TW5EGnj1P6/UH8yOSEtavhUvqqsCIwc1ERh3DAAQrXgDAO2bHB93m9vPzFZA+YI0aBQE8nl/N/acFTMCAICoeAMArm5Xk17cOes+LF8rFgQeixUEVq2QGzb76cJFMSMAAIiLMwDQ7PfPN3nueLesHuKjkwXglbRUQaCP4jzNYsaeK2X81zyuzGNCATLPa2SfnwTFwB9gt8QXAPCes+ZNrijfrO109/3z10EXBGqeiLiXYjEjbIPrMMbm8dbcIG/5hkth4S2pMQFAUOILAIrBsWrh36Oz7N6PKdWyAN0KArkmoiwz8kWjmBHaGJnHlQkCQvpZuNuSAoCtxRUAaN/ktrm5Pzqdmg98Qxq6FAT6boXssrshbDIyD/RpAIB7xRUAqN7kTGp/2wE9AxOEhFQQyMN+QmiFXD13ZAECcVK6LAYFgOjEEwBo9/sfDLc/669fEPiq0b8oZq6O/W1invuw2XMHTfhZAMBa8YwD/vPlrV6BW3pBD39t3uxH8zmVyWG93bBBHRiFVYW/7XOH6hQA6XqaJMkleST8PU7N93NIABGyWblj6u4P83vwmjoaUgxuz49pplTZXM24H7RbzRfJESVKx5K4qM7kGu79mGrUL3Hlf1jqUxpTghC8MhcdvmnqbFkBQBO8RTqh7qbm0TkACH8LoLrJKQ614cK/dcf+NqlWuUrHAjmzsKnXfjF45ufY3ybl2GYmwL+ReaA4EwDuCD8AcNXvvy2eE6BWEHhPr33fx/42e4WCwGAcB9gbAAA8CzsA0O73XybdR/3ynIBC6VjgfUV1vo/9bYY5AeHgQAzdGgHgG2EHAKpDbbjw71SmOKqeE5CTimJyp8vezfkTCuHY3yaSMw6gq7HJAowJAMAKNwDQHmozaFn4twofC5TIJqyz3Po4KWM53rWHOQFBeRtYh0AA8CjcAECz3z+P9m1b+LdOlU3QnBNgCwI1ByGpwJyAgIwIBYEAYIUZAGgOteFUPafsNQxS3SwAd/xLImzxWh9phDCgIBAAKuEFAC76/ded/OTt/3KtNieA0+nc8U9t9a+VvaDtjjSCK7wFgA6BABBgAKBZ3S5x7G8TzTkBqschTw9Vg4D7jjSCa09QEAgAYQUA9V7xhLSkD/RbiOrOCdAxn4JYqj7vPfoc/NHFXYIsAMCOCysAUN0rTi/EC//W+f75a9XVtKjk8ktWRHPUcfWl6AQFgcE4MFkAbMsA7LBwAgDN6nZOyUse+9tGGUkWYDD8tnBRcwuDxVjE2F9nOBYIsLvCCAC48E/zxsCd+lyt/ud4NV2U7yhoK7Ii6lsYPCegamQE/vHNHwEZwI4KIwDQ7vf/6CwjHx6YFKvmaroLfl3WZUV4CyNJrkkLNzJCQWAoTlAQCLCb/AcA6v3+PabieTVdKO6pd7FpCmJBej0NONjDnICQIAsAsIP8BwCzgWI18kKBmy+cfVCbE9DSNschNUcdV88BcwICMkZBIMDu8RsAVDPjS7394OUCN1+K5IhCsu3z0Rx1jDkBoUFBIIC+nyggfgMA1Ypwh8f+NtFeTTdiXpfq+WxBd9QxYU5AUFAQCKDItuCeUECG5EvV71+pJzmnuNOBv73/VXg1XaQfzP6331VW0+OQPDehSJ6pFWmmVUOaxwQh4ILAd4lmAWggbLZj699F85rkFICmz3uuzfMXmBnxyXxdp0XQbV+fFbZ67g2+3jOqB3FJXf/3JGZ6JOQDF/7p3gyPvO/9r/LxRWZ+E/2tsngKYpsTEdWxvfI9aSnpZ3r0XGdAU+DML3FJYZmaC59ox0zh71Hk+dmTD1fUTM5f3zxeuA4I7MWet8zG1M6hec7TJv/AfE3+nTymbnJy8JqZ58pbyfxcx9RdTvXrlW/6QPN1J1T/XKLkZwugPvanc/N30e+/LV5N+yoI7HIcUnXUMWFOQFjG9mIKd42oTuHemtfIWSBvb/4crIzJrYyo8/VqRPVr9kGr0NT+LHiBMiYZzgM8X9wHADzSVvXYXxJG4d8qfCzQ1/PrehxSc9Qx5gSE5hUKAjfKHJ6c4Jv/iByzKXCpAuZqCqX0a2Y+H6/6M5JzYb7vC9oR7gMAHmmrJr2oV6sB015Nr8J7ul2zIrqjjus5Af+ugkPwb0T1fiXcT/3khN2qGJEndttA8vf+rBSq/bKfJyM5OcU2yK0jtwGAZr9/Ngis8G8d3dX0XenwKUnQnhOQFphQF47jUqtItz/45j8hXSFsx2REYluX/JpJ7Zm/JRLdSt6Z1P+cuwBAu98/F7iFcuxvE+3V9DcEj0O6mBOAY4GhkLxQ99kPpMv7VozwVgDr3HjKpv7HJGenUv9z7gKAIj1W7fc/LOOqItdeTbP7+v23pT3qmEdCoyAwFGPMCQAW0laAQupfeWETLjcBAK/+S8U9xaqvfeb0vGln6qtp4n7+OlMQNecrYE5AF7l5XJMsZAFgLiPZrYC2W35I/QtxEwDMFCu8Qz72t0la6BUsVsf+lM7W150NFZ875gR0IF1fMjIrroxg5ylsBTxpeuRUIfXPfSXiyh4L0g8Aqn7/ioUy6QPRpiVOzQZ6qyvtKYiD2c+6cwJmOBbYgk3VTknWMY4FAlPYCni77XtLIfXPwprT4ph+ALAr/f6bqgchjUkFH4dUzoqozwkoJigIbE36otYlXQv9k5HsVsC29wik/oXpBgBVv3+1wr9P0Rz7W0UzMHL1umh3NkwwnKYNe1GTfg9MUBAITGEr4GTTe0sh9Z+b7yOjHacXAHDhH1V9knXw6jPW1b9mYEQOXxcuZFQddczHAl+iILAd3teU3qJBQAYVl1sBSqn/eLeOBekFAHW//xFp6NLX3jfNwKg69ved24IW7VHHmBPQil2lSWcBOp/fhl7JSG4rYETrA0yk/pXoBADVTU6z33/EZzY1A6PqOKSHrAiPOtazh2OB7djq5inJUm9/C3FwsRWA1L+uIWko0qZjNhtILunh6QXFiAOjmVJgxKv/7z0dh+SCwJsXJh2YdB0duhqPUL79Pd6CT784WB6TnHnRVrhDt8AZ3gowN2neCpD63eetgMccXESS+p82/JwHJFNQy/0+Ov8OygcA6v3+h/FeeIrBe16m63xuzb34LXBnwyJ5pjbmefaZ04DYt2vIXqDfmb8+Izm8UnuDNCpYmXn8RDJDi0b0NcAMPvVvP1++7ceb3xsS8snWYXQiuwXAe7U49rdaFRiVStPuzOtS7cV7hDkBIeMtFOmCQHQIhIrSVgC/v8YkB6n/FWQDgGKg2+8fx/5WC+V1wZyAINkLtHTPBswJgC8UTgVMSBayhyvIBQBVv3/FlqG+CtwkaB77C20KIuYEBMmufnKSheZAsCgj+feYBGxXrSEXAKDf/2r1sT+dm1aIUxB5K6Ko9px1VHMCkAVoSbpO5ADHAmFOYStAQk7yhYS9IRMA3JzzQIcJafFd4NZFfexP54YV6hTEB+amoDonYIiVZws2TXtJsnAsEL5Q2Aro6sgGJrCCTACQlIoX5AAK3NrS7IcQclak6hCIOQGB4upqyQsi3/yRBYBFGYWxFXAhUSnfZ90DgNvzY91jfxEX/mn2Qwh9CiJ3asScgODYvVDp4OzYntkGCGUrICeKuGGcI90CAF7hFop7gKEVuDWh2g8hkuOQ2nMC6lHT0BzXjeQkp8lEN9gBAWwFoN3vFroFANr9/kMrcGtiF479baI9J4Cr0FEQ2JjSCg3TAmFZRn62Ajj1f0GwUfsAwEW//xAL3LaxS8f+NsGcgCDZFdqUZCELAF942grICan/rbUPAKq2tkpiP/an1Q8hximIPCeAgxYt1bHA30cEbUi31ebmQE8IwPKwFYDUfwPtAgDVtrYUfoHbfTT7IcQ6BZG3clSPBX5GW9oWzIWSB4pIX5xf4VggLMnIzVYAUv8NtQsA0O9/NdVjf+ZiHWtWhLdySs3pcZgT0EFGsscCR4RjgbDA0VZATkj9N9Y8ANDc346937/qsb/hU4pZFbwozwmAxuzFWfp37hhZAFjkYCsAqf8WmgUA2v3+uYUsjv2tEHFWZJH2nICPL7HybMFcOPm0zTXJwbFAWCUjna0ApP5bahYAaPf7j63AbU5zDHLsWZFF1bFAxQ6B/DPAscC2pLdoTtAcCBbZbJP0+0x5DHm/bR8A1HusE9ISa4Eb0xyDHHNWZJVBmakWBH5OsfJsQWlOALZlYJlG23j0+m9p+wBAdY/VpLhx7O+umLMi69S9HRSPBdIJCgJbk54TMEZzIJgz7wUOzkckC9tNHWwXAKjub1Pc/f5x7K+575+/xpyA8CjNCcDkRiC7HZSRjhMEmu1sDgB4hat6QTV7wjEX/qltiySX0WZFtqE+J+AcDWnakZ4ToNcvBGKid0KqhkCzhc0BgHa//8F3cfb71w6MBkPFc/MB0J4TwCOqURDYmFKhFuwwszo/JlLMINcOSs0Taj11fwDgpN9/pKt/zcCoL8f+NuE5AVoFgfyzwZyAVkwQwMWAUwLoSDn1v+ys1OxQ20P3BwCzgV5aJeZ+/9wMSa3jX4+O/W3CcwIKzWOBmBPQAY5WgQS+h7jMxOHkSQPrA4Bqf1txsIfqHrAi3lvWTDXFnBVpo54TkJMOzAloKYB57lD7G0XKrMYn5n9c1+JgK6CB9QGAdr//ag84Mre/HZi9Zb0bSsxZkbaqOQEJ5gSEKSOcsfZNavXs9OdoU/++TuNgK2BLqwMAzX7/LMYUN9/8i9mVeV300lmqN8KAPTy91J0TgArhNpTmBIQiJxl/pzi4DuQ0zvw3gd/5LdwNAKrCv1KveIpnw8eW4r49P6bZ7IPqzb9qhnQq3YktHqpzAsxqAHMCWlGYExAKqRtiFCl6l4NybOp/Qn5xEyr8zm9wNwCoq9t1bnSxdbbjY2R/vnxFs1L/qOKuFP6tgzkBIetdZspmNySCgBHpGlF3OTniOfW/7CzAeRQ5yRC5ln0bALg49hcLLoIs0lvznPWjyBizIhowJyBItiBwSv0jkdnQDipH1F1O7vhO/S/in01fi4BHJODbAEBznn2SXAdf4Fav+E/M45b4jVOS/oqRsyLD7y4I3MwJ+PdvKA5qh0/t9K0g8A/qbk+r4Eywva3E97lRIKn/ZaFtBUj9Du1JZDe+BgDa/f7T4VMKEd8Q+KZ/c35lV/yvVF+HZbt27G+Tak5AorfnnBYoDmpBaU6Ab1LvM62jblKfd0rKzM0o5KE8wWwF2K0nKRPqKKn+5NQ/r/41W/7yWFvf0uRv5o89qt6sVdQ+Iq+48O9XnX4InM2ItRNekv6g2oOiTA5DOYZqLkwlycnNBWaflNiL/Afy+3szNd/jIQmw389/qbtP5jmJnwYwz48zkSPq7u/CN547zHPlwFrqepNTXXfynuSIvW+6Evy58s90v8vPdlj9WQyekWaExIFFkviPDqtLbUFB4KAoVSz8KwbHlJSR7nlL3hNX4NHWt9lju+UAW+ILTcn1Kj3ZV7Xfz9T8dUzdcDo2M58vIyGCo3OnDm7+IyLRWqkX3I7avtekrmHVVoA91eIbZ55G1N0869K6SDdVnWcP62mm/vEzvR/mBLRmLqAX1K+CwH+SjDOpPXvzeZ6RXP98F5lXydqxC/seIxtQSW4HhrIVIFmTcWKDxVZSk/rXS7XCahzZahZEzlDtvlE1JwDHAlvq05HVC5Jz1bXgzE7OuyA5U1IkmKlgOd19b3HtmFjhHIWRvZqSrIy3FWwRZiNJVfxGYtWmsAkXuH1/+pi08Op/lt4SbCF56rv5Ukw1AIvM0+ZU6jG5J76Xa74XXsGOSc6U6jT2dNt/YLMH/HpKLsh4Na02c8WupiWvNUfz1f/S1+GgSrJ492efWwG29oRfN60FyJTqoGlj4DQ0IcCe9pYrWNW+v/JpiGLwnvAD3U6S/GT+9BoARCwzD05V9yGLwqvOMckZU73nzBfgKdUr2//Q3QvyyDz+x378iORpp/9VUv/L+GZtXkv+XR2TDN4KuHTZHXGRrT3hrY0x6Rhv+4FDwtAEN6qb/4ND1SN/1VFO/Dy3VhZjglbsRYyPBUa/3cQrdaFiwGUcHPnaYp02yUA05SD1v4wzGXwCRSLgnG8F+DwVwL87Y/IsJdDH3e3SwVP18/5J/Bdjx0YErdkirZz6oU91DUw79Z+RnBebVuP2v0v+jHw3CJpSAI21EABoq2/+ZuX/i15zG8YDi0rc0MA5tRuNS3a13JdGRxfK6W3J8/lrU//L7L79lOR4OxVgj2Z6f78hANDk7ObPjZww+aoF9AHoqGdzAjKKP6ORk2I2w55SkNpmzKn5c5VsSe37VAAHNF6vQRwA5ATy6j3/x+o3f1ZPcBwRNJTo/2x2g+RF2Ru7Kos9o3Gktfr3kfpf1qetAPt+87r1lJJyl6idxEf9tAv+5rQnOPZZWUo1gdlpfZoTYDMasdYDNDp62ALXGEmd+tg69b+sZ1sB0t9LIymVxb8IBJVvKJ0dOhvwg6Y/7Q0f4AigHO/pTCm2uNH/7JJm3ki2Il4mPOkvp+5BVp+2Arxl0EwAkOIiKKGaY8+NZc5OnPWYvznnI0YTghbSC0xhlGPTma17kgeI08KxbBHxkT+1NLZdHUsuNBqn/pf1bCsgp7rjoXNpPRVNNW20A5JLSot9513lkhKjbdsaDGJN8warT3MCbEDD58RDXyC9czDlTvLMf+vU/zKbPpf8+fjcCpiSh/qT+hTAYHZUr2ChGfND49GyD0+fOp8sVzX9QeFfKzyLAat/Lb0JrDgIMA9emYX6PfFKekKKAkz9L+vNVoANjDiYc3YvSb787fa3AypmV+amIlXk0WMcrZXvVAf63IeH2BTpBwQALfDN/9FZRoGIdRbAfcy3dEF1m2ANXua62179fHMYkX851dX+U1JkV8Pc7ndEMo6kVv+LzPPkrVDJ3gRPeRwxeaLwuq/1tQ8AH1dLi8fV8TVY48uK/9DbzZ8VAzT9aYozXKXZow7o5t9jvJfaq4wi32xtcMUr2Jz8mB8be6x987eCTP0vszdryVMob+3AHi+4JmDhvab7tVb+vx9fZOZZoLq8wjf94l80LF87T/Ovgml/LZif4WB4FGLaXzgDcG0uHHqTJhtQmOA25yUDsMiu0MYke4O8z7xr3OvE0bFtm/GQGvaTUx20qD13e8PmWQEjknFpt3+8Wui9wMOQxIOSZO1/4RvNX0lGaaKVygtVTkk6NcvsP0xG5CKIm/6im5echpwQbIGDNxNFV4WuYRIOAFTHvzalFAR4DwAWlfXwrYl5/ECyw134usNHES8drfa/EL6Z5uZxmDiYvKeQOve6FbBoIeh8RoLvs2TjR1RtZtMnJvX9EyXmzR5/jUBe/cnRaMl/L/5D/OYszWMwmwZ3w1+E1f/96qOYeZWx4eOtAd/45wQDgCnVF6yg3r8LK5gfSebCHFQAsMjeOA/sY0R1ULBnH6MV/+TTwuOa6pHBOdXfY06e2El/GXXjPGsxZwNPvlEeUDf8vPcD/J2av8/G9PU9NqIWv1//D92b4thMDv52AAAAAElFTkSuQmCC;" parent="k2kGGla_AJdaGIRQjZgb-30" vertex="1">
          <mxGeometry x="12.5" y="9.5" width="160" height="40" as="geometry" />
        </mxCell>
        <mxCell id="k2kGGla_AJdaGIRQjZgb-34" value="&lt;b&gt;MongDB &lt;/b&gt;Atlas Cluster: &lt;b&gt;InteractiveMaps&lt;/b&gt;" style="fillColor=#f5f5f5;strokeColor=#666666;shadow=0;fontSize=14;align=left;spacing=10;fontColor=#333333;9E9E9E;verticalAlign=top;spacingTop=-4;fontStyle=0;spacingLeft=40;html=1;" parent="1" vertex="1">
          <mxGeometry x="810" y="130" width="630" height="760" as="geometry" />
        </mxCell>
        <mxCell id="k2kGGla_AJdaGIRQjZgb-36" value="FastAPI" style="group;align=center;" parent="1" vertex="1" connectable="0">
          <mxGeometry x="960" y="230" width="185" height="140" as="geometry" />
        </mxCell>
        <mxCell id="k2kGGla_AJdaGIRQjZgb-37" value="FastAPI:&#xa;    Users&#xa;    Satellites&#xa;    Locations&#xa;&#xa;    &#xa;" style="strokeColor=#dddddd;shadow=1;strokeWidth=1;rounded=1;absoluteArcSize=1;arcSize=2;align=left;verticalAlign=top;" parent="k2kGGla_AJdaGIRQjZgb-36" vertex="1">
          <mxGeometry width="185" height="140" as="geometry" />
        </mxCell>
        <mxCell id="k2kGGla_AJdaGIRQjZgb-45" value="" style="group" parent="1" vertex="1" connectable="0">
          <mxGeometry x="860" y="229.99818181818182" width="90" height="150.86181818181825" as="geometry" />
        </mxCell>
        <mxCell id="k2kGGla_AJdaGIRQjZgb-40" value="&lt;span style=&quot;text-wrap-mode: nowrap;&quot;&gt;FastAPI&lt;/span&gt;&lt;div&gt;&lt;span style=&quot;color: rgb(153, 153, 153); text-wrap-mode: nowrap;&quot;&gt;Collection&lt;/span&gt;&lt;/div&gt;" style="text;whiteSpace=wrap;html=1;verticalAlign=middle;align=center;" parent="k2kGGla_AJdaGIRQjZgb-45" vertex="1">
          <mxGeometry y="78.1345454545455" width="90" height="72.72727272727273" as="geometry" />
        </mxCell>
        <mxCell id="k2kGGla_AJdaGIRQjZgb-43" value="" style="shape=image;verticalLabelPosition=bottom;labelBackgroundColor=default;verticalAlign=top;aspect=fixed;imageAspect=0;image=data:image/webp,UklGRrAMAABXRUJQVlA4TKMMAAAv5MBMEOfkOrZtpdn3XtzhjxYy6b+F9OLuglOD40aSFCm6Z/aYwX9DzqL9H1M7jiTJiRKtwTSsxxB4iRPtJrZtV1lUVMlBlIGZLJSeQcOTcD45vf/WASzsTQAV2gzooUGDL/TQwx8q/KFChR4aVPjBH/4NhAf8IA2EQKA1gAgDCLQGQjcOQBqZoDj5YaZwA4MFLjTxChI/kD9uw/5oooHwsb+hNvyg+RWCQBMtN4fRv4dLJEz1V9BCh/CD5lPwQpQpQdMDOggEAgUKFCgQCOQb5SX9ZBEEkjiFYhyBQIFAoLzKOTqvq02GO3Rk16mqoIvOIXCWnby4Ljv5ovdYtmzZC4t1r703k7qFh+tpEy07PprAFp3V5bAbL/fbYzee7tfH4/a4X2+/2+ONz/tn2b7HpBA2YbfmKGjbhknKH3Z3IETEBABSVRu1ZQCmmkeLZWnbGkuO/vou4F+xYkEHKIkWhKClBKlC3nvTVt67lW5p7rY052T+/LCciej/BNDatr1t2+DCD8iRj9LWU1Q23S1KpuTBOMODulqNqp+PMkn3y95774HsnX/LBeH7BPYwov8TINvZ9qiNfn01JClhhu7ZQAX5PwAJHwD3f3P490LS+mg0Ef2fAFL+xQezu6rVanV6XGM1OTv74GVa9ZcePH//uXv3bm5uIPLm5pV79+7ff+HBy6u0lxgcY2DjtlTbwvQavYWabkt1PWr0BgrbkPdV6GWz0Jx92qe3R4cZss9tXiUwJmrjPqMSGIM2qAAw2z6XPTDG3UsIgE19Fj0bDL23RgpAqDNoG2PwtSY1wGTtWsD4fy/RA0zsirUADf/tcgBw0qpHqNjYhAUWAFNUKgwdw03o1ngAXFOneyjp4ybAAS7ASZnK0HKQgCYXgO+aJKgZYkq3xgbMrkeAmiGmwXc+wLsWAVp6HcyCZT7ARYcALb0B5oF5PsC7Bhla+jHm683xAe7j7dDSj7EAdGt8wI3ntPBjLAR/1fhAHi1DST9GDXCQETOaU8KPUQsc5AN5rAYdvQFqggN8+LGyDt4AtcECGxgr6tDBIcACG22ooMLnOJTeHBd1KKfB+/8MB7q1UuDHw4J2GfAiHBocKAEdNACa1rcfjejVLM9HM6Btd97AFFiyulU0ple3uBaaA2178yKTYMnaVtCoXt3SfDQL2pbWNw3mrSxA47o1C/Mi82DZwlaQANSty4tJHLSuVSQBTctqIJG2ZYVUoGlVDSTTtqpVOtC0KC8m1LaoFSQETXuKSLVHkh8iQFIwN4riEH1iB0dRGqGBxKBOhIbeR1glt0zDjkVmgIhcl0YaLMpbRHIwT6IN1llcyMB3ChuNXsTFDEDdPO7DkRe2iBy8J6/S+N3KCll4LC6Rht2Kiln44VVhgXTsVpCPPLwnK5CW3cpZYeKxqESKbmIGTPzwqhyupGphGR5y8Z4Y10jZ7kUssvFQCCdSuBoBK2z8cCsiNNKyXkSU+LQ+H28LcJUuTmPFfhn1yCchH5+c5ipd6ftQLl9B1JM5w2fk8Umu0rUddSxzFRFld1zAyA+3J3BodH0cDekAorbxQSucvHmYzZ0ObDwctyOIqAQ+os/Jh8eY2OhYh+Fg+zFEVAJfFXHy8AC77XR0hAIIhxFR3exlyMnX1/jU6PgMFRBOIKKWw1iGz8oPr17gYqVTM5RA6Gfc/W1nZauUssXLm3fYxUpnZ6gB205KdXd84+UjF0sjgRsUARcBQpzl5VcS2R1UAbY+m19EFIY2MGUyPwloHpeqAbh9Kj+c1iNDJyC0dciMK1UBQpvHX2f0bHC1MoCvs/jjuBYZB6oDmNQPOjcaasCxCgHw5ZALI6BFg6N1AjiU6bRkcaJWADjkPo89Wpyr2F0X9wsusdVzMDhdOQA85bgpgqVWNguR+v3reGXnr+IkL39STd5A7CRS/+HFQPZMQl6wLCvlaJGVx+vis/JwXSQr/1mYAScfLkzIyTsLE3Dy5sL4nNwujIz5+Bor0+Hj4dLs5+PDpfH5eHtpZMzGq2sTcvEMa7PIxadz2eR5XLwzlyhPdph4VV4bKg8Q8PAM8mnoNoDHwyfy/Fjk5MmQhTfl5cHqAIscfA3xhkZ38mTEwKfy8nA7y1th4G1xjsbP8hr0nkE6dwUoiJMdcp9I451UDOJa5F4VxjspGaTJiNhDyOad1MzSAmLvyLI7KVqNLBmRegbRvpOq3csKSL0niROpW4wkGRH6+laQb6RwjywoIPQhxJpKas5ORC3IkRGZr2+lmEyX72P1HkQtiAnIfAiZJtO121id8SFqkWXIAZGvb0XYTNebOlTT+BH1bEW0iHwIgaHSgRmDwQQgon3j82SHxDOcbnOnQ81wlzBEVAKf1SDx9kk2NTo4YjjoUERUNnOKXCHwEGfa1OjwHQpgOI6I9uROkJFxX796mAm504mNVUA+4251xnW1jPsQhxqfdjq3W+iAfNJdd8fUmAa5athjXO+23Oj0ZqEF4nnJ311neryAF5n1+kXstryTyJ2hB3yXkP6b61TGx9JkS8t/2t7Dv1oXc+0kNuG/6gBTxWT+5u50KuPj6zpQ1yMfY6mdZHcPZYCty8q8dErHVT0//k0DFoY+4DyCuKjjup4/SH5zuFgPwNQBxDkNd7X8RuJbwJWaAK7KE2eK3dfxK0lvAVfrApgs7tKpQk80/Py3sBZwoDYAxyZLXDxR4MrLYj/+TaKzw6H6APBZlDhf4Ia6WmTjTxLcNsbBKgEciiBxLt8ddbvIERLbksXxSgHgUMSIM7nuqQcFDgmhLVmcqtddn5oMcTrPU/Uy3yFhZNkMztYNgAk7fzPg0qkcL5S6leeQGH6NDhLVuzs2tcMdkrh0KuOKUupBjkNiuK1sDlKnkLp1eof7uz5x6WTaHaWUuppxSOhvJTqG5Hmkbhmv7HB/0yIunkh5mHiQsnFYaK0lBgf5k8ncOl5xdrq/5hMXTyReJNR1ANg4InL3WmP0jjHqnC40znnHcXa4rut+vYx4U6W+vA7Hv7iuu8dxnIpzDuNP7kpvgA/TlHr0UfK6EtK7pjKff5LlRb7PeivLjHyW9liWm1dpb0vO25TnsuR8SnlVduSzxJvS8yrxrvS8SXwoPe8SsvR8KkfSRrxGjy0kavXeMpJGr5VS7xiiofdlsmORWaU0WFToHU99sM5rtNHoRZ/3HHEfjoI68sNjfiqN3606Un76zEwiDbvVh9tAOna7NoG07HZlMim6LQtXUrXwmrhOyna/IJxI4WpWI3TSOfFKuEpq98ir4Cqp3rNZAVdJ/+Imx6HRHNtm5uVyp4mWwDMysdF0S+C52LjTpOtmZ+FTo6n3HIx2LlZawlY2pxT7WGktawpOFXaxNFrUvUTvhmO3pdppfXvNMTgrjp2LsVZa773WGGNwzrmD2DnnthhzrZ3+7///Tbg++9cNT9J0PXtfm66ff18ImqOebAYhswx6SQHg6ThFAKBOaQD1FQcZpwEwxsExEXIdCeZ3pmzlTkATpnIYf2dVZ9b9m3TzMVaWKv6lMVlb6exD9o9E4FhnL4bIpi2wrvuFiExbYH3Ts8usazjf9CQwRDZtAQBF3c8upvvC+rWba4hGmHUN55ueHln5Bwp2VQzUQcGuwJJGDs8c3eJR/oGCXRWDsLTIYVfHFy+NHJ45uuVxVXBv4M42jZCq9ajgPtpaBccMPhohVfu4Sg/veTUh8OBWehTLakBgy4TAw8OKm/NK52GybzfvYdVmMXQeJvv+kVCvbggdQ+kVQltuCP3AiqqqXMqqqnbSxwry39VzsKKqKgmNR1lV1c4H8t/V8w9w0Mx8ctDMXBcC3HZsjDFjqINm5pN0c3vumLktA+3YGGPGH6AjIuJS+CAiMioMyBqqIyLiUji7gYhoQSCQ9XEUAgYvtlTC2YI7YEsVgR6d+CSZpJGPlER9EjWUQgpjCgFvSfO8EzClibGOkIc0IfuHUHHSnP/xMhPR/Hua7+Xw2TTNSxFq3lob6+MBlCdm1pdse94e5YmZ9SXbQMPWQqp92NpBLO+gEPzjvUYpBP9wARsf/3F7dajXeF0eow71up0Dx5q216swqos3I0avwqhuO5givdH2lmMeBHM8Yqcnn+WYB8G8mUNNkYY7IFMovwwDbYCGI/aWHLUPmUL5ZRhoK/nXEqmjUCoKTTWUctrjzVAY5UM0crPWhrxoqqGU0x5vhraxB7qFIuzx1pNsWDQrw+Kwmlm2Ec09O/cTiYZFszIsDpKrH9Hcs3M/UVAOOi4kzhzU0E8eIhUn4zqmyw2uu32ynJ1c5yR6pRRSnEL5aUmfHKeFkvPm9z1Qgk7Gk/77/393AA==;" parent="k2kGGla_AJdaGIRQjZgb-45" vertex="1">
          <mxGeometry x="7.82000000000005" width="74.35" height="100" as="geometry" />
        </mxCell>
        <mxCell id="k2kGGla_AJdaGIRQjZgb-61" value="" style="group" parent="1" vertex="1" connectable="0">
          <mxGeometry x="105" y="188.5" width="185" height="60" as="geometry" />
        </mxCell>
        <mxCell id="k2kGGla_AJdaGIRQjZgb-62" value="" style="strokeColor=#dddddd;shadow=1;strokeWidth=1;rounded=1;absoluteArcSize=1;arcSize=2;" parent="k2kGGla_AJdaGIRQjZgb-61" vertex="1">
          <mxGeometry width="185" height="60" as="geometry" />
        </mxCell>
        <mxCell id="k2kGGla_AJdaGIRQjZgb-63" value="" style="editableCssRules=.*;html=1;shape=image;verticalLabelPosition=bottom;labelBackgroundColor=none;verticalAlign=middle;aspect=fixed;imageAspect=0;image=data:image/svg+xml,PHN2ZyB4bWxucz0iaHR0cDovL3d3dy53My5vcmcvMjAwMC9zdmciIHhtbG5zOnY9Imh0dHBzOi8vdmVjdGEuaW8vbmFubyIgd2lkdGg9IjM2NS40NjQ5OTY3NzA0MjQ5MyIgaGVpZ2h0PSIzNzkuMjIyOTk0NDYzNTc3OTUiIHZpZXdCb3g9IjAgMCA5Ni42OTU5OTkxNDU1MDc4MSAxMDAuMzM1OTk4NTM1MTU2MjUiPiYjeGE7PHN0eWxlIHR5cGU9InRleHQvY3NzIj4mI3hhOwkuc3Qwe2ZpbGw6IzQyODVmNDt9JiN4YTsJLnN0MXtmaWxsOiNhZWNiZmE7fSYjeGE7PC9zdHlsZT4mI3hhOwk8cGF0aCBjbGFzcz0ic3QwIiBkPSJNMjkuNzk0IDEwMC4zMzZMNDYuOTIgNTAuMTY4aDQ5Ljc3NnpNMCA5OS42NzFsMTIuOTc2LTQ5LjUwMkgyOS4yMkwxNi44OTcgOTIuMDU0eiIvPiYjeGE7CTxwYXRoIGNsYXNzPSJzdDEiIGQ9Ik0yOS43OTQgMEw0Ni45MiA1MC4xNjhoNDkuNzc2ek0wIC42NjZsMTIuOTc2IDQ5LjUwMkgyOS4yMkwxNi44OTcgOC4yODN6Ii8+JiN4YTs8L3N2Zz4=;" parent="k2kGGla_AJdaGIRQjZgb-61" vertex="1">
          <mxGeometry x="15" y="15" width="30" height="30" as="geometry" />
        </mxCell>
        <mxCell id="k2kGGla_AJdaGIRQjZgb-64" value="&lt;font color=&quot;#000000&quot; style=&quot;forced-color-adjust: none; color: rgb(0, 0, 0); font-family: Helvetica; font-size: 12px; font-style: normal; font-variant-ligatures: normal; font-variant-caps: normal; font-weight: 400; letter-spacing: normal; orphans: 2; text-indent: 0px; text-transform: none; widows: 2; word-spacing: 0px; -webkit-text-stroke-width: 0px; white-space: nowrap; background-color: rgb(251, 251, 251); text-decoration-thickness: initial; text-decoration-style: initial; text-decoration-color: initial; text-align: left;&quot;&gt;Cloud Run: Backend&lt;/font&gt;&lt;br style=&quot;forced-color-adjust: none; font-family: Helvetica; font-size: 12px; font-style: normal; font-variant-ligatures: normal; font-variant-caps: normal; font-weight: 400; letter-spacing: normal; orphans: 2; text-indent: 0px; text-transform: none; widows: 2; word-spacing: 0px; -webkit-text-stroke-width: 0px; white-space: nowrap; background-color: rgb(251, 251, 251); text-decoration-thickness: initial; text-decoration-style: initial; text-decoration-color: initial; color: rgb(153, 153, 153); text-align: left;&quot;&gt;&lt;span style=&quot;forced-color-adjust: none; font-family: Helvetica; font-size: 12px; font-style: normal; font-variant-ligatures: normal; font-variant-caps: normal; font-weight: 400; letter-spacing: normal; orphans: 2; text-indent: 0px; text-transform: none; widows: 2; word-spacing: 0px; -webkit-text-stroke-width: 0px; white-space: nowrap; background-color: rgb(251, 251, 251); text-decoration-thickness: initial; text-decoration-style: initial; text-decoration-color: initial; color: rgb(153, 153, 153); text-align: left; float: none; display: inline !important;&quot;&gt;Container&lt;/span&gt;" style="text;whiteSpace=wrap;html=1;" parent="k2kGGla_AJdaGIRQjZgb-61" vertex="1">
          <mxGeometry x="65" y="10" width="90" height="50" as="geometry" />
        </mxCell>
        <mxCell id="k2kGGla_AJdaGIRQjZgb-65" style="edgeStyle=orthogonalEdgeStyle;rounded=0;orthogonalLoop=1;jettySize=auto;html=1;startArrow=classic;startFill=1;" parent="1" source="k2kGGla_AJdaGIRQjZgb-28" target="k2kGGla_AJdaGIRQjZgb-14" edge="1">
          <mxGeometry relative="1" as="geometry" />
        </mxCell>
        <mxCell id="k2kGGla_AJdaGIRQjZgb-71" style="edgeStyle=orthogonalEdgeStyle;rounded=0;orthogonalLoop=1;jettySize=auto;html=1;entryX=1;entryY=0.5;entryDx=0;entryDy=0;exitX=0;exitY=0.5;exitDx=0;exitDy=0;" parent="1" source="k2kGGla_AJdaGIRQjZgb-28" target="k2kGGla_AJdaGIRQjZgb-67" edge="1">
          <mxGeometry relative="1" as="geometry">
            <mxPoint x="469.5" y="368.5" as="targetPoint" />
          </mxGeometry>
        </mxCell>
        <mxCell id="Qo7nLD7n5bN8_-DEjTDH-1" value="Users:&lt;div&gt;&lt;div&gt;&lt;br&gt;&lt;/div&gt;&lt;div&gt;id: str = Field(None, alias=&quot;_id&quot;)&lt;/div&gt;&lt;div&gt;username: str&lt;/div&gt;&lt;div&gt;email: str&lt;/div&gt;&lt;div&gt;firstname: str = &quot;&quot;&lt;/div&gt;&lt;div&gt;lastname: str = &quot;&quot;&lt;/div&gt;&lt;/div&gt;" style="whiteSpace=wrap;html=1;shape=mxgraph.basic.document;align=left;verticalAlign=top;" parent="1" vertex="1">
          <mxGeometry x="850" y="400" width="180" height="220" as="geometry" />
        </mxCell>
        <mxCell id="Qo7nLD7n5bN8_-DEjTDH-2" value="Satellites:&lt;div&gt;&lt;div&gt;&lt;br&gt;&lt;/div&gt;&lt;div&gt;id: str = Field(None, alias=&quot;_id&quot;)&lt;/div&gt;&lt;div&gt;name: str&lt;/div&gt;&lt;div&gt;units: str&lt;/div&gt;&lt;/div&gt;" style="whiteSpace=wrap;html=1;shape=mxgraph.basic.document;align=left;verticalAlign=top;" parent="1" vertex="1">
          <mxGeometry x="1040" y="400" width="180" height="220" as="geometry" />
        </mxCell>
        <mxCell id="Qo7nLD7n5bN8_-DEjTDH-3" value="Locations:&lt;div&gt;&lt;div&gt;&lt;br&gt;&lt;/div&gt;&lt;div&gt;id: str = Field(None, alias=&quot;_id&quot;)&lt;/div&gt;&lt;div&gt;&lt;span style=&quot;background-color: initial;&quot;&gt;satellite: Satellite&lt;/span&gt;&lt;/div&gt;&lt;div&gt;&lt;div&gt;latitude: float,&lt;/div&gt;&lt;div&gt;&amp;nbsp;longitude: float,&lt;/div&gt;&lt;div&gt;&amp;nbsp;altitude: float,&lt;/div&gt;&lt;div&gt;&amp;nbsp;velocity: float,&lt;/div&gt;&lt;div&gt;&amp;nbsp;visibility: str,&lt;/div&gt;&lt;div&gt;&amp;nbsp;footprint: float,&lt;/div&gt;&lt;div&gt;&amp;nbsp;timestamp: datetime,&lt;/div&gt;&lt;div&gt;&amp;nbsp;daynum: float,&lt;/div&gt;&lt;div&gt;&amp;nbsp;solar_lat: float,&lt;/div&gt;&lt;div&gt;&amp;nbsp;solar_lon: float&lt;/div&gt;&lt;/div&gt;&lt;/div&gt;" style="whiteSpace=wrap;html=1;shape=mxgraph.basic.document;align=left;verticalAlign=top;" parent="1" vertex="1">
          <mxGeometry x="1230" y="400" width="180" height="220" as="geometry" />
        </mxCell>
        <mxCell id="Qo7nLD7n5bN8_-DEjTDH-15" value="" style="group" parent="1" vertex="1" connectable="0">
          <mxGeometry x="585" y="544.15" width="185" height="64.34999999999998" as="geometry" />
        </mxCell>
        <mxCell id="Qo7nLD7n5bN8_-DEjTDH-16" value="" style="strokeColor=#dddddd;shadow=1;strokeWidth=1;rounded=1;absoluteArcSize=1;arcSize=2;" parent="Qo7nLD7n5bN8_-DEjTDH-15" vertex="1">
          <mxGeometry width="185" height="60" as="geometry" />
        </mxCell>
        <mxCell id="Qo7nLD7n5bN8_-DEjTDH-19" value="" style="editableCssRules=.*;html=1;shape=image;verticalLabelPosition=bottom;labelBackgroundColor=#ffffff;verticalAlign=top;aspect=fixed;imageAspect=0;image=data:image/svg+xml,PHN2ZyB4bWxucz0iaHR0cDovL3d3dy53My5vcmcvMjAwMC9zdmciIHhtbG5zOnY9Imh0dHBzOi8vdmVjdGEuaW8vbmFubyIgd2lkdGg9IjE4LjMxOTk5OTY5NDgyNDIyIiBoZWlnaHQ9IjIwLjAwMDAwMTkwNzM0ODYzMyIgdmlld0JveD0iMCAwIDE4LjMxOTk5OTY5NDgyNDIyIDIwLjAwMDAwMTkwNzM0ODYzMyI+JiN4YTsJPHN0eWxlIHR5cGU9InRleHQvY3NzIj4mI3hhOwkuc3Qwe2ZpbGw6IzY2OWRmNjt9JiN4YTsJLnN0MXtmaWxsOiM0Mjg1ZjQ7fSYjeGE7CS5zdDJ7ZmlsbDojYWVjYmZhO30mI3hhOwk8L3N0eWxlPiYjeGE7CTxkZWZzPiYjeGE7CQk8ZmlsdGVyIGlkPSJBIiB4PSI0LjY0IiB5PSI0LjE5IiB3aWR0aD0iMTQuNzMiIGhlaWdodD0iMTIuNzYiIGZpbHRlclVuaXRzPSJ1c2VyU3BhY2VPblVzZSIgY29sb3ItaW50ZXJwb2xhdGlvbi1maWx0ZXJzPSJzUkdCIj4mI3hhOwkJCTxmZUZsb29kIGZsb29kLWNvbG9yPSIjZmZmIi8+JiN4YTsJCQk8ZmVCbGVuZCBpbj0iU291cmNlR3JhcGhpYyIvPiYjeGE7CQk8L2ZpbHRlcj4mI3hhOwkJPG1hc2sgaWQ9IkIiIHg9IjQuNjQiIHk9IjQuMTkiIHdpZHRoPSIxNC43MyIgaGVpZ2h0PSIxMi43NiIgbWFza1VuaXRzPSJ1c2VyU3BhY2VPblVzZSI+JiN4YTsJCQk8Y2lyY2xlIGN4PSIxMiIgY3k9IjEyLjIzIiByPSIzLjU4IiBmaWx0ZXI9InVybCgjQSkiLz4mI3hhOwkJPC9tYXNrPiYjeGE7CTwvZGVmcz4mI3hhOwk8ZyBjbGFzcz0ic3QwIj4mI3hhOwkJPGNpcmNsZSBjeD0iMTYuMTMiIGN5PSI2LjIxIiByPSIxLjcyIi8+JiN4YTsJCTxjaXJjbGUgY3g9IjIuMTkiIGN5PSI2LjIxIiByPSIxLjcyIi8+JiN4YTsJCTxjaXJjbGUgY3g9IjkuMTYiIGN5PSIxOC4yOCIgcj0iMS43MiIvPiYjeGE7CTwvZz4mI3hhOwk8ZyBtYXNrPSJ1cmwoI0IpIiB0cmFuc2Zvcm09InRyYW5zbGF0ZSgtMi44NCAtMikiPiYjeGE7CQk8cGF0aCB0cmFuc2Zvcm09Im1hdHJpeCguNSAtLjg3IC44NyAuNSAtNC41OSAyMC41MykiIGQ9Ik0xNC42OSAxMC4yMmgxLjU5djguMDRoLTEuNTl6IiBjbGFzcz0ic3QxIi8+JiN4YTsJCTxwYXRoIHRyYW5zZm9ybT0icm90YXRlKDMzMCA4LjUyMyAxNC4yNDQpIiBkPSJNNC40OSAxMy40NWg4LjA0djEuNTlINC40OXoiIGNsYXNzPSJzdDEiLz4mI3hhOwkJPHBhdGggZD0iTTExLjIgNC4xOWgxLjU5djguMDRIMTEuMnoiIGNsYXNzPSJzdDEiLz4mI3hhOwk8L2c+JiN4YTsJPGcgY2xhc3M9InN0MiI+JiN4YTsJCTxjaXJjbGUgY3g9IjkuMTYiIGN5PSIxMC4yMyIgcj0iMi43OCIvPiYjeGE7CQk8Y2lyY2xlIGN4PSIyLjE5IiBjeT0iMTQuMjUiIHI9IjIuMTkiLz4mI3hhOwkJPGNpcmNsZSBjeD0iMTYuMTMiIGN5PSIxNC4yNSIgcj0iMi4xOSIvPiYjeGE7CQk8Y2lyY2xlIGN4PSI5LjE2IiBjeT0iMi4xOSIgcj0iMi4xOSIvPiYjeGE7CTwvZz4mI3hhOzwvc3ZnPg==;" parent="Qo7nLD7n5bN8_-DEjTDH-15" vertex="1">
          <mxGeometry x="12" y="10" width="36" height="40" as="geometry" />
        </mxCell>
        <mxCell id="Qo7nLD7n5bN8_-DEjTDH-20" value="&lt;span style=&quot;forced-color-adjust: none; font-family: Helvetica; font-size: 12px; font-style: normal; font-variant-ligatures: normal; font-variant-caps: normal; font-weight: 400; letter-spacing: normal; orphans: 2; text-indent: 0px; text-transform: none; widows: 2; word-spacing: 0px; -webkit-text-stroke-width: 0px; white-space: nowrap; background-color: rgb(251, 251, 251); text-decoration-thickness: initial; text-decoration-style: initial; text-decoration-color: initial; text-align: left; float: none; display: inline !important;&quot;&gt;Topic: Pull position&lt;/span&gt;&lt;div&gt;&lt;span style=&quot;forced-color-adjust: none; font-family: Helvetica; font-size: 12px; font-style: normal; font-variant-ligatures: normal; font-variant-caps: normal; font-weight: 400; letter-spacing: normal; orphans: 2; text-indent: 0px; text-transform: none; widows: 2; word-spacing: 0px; -webkit-text-stroke-width: 0px; white-space: nowrap; background-color: rgb(251, 251, 251); text-decoration-thickness: initial; text-decoration-style: initial; text-decoration-color: initial; color: rgb(153, 153, 153); text-align: left; float: none; display: inline !important;&quot;&gt;Pub/Sub&lt;/span&gt;&lt;/div&gt;" style="text;whiteSpace=wrap;html=1;" parent="Qo7nLD7n5bN8_-DEjTDH-15" vertex="1">
          <mxGeometry x="70" y="10" width="90" height="50" as="geometry" />
        </mxCell>
        <mxCell id="Qo7nLD7n5bN8_-DEjTDH-25" value="" style="edgeStyle=orthogonalEdgeStyle;rounded=0;orthogonalLoop=1;jettySize=auto;html=1;exitX=0.5;exitY=0;exitDx=0;exitDy=0;entryX=0.5;entryY=1;entryDx=0;entryDy=0;" parent="1" source="Qo7nLD7n5bN8_-DEjTDH-22" target="Qo7nLD7n5bN8_-DEjTDH-16" edge="1">
          <mxGeometry relative="1" as="geometry" />
        </mxCell>
        <mxCell id="Qo7nLD7n5bN8_-DEjTDH-6" value="" style="group" parent="1" vertex="1" connectable="0">
          <mxGeometry x="325" y="543.8" width="200" height="68.7" as="geometry" />
        </mxCell>
        <mxCell id="Qo7nLD7n5bN8_-DEjTDH-10" value="" style="group" parent="Qo7nLD7n5bN8_-DEjTDH-6" vertex="1" connectable="0">
          <mxGeometry width="200" height="68.7" as="geometry" />
        </mxCell>
        <mxCell id="Qo7nLD7n5bN8_-DEjTDH-7" value="" style="strokeColor=#dddddd;shadow=1;strokeWidth=1;rounded=1;absoluteArcSize=1;arcSize=2;" parent="Qo7nLD7n5bN8_-DEjTDH-10" vertex="1">
          <mxGeometry x="30" width="185" height="60" as="geometry" />
        </mxCell>
        <mxCell id="Qo7nLD7n5bN8_-DEjTDH-9" value="&lt;font color=&quot;#000000&quot; style=&quot;forced-color-adjust: none; color: rgb(0, 0, 0); font-family: Helvetica; font-size: 12px; font-style: normal; font-variant-ligatures: normal; font-variant-caps: normal; font-weight: 400; letter-spacing: normal; orphans: 2; text-indent: 0px; text-transform: none; widows: 2; word-spacing: 0px; -webkit-text-stroke-width: 0px; white-space: nowrap; background-color: rgb(251, 251, 251); text-decoration-thickness: initial; text-decoration-style: initial; text-decoration-color: initial; text-align: left;&quot;&gt;Cloud Function&lt;/font&gt;&lt;br style=&quot;forced-color-adjust: none; font-family: Helvetica; font-size: 12px; font-style: normal; font-variant-ligatures: normal; font-variant-caps: normal; font-weight: 400; letter-spacing: normal; orphans: 2; text-indent: 0px; text-transform: none; widows: 2; word-spacing: 0px; -webkit-text-stroke-width: 0px; white-space: nowrap; background-color: rgb(251, 251, 251); text-decoration-thickness: initial; text-decoration-style: initial; text-decoration-color: initial; color: rgb(153, 153, 153); text-align: left;&quot;&gt;&lt;span style=&quot;forced-color-adjust: none; font-family: Helvetica; font-size: 12px; font-style: normal; font-variant-ligatures: normal; font-variant-caps: normal; font-weight: 400; letter-spacing: normal; orphans: 2; text-indent: 0px; text-transform: none; widows: 2; word-spacing: 0px; -webkit-text-stroke-width: 0px; white-space: nowrap; background-color: rgb(251, 251, 251); text-decoration-thickness: initial; text-decoration-style: initial; text-decoration-color: initial; color: rgb(153, 153, 153); text-align: left; float: none; display: inline !important;&quot;&gt;Container&lt;/span&gt;" style="text;whiteSpace=wrap;html=1;" parent="Qo7nLD7n5bN8_-DEjTDH-10" vertex="1">
          <mxGeometry x="105" y="10" width="90" height="50" as="geometry" />
        </mxCell>
        <mxCell id="Qo7nLD7n5bN8_-DEjTDH-4" value="" style="image;sketch=0;aspect=fixed;html=1;points=[];align=center;fontSize=12;image=img/lib/mscae/Functions.svg;" parent="Qo7nLD7n5bN8_-DEjTDH-10" vertex="1">
          <mxGeometry x="45" y="10" width="50" height="46" as="geometry" />
        </mxCell>
        <mxCell id="Qo7nLD7n5bN8_-DEjTDH-29" value="" style="edgeStyle=orthogonalEdgeStyle;rounded=0;orthogonalLoop=1;jettySize=auto;html=1;entryX=1;entryY=0.5;entryDx=0;entryDy=0;" parent="1" source="Qo7nLD7n5bN8_-DEjTDH-16" target="Qo7nLD7n5bN8_-DEjTDH-7" edge="1">
          <mxGeometry relative="1" as="geometry" />
        </mxCell>
        <mxCell id="Qo7nLD7n5bN8_-DEjTDH-51" style="edgeStyle=orthogonalEdgeStyle;rounded=0;orthogonalLoop=1;jettySize=auto;html=1;entryX=0;entryY=0.5;entryDx=0;entryDy=0;exitX=0.406;exitY=1.001;exitDx=0;exitDy=0;exitPerimeter=0;" parent="1" source="Qo7nLD7n5bN8_-DEjTDH-7" target="k2kGGla_AJdaGIRQjZgb-43" edge="1">
          <mxGeometry relative="1" as="geometry">
            <mxPoint x="410" y="720" as="sourcePoint" />
            <Array as="points">
              <mxPoint x="430" y="720" />
              <mxPoint x="790" y="720" />
              <mxPoint x="790" y="280" />
            </Array>
          </mxGeometry>
        </mxCell>
        <mxCell id="Qo7nLD7n5bN8_-DEjTDH-52" value="" style="group" parent="1" vertex="1" connectable="0">
          <mxGeometry x="-99" y="303.5" width="90" height="230" as="geometry" />
        </mxCell>
        <mxCell id="Lif8JBEafslfNm7ranTe-3" value="Multiple&lt;br&gt;Clients" style="rounded=1;absoluteArcSize=1;arcSize=2;html=1;strokeColor=none;gradientColor=none;shadow=0;dashed=0;fontSize=12;fontColor=#9E9E9E;align=left;verticalAlign=top;spacing=10;spacingTop=-4;fillColor=#F1F8E9;" parent="Qo7nLD7n5bN8_-DEjTDH-52" vertex="1">
          <mxGeometry width="90" height="230" as="geometry" />
        </mxCell>
        <mxCell id="Lif8JBEafslfNm7ranTe-6" value="" style="strokeColor=#dddddd;fillColor=#ffffff;shadow=1;strokeWidth=1;rounded=1;absoluteArcSize=1;arcSize=2;labelPosition=center;verticalLabelPosition=middle;align=center;verticalAlign=bottom;spacingLeft=0;fontColor=#999999;fontSize=12;whiteSpace=wrap;spacingBottom=2;html=1;" parent="Qo7nLD7n5bN8_-DEjTDH-52" vertex="1">
          <mxGeometry x="10" y="60" width="70" height="70" as="geometry" />
        </mxCell>
        <mxCell id="Lif8JBEafslfNm7ranTe-7" value="" style="dashed=0;connectable=0;html=1;fillColor=#757575;strokeColor=none;shape=mxgraph.gcp2.mobile_devices;part=1;" parent="Lif8JBEafslfNm7ranTe-6" vertex="1">
          <mxGeometry x="0.5" width="50" height="36.5" relative="1" as="geometry">
            <mxPoint x="-25" y="16.75" as="offset" />
          </mxGeometry>
        </mxCell>
        <mxCell id="Lif8JBEafslfNm7ranTe-9" value="" style="strokeColor=#dddddd;fillColor=#ffffff;shadow=1;strokeWidth=1;rounded=1;absoluteArcSize=1;arcSize=2;labelPosition=center;verticalLabelPosition=middle;align=center;verticalAlign=bottom;spacingLeft=0;fontColor=#999999;fontSize=12;whiteSpace=wrap;spacingBottom=2;html=1;" parent="Qo7nLD7n5bN8_-DEjTDH-52" vertex="1">
          <mxGeometry x="10" y="149.5" width="70" height="70" as="geometry" />
        </mxCell>
        <mxCell id="Lif8JBEafslfNm7ranTe-10" value="" style="dashed=0;connectable=0;html=1;fillColor=#757575;strokeColor=none;shape=mxgraph.gcp2.laptop;part=1;" parent="Lif8JBEafslfNm7ranTe-9" vertex="1">
          <mxGeometry x="0.5" width="50" height="33" relative="1" as="geometry">
            <mxPoint x="-25" y="18.5" as="offset" />
          </mxGeometry>
        </mxCell>
        <mxCell id="Qo7nLD7n5bN8_-DEjTDH-60" style="edgeStyle=orthogonalEdgeStyle;rounded=0;orthogonalLoop=1;jettySize=auto;html=1;entryX=1;entryY=0.5;entryDx=0;entryDy=0;" parent="1" source="k2kGGla_AJdaGIRQjZgb-14" target="k2kGGla_AJdaGIRQjZgb-62" edge="1">
          <mxGeometry relative="1" as="geometry" />
        </mxCell>
        <mxCell id="Qo7nLD7n5bN8_-DEjTDH-61" style="edgeStyle=orthogonalEdgeStyle;rounded=0;orthogonalLoop=1;jettySize=auto;html=1;entryX=1;entryY=0.5;entryDx=0;entryDy=0;" parent="1" source="Qo7nLD7n5bN8_-DEjTDH-7" target="Qo7nLD7n5bN8_-DEjTDH-39" edge="1">
          <mxGeometry relative="1" as="geometry" />
        </mxCell>
        <mxCell id="Qo7nLD7n5bN8_-DEjTDH-63" value="&lt;b&gt;External Services&lt;/b&gt;" style="shadow=0;fontSize=14;align=left;spacing=10;9E9E9E;verticalAlign=top;spacingTop=-4;fontStyle=0;spacingLeft=40;html=1;fillColor=#f5f5f5;fontColor=#333333;strokeColor=#666666;" parent="1" vertex="1">
          <mxGeometry x="60" y="750" width="740" height="141" as="geometry" />
        </mxCell>
        <mxCell id="Qo7nLD7n5bN8_-DEjTDH-64" value="" style="group" parent="1" vertex="1" connectable="0">
          <mxGeometry x="360" y="801.5" width="240" height="60" as="geometry" />
        </mxCell>
        <mxCell id="Qo7nLD7n5bN8_-DEjTDH-65" value="" style="group" parent="Qo7nLD7n5bN8_-DEjTDH-64" vertex="1" connectable="0">
          <mxGeometry x="-5" y="-12" width="240" height="72" as="geometry" />
        </mxCell>
        <mxCell id="Qo7nLD7n5bN8_-DEjTDH-66" value="" style="strokeColor=#dddddd;shadow=1;strokeWidth=1;rounded=1;absoluteArcSize=1;arcSize=2;" parent="Qo7nLD7n5bN8_-DEjTDH-65" vertex="1">
          <mxGeometry width="240" height="72" as="geometry" />
        </mxCell>
        <mxCell id="Qo7nLD7n5bN8_-DEjTDH-67" value="" style="aspect=fixed;sketch=0;html=1;dashed=0;whitespace=wrap;verticalLabelPosition=bottom;verticalAlign=top;fillColor=#2875E2;strokeColor=#ffffff;points=[[0.005,0.63,0],[0.1,0.2,0],[0.9,0.2,0],[0.5,0,0],[0.995,0.63,0],[0.72,0.99,0],[0.5,1,0],[0.28,0.99,0]];shape=mxgraph.kubernetes.icon2;prIcon=api" parent="Qo7nLD7n5bN8_-DEjTDH-65" vertex="1">
          <mxGeometry x="5" y="12" width="50" height="48" as="geometry" />
        </mxCell>
        <UserObject label="API: https://api.wheretheiss.at" link="https://api.wheretheiss.at" id="Qo7nLD7n5bN8_-DEjTDH-68">
          <mxCell style="text;whiteSpace=wrap;verticalAlign=middle;" parent="Qo7nLD7n5bN8_-DEjTDH-65" vertex="1">
            <mxGeometry x="60" y="16" width="170" height="40" as="geometry" />
          </mxCell>
        </UserObject>
        <mxCell id="Qo7nLD7n5bN8_-DEjTDH-69" style="edgeStyle=orthogonalEdgeStyle;rounded=0;orthogonalLoop=1;jettySize=auto;html=1;entryX=0.148;entryY=-0.004;entryDx=0;entryDy=0;entryPerimeter=0;" parent="1" source="Qo7nLD7n5bN8_-DEjTDH-7" target="Qo7nLD7n5bN8_-DEjTDH-66" edge="1">
          <mxGeometry relative="1" as="geometry">
            <Array as="points">
              <mxPoint x="391" y="650" />
              <mxPoint x="391" y="650" />
            </Array>
          </mxGeometry>
        </mxCell>
        <mxCell id="Qo7nLD7n5bN8_-DEjTDH-72" value="" style="group" parent="1" vertex="1" connectable="0">
          <mxGeometry x="584" y="638.5" width="185" height="60" as="geometry" />
        </mxCell>
        <mxCell id="Qo7nLD7n5bN8_-DEjTDH-22" value="" style="strokeColor=#dddddd;shadow=1;strokeWidth=1;rounded=1;absoluteArcSize=1;arcSize=2;" parent="Qo7nLD7n5bN8_-DEjTDH-72" vertex="1">
          <mxGeometry width="185" height="60" as="geometry" />
        </mxCell>
        <mxCell id="Qo7nLD7n5bN8_-DEjTDH-21" value="" style="editableCssRules=.*;html=1;shape=image;verticalLabelPosition=bottom;labelBackgroundColor=#ffffff;verticalAlign=top;aspect=fixed;imageAspect=0;image=data:image/svg+xml,PHN2ZyB4bWxucz0iaHR0cDovL3d3dy53My5vcmcvMjAwMC9zdmciIHhtbG5zOnY9Imh0dHBzOi8vdmVjdGEuaW8vbmFubyIgd2lkdGg9IjM2MC4zMDM3NjY4NjA4MzYzIiBoZWlnaHQ9IjM3OC4wNTExNTgwNzc0MDg4IiB2aWV3Qm94PSItMC4wMDAxNjI0MjExNDM2MTM3NTU3IC0wLjAwMDEwMDAwNTk0OTIwNzExNTkyIDk1LjMzMDI2MTIzMDQ2ODc1IDEwMC4wMjYxMDAxNTg2OTE0Ij4mI3hhOzxzdHlsZSB0eXBlPSJ0ZXh0L2NzcyI+JiN4YTsJLnN0MHtmaWxsOiM0Mjg1ZjQ7fSYjeGE7CS5zdDF7ZmlsbDojYWVjYmZhO30mI3hhOwkuc3Qye2ZpbGw6IzY2OWRmNjt9JiN4YTs8L3N0eWxlPiYjeGE7CTxwYXRoIGNsYXNzPSJzdDAiIGQ9Ik03OS45NzEgNzcuNzE1bC03LjM1OSA3LjQ4OCA4LjYzOSA4LjQ5IDcuMzU5LTcuNDg4em0tNjUuMDk2LjA2MWwtOC42NDEgOC40OTIgNy4zNjEgNy40ODggOC42MzktOC40OXoiLz4mI3hhOwk8cGF0aCBjbGFzcz0ic3QxIiBkPSJNNzkuNTUzLjIyMWE1LjI1IDUuMjUgMCAwIDAtMy42NiA4Ljk4NEw4Ni4zODkgMTkuNThhNS4yNSA1LjI1IDAgMCAwIDguOTQxLTMuNzY1IDUuMjUgNS4yNSAwIDAgMC0xLjU2LTMuNzA0TDgzLjI3NSAxLjczOEE1LjI1IDUuMjUgMCAwIDAgNzkuNTUzLjIyMXpNMTUuOTE2IDBhNS4yNSA1LjI1IDAgMCAwLTMuNzIzIDEuNTE2TDEuNjk5IDExLjg5MWE1LjI1IDUuMjUgMCAwIDAtLjA0MyA3LjQyNCA1LjI1IDUuMjUgMCAwIDAgNy40MjQuMDQzTDE5LjU3NiA4Ljk4MkE1LjI1IDUuMjUgMCAwIDAgMTUuOTE2IDB6Ii8+JiN4YTsJPHBhdGggY2xhc3M9InN0MCIgZD0iTTQ4LjEzOCAyNi4yNGMxMy4zNDcgMCAyNS40MzIgMTEuMTM2IDI1LjMxIDI2LjQ4MSAwIDE1LjExLTEyLjI2NyAyNS42NzMtMjUuMTg5IDI1LjY3My0xMS4xNDkgMC0xOC4zMTctNS4xNzEtMjEuOTYtMTAuNzM4bDIxLjgzOS0xNS4wOTd6Ii8+JiN4YTsJPHBhdGggY2xhc3M9InN0MiIgZD0iTTgxLjI1IDkzLjY5M2w0LjY2NCA0LjU4NmE1LjI1IDUuMjUgMCAxIDAgNy4zNjEtNy40OWwtNC42NjYtNC41ODR6TTYuMjM0IDg2LjI2OEwxLjU3IDkwLjg1MWE1LjI1IDUuMjUgMCAwIDAtLjA2NSA3LjQyNCA1LjI1IDUuMjUgMCAwIDAgNy40MjQuMDY0bDQuNjY2LTQuNTg0ek00Ny4zNzEgNS41NzhDMjEuMzQ5IDUuNTc4LjE0NiAyNi43NzkuMTQ2IDUyLjgwMXMyMS4yMDMgNDcuMjI1IDQ3LjIyNSA0Ny4yMjUgNDcuMjI1LTIxLjIwMyA0Ny4yMjUtNDcuMjI1UzczLjM5MyA1LjU3OCA0Ny4zNzEgNS41Nzh6bTAgMTBhMzcuMTUgMzcuMTUgMCAwIDEgMzcuMjI1IDM3LjIyM2MwIDIwLjYxNy0xNi42MDcgMzcuMjI1LTM3LjIyNSAzNy4yMjVTMTAuMTQ2IDczLjQxOCAxMC4xNDYgNTIuODAxYTM3LjE1IDM3LjE1IDAgMCAxIDM3LjIyNS0zNy4yMjN6Ii8+JiN4YTs8L3N2Zz4=;" parent="Qo7nLD7n5bN8_-DEjTDH-72" vertex="1">
          <mxGeometry x="11" y="10" width="38" height="40" as="geometry" />
        </mxCell>
        <mxCell id="Qo7nLD7n5bN8_-DEjTDH-23" value="&lt;div&gt;&lt;span style=&quot;forced-color-adjust: none; font-family: Helvetica; font-size: 12px; font-style: normal; font-variant-ligatures: normal; font-variant-caps: normal; font-weight: 400; letter-spacing: normal; orphans: 2; text-indent: 0px; text-transform: none; widows: 2; word-spacing: 0px; -webkit-text-stroke-width: 0px; white-space: nowrap; background-color: rgb(251, 251, 251); text-decoration-thickness: initial; text-decoration-style: initial; text-decoration-color: initial; text-align: left; float: none; display: inline !important;&quot;&gt;Pull Position 20sec&lt;/span&gt;&lt;/div&gt;&lt;div&gt;&lt;span style=&quot;forced-color-adjust: none; font-family: Helvetica; font-size: 12px; font-style: normal; font-variant-ligatures: normal; font-variant-caps: normal; font-weight: 400; letter-spacing: normal; orphans: 2; text-indent: 0px; text-transform: none; widows: 2; word-spacing: 0px; -webkit-text-stroke-width: 0px; white-space: nowrap; background-color: rgb(251, 251, 251); text-decoration-thickness: initial; text-decoration-style: initial; text-decoration-color: initial; color: rgb(153, 153, 153); text-align: left; float: none; display: inline !important;&quot;&gt;Cloud Scheduler&lt;/span&gt;&lt;/div&gt;" style="text;whiteSpace=wrap;html=1;" parent="Qo7nLD7n5bN8_-DEjTDH-72" vertex="1">
          <mxGeometry x="70" y="5" width="90" height="50" as="geometry" />
        </mxCell>
        <mxCell id="Qo7nLD7n5bN8_-DEjTDH-73" style="edgeStyle=orthogonalEdgeStyle;rounded=0;orthogonalLoop=1;jettySize=auto;html=1;entryX=0;entryY=0.5;entryDx=0;entryDy=0;startArrow=classic;startFill=1;" parent="1" source="k2kGGla_AJdaGIRQjZgb-19" target="k2kGGla_AJdaGIRQjZgb-43" edge="1">
          <mxGeometry relative="1" as="geometry">
            <Array as="points">
              <mxPoint x="790" y="219" />
              <mxPoint x="790" y="280" />
            </Array>
          </mxGeometry>
        </mxCell>
      </root>
    </mxGraphModel>
  </diagram>
</mxfile>
